<?xml version="1.0" encoding="UTF-8" standalone="no"?>
<!DOCTYPE svg PUBLIC "-//W3C//DTD SVG 1.1//EN"
 "http://www.w3.org/Graphics/SVG/1.1/DTD/svg11.dtd">
<!-- Generated by graphviz version 14.1.5 (20260411.2331)
 -->
<!-- Title: G Pages: 1 -->
<svg width="773pt" height="456pt"
 viewBox="0.00 0.00 773.00 456.00" xmlns="http://www.w3.org/2000/svg" xmlns:xlink="http://www.w3.org/1999/xlink">
<g id="graph0" class="graph" transform="scale(1 1) rotate(0) translate(4 451.5)">
<title>G</title>
<polygon fill="white" stroke="none" points="-4,4 -4,-451.5 769.25,-451.5 769.25,4 -4,4"/>
<g id="clust1" class="cluster">
<title>cluster_toplevel</title>
<polygon fill="none" stroke="white" points="288.12,-366 288.12,-439.5 480.12,-439.5 480.12,-366 288.12,-366"/>
</g>
<!-- a_21 -->
<g id="node1" class="node">
<title>a_21</title>
<g id="a_node1"><a xlink:href="07D0453A16B73617.svg" xlink:title="{Len Brown\ngmail.com|{RSA 4096|07D0453A16B73617}}">
<path fill="none" stroke="gray" d="M15.37,-281C15.37,-281 168.88,-281 168.88,-281 174.88,-281 180.88,-287 180.88,-293 180.88,-293 180.88,-325.5 180.88,-325.5 180.88,-331.5 174.88,-337.5 168.88,-337.5 168.88,-337.5 15.38,-337.5 15.38,-337.5 9.38,-337.5 3.38,-331.5 3.38,-325.5 3.38,-325.5 3.38,-293 3.38,-293 3.38,-287 9.38,-281 15.37,-281"/>
<text xml:space="preserve" text-anchor="middle" x="92.12" y="-323.05" font-family="droid sans,dejavu sans,helvetica" font-size="11.00">Len Brown</text>
<text xml:space="preserve" text-anchor="middle" x="92.12" y="-309.55" font-family="droid sans,dejavu sans,helvetica" font-size="11.00">gmail.com</text>
<polyline fill="none" stroke="gray" points="3.38,-302.5 180.88,-302.5"/>
<text xml:space="preserve" text-anchor="middle" x="34.62" y="-288.05" font-family="droid sans,dejavu sans,helvetica" font-size="11.00">RSA 4096</text>
<polyline fill="none" stroke="gray" points="65.88,-281 65.88,-302.5"/>
<text xml:space="preserve" text-anchor="middle" x="123.38" y="-288.05" font-family="droid sans,dejavu sans,helvetica" font-size="11.00">07D0453A16B73617</text>
</a>
</g>
</g>
<!-- a_108 -->
<g id="node3" class="node">
<title>a_108</title>
<g id="a_node3"><a xlink:href="29887E377DC2A2B4.svg" xlink:title="{Artem Bityutskiy\ngmail.com|{RSA 4096|29887E377DC2A2B4}}">
<path fill="none" stroke="gray" d="M12,-187.5C12,-187.5 166.25,-187.5 166.25,-187.5 172.25,-187.5 178.25,-193.5 178.25,-199.5 178.25,-199.5 178.25,-232 178.25,-232 178.25,-238 172.25,-244 166.25,-244 166.25,-244 12,-244 12,-244 6,-244 0,-238 0,-232 0,-232 0,-199.5 0,-199.5 0,-193.5 6,-187.5 12,-187.5"/>
<text xml:space="preserve" text-anchor="middle" x="89.12" y="-229.55" font-family="droid sans,dejavu sans,helvetica" font-size="11.00">Artem Bityutskiy</text>
<text xml:space="preserve" text-anchor="middle" x="89.12" y="-216.05" font-family="droid sans,dejavu sans,helvetica" font-size="11.00">gmail.com</text>
<polyline fill="none" stroke="gray" points="0,-209 178.25,-209"/>
<text xml:space="preserve" text-anchor="middle" x="31.25" y="-194.55" font-family="droid sans,dejavu sans,helvetica" font-size="11.00">RSA 4096</text>
<polyline fill="none" stroke="gray" points="62.5,-187.5 62.5,-209"/>
<text xml:space="preserve" text-anchor="middle" x="120.38" y="-194.55" font-family="droid sans,dejavu sans,helvetica" font-size="11.00">29887E377DC2A2B4</text>
</a>
</g>
</g>
<!-- a_21&#45;&gt;a_108 -->
<g id="edge2" class="edge">
<title>a_21&#45;&gt;a_108</title>
<path fill="none" stroke="black" d="M91.22,-280.8C90.97,-273 90.69,-264.35 90.41,-255.99"/>
<polygon fill="black" stroke="black" points="93.91,-255.89 90.08,-246.01 86.91,-256.12 93.91,-255.89"/>
</g>
<!-- a_314 -->
<g id="node2" class="node">
<title>a_314</title>
<g id="a_node2"><a xlink:href="79BE3E4300411886.svg" xlink:title="{Linus Torvalds\nlinux&#45;foundation.org|{RSA 2048|79BE3E4300411886}}">
<path fill="none" stroke="gray" d="M308.5,-374.5C308.5,-374.5 459.75,-374.5 459.75,-374.5 465.75,-374.5 471.75,-380.5 471.75,-386.5 471.75,-386.5 471.75,-419 471.75,-419 471.75,-425 465.75,-431 459.75,-431 459.75,-431 308.5,-431 308.5,-431 302.5,-431 296.5,-425 296.5,-419 296.5,-419 296.5,-386.5 296.5,-386.5 296.5,-380.5 302.5,-374.5 308.5,-374.5"/>
<text xml:space="preserve" text-anchor="middle" x="384.12" y="-416.55" font-family="droid sans,dejavu sans,helvetica" font-size="11.00">Linus Torvalds</text>
<text xml:space="preserve" text-anchor="middle" x="384.12" y="-403.05" font-family="droid sans,dejavu sans,helvetica" font-size="11.00">linux&#45;foundation.org</text>
<polyline fill="none" stroke="gray" points="296.5,-396 471.75,-396"/>
<text xml:space="preserve" text-anchor="middle" x="327.75" y="-381.55" font-family="droid sans,dejavu sans,helvetica" font-size="11.00">RSA 2048</text>
<polyline fill="none" stroke="gray" points="359,-374.5 359,-396"/>
<text xml:space="preserve" text-anchor="middle" x="415.38" y="-381.55" font-family="droid sans,dejavu sans,helvetica" font-size="11.00">79BE3E4300411886</text>
</a>
</g>
</g>
<!-- a_314&#45;&gt;a_21 -->
<g id="edge1" class="edge">
<title>a_314&#45;&gt;a_21</title>
<path fill="none" stroke="black" d="M296.12,-374.17C263.09,-363.82 225.32,-351.99 191.34,-341.34"/>
<polygon fill="black" stroke="black" points="192.49,-338.03 181.9,-338.38 190.39,-344.71 192.49,-338.03"/>
</g>
<!-- a_46 -->
<g id="node5" class="node">
<title>a_46</title>
<g id="a_node5"><a xlink:href="109F098506FF0B14.svg" xlink:title="{Thomas Gleixner\nlinutronix.de|{RSA 4096|109F098506FF0B14}}">
<path fill="none" stroke="gray" d="M212.62,-281C212.62,-281 361.62,-281 361.62,-281 367.62,-281 373.62,-287 373.62,-293 373.62,-293 373.62,-325.5 373.62,-325.5 373.62,-331.5 367.62,-337.5 361.62,-337.5 361.62,-337.5 212.62,-337.5 212.62,-337.5 206.62,-337.5 200.62,-331.5 200.62,-325.5 200.62,-325.5 200.62,-293 200.62,-293 200.62,-287 206.62,-281 212.62,-281"/>
<text xml:space="preserve" text-anchor="middle" x="287.12" y="-323.05" font-family="droid sans,dejavu sans,helvetica" font-size="11.00">Thomas Gleixner</text>
<text xml:space="preserve" text-anchor="middle" x="287.12" y="-309.55" font-family="droid sans,dejavu sans,helvetica" font-size="11.00">linutronix.de</text>
<polyline fill="none" stroke="gray" points="200.62,-302.5 373.62,-302.5"/>
<text xml:space="preserve" text-anchor="middle" x="231.88" y="-288.05" font-family="droid sans,dejavu sans,helvetica" font-size="11.00">RSA 4096</text>
<polyline fill="none" stroke="gray" points="263.12,-281 263.12,-302.5"/>
<text xml:space="preserve" text-anchor="middle" x="318.38" y="-288.05" font-family="droid sans,dejavu sans,helvetica" font-size="11.00">109F098506FF0B14</text>
</a>
</g>
</g>
<!-- a_314&#45;&gt;a_46 -->
<g id="edge4" class="edge">
<title>a_314&#45;&gt;a_46</title>
<path fill="none" stroke="black" d="M354.76,-374.05C345.26,-365.09 334.6,-355.03 324.6,-345.6"/>
<polygon fill="black" stroke="black" points="327.17,-343.21 317.49,-338.9 322.37,-348.3 327.17,-343.21"/>
</g>
<!-- a_255 -->
<g id="node8" class="node">
<title>a_255</title>
<g id="a_node8"><a xlink:href="63B4F0197F3C42E7.svg" xlink:title="{Mauro Carvalho Chehab\nredhat.com|{RSA 4096|63B4F0197F3C42E7}}">
<path fill="none" stroke="gray" d="M405.88,-281C405.88,-281 556.38,-281 556.38,-281 562.38,-281 568.38,-287 568.38,-293 568.38,-293 568.38,-325.5 568.38,-325.5 568.38,-331.5 562.38,-337.5 556.38,-337.5 556.38,-337.5 405.88,-337.5 405.88,-337.5 399.88,-337.5 393.88,-331.5 393.88,-325.5 393.88,-325.5 393.88,-293 393.88,-293 393.88,-287 399.88,-281 405.88,-281"/>
<text xml:space="preserve" text-anchor="middle" x="481.12" y="-323.05" font-family="droid sans,dejavu sans,helvetica" font-size="11.00">Mauro Carvalho Chehab</text>
<text xml:space="preserve" text-anchor="middle" x="481.12" y="-309.55" font-family="droid sans,dejavu sans,helvetica" font-size="11.00">redhat.com</text>
<polyline fill="none" stroke="gray" points="393.88,-302.5 568.38,-302.5"/>
<text xml:space="preserve" text-anchor="middle" x="425.12" y="-288.05" font-family="droid sans,dejavu sans,helvetica" font-size="11.00">RSA 4096</text>
<polyline fill="none" stroke="gray" points="456.38,-281 456.38,-302.5"/>
<text xml:space="preserve" text-anchor="middle" x="512.38" y="-288.05" font-family="droid sans,dejavu sans,helvetica" font-size="11.00">63B4F0197F3C42E7</text>
</a>
</g>
</g>
<!-- a_314&#45;&gt;a_255 -->
<g id="edge8" class="edge">
<title>a_314&#45;&gt;a_255</title>
<path fill="none" stroke="black" d="M413.49,-374.05C422.99,-365.09 433.65,-355.03 443.65,-345.6"/>
<polygon fill="black" stroke="black" points="445.88,-348.3 450.76,-338.9 441.08,-343.21 445.88,-348.3"/>
</g>
<!-- a_394 -->
<g id="node11" class="node">
<title>a_394</title>
<g id="a_node11"><a xlink:href="972D5BF4DC613806.svg" xlink:title="{John W. Linville\ntuxdriver.com|{RSA 4096|972D5BF4DC613806}}">
<path fill="none" stroke="gray" d="M599,-281C599,-281 753.25,-281 753.25,-281 759.25,-281 765.25,-287 765.25,-293 765.25,-293 765.25,-325.5 765.25,-325.5 765.25,-331.5 759.25,-337.5 753.25,-337.5 753.25,-337.5 599,-337.5 599,-337.5 593,-337.5 587,-331.5 587,-325.5 587,-325.5 587,-293 587,-293 587,-287 593,-281 599,-281"/>
<text xml:space="preserve" text-anchor="middle" x="676.12" y="-323.05" font-family="droid sans,dejavu sans,helvetica" font-size="11.00">John W. Linville</text>
<text xml:space="preserve" text-anchor="middle" x="676.12" y="-309.55" font-family="droid sans,dejavu sans,helvetica" font-size="11.00">tuxdriver.com</text>
<polyline fill="none" stroke="gray" points="587,-302.5 765.25,-302.5"/>
<text xml:space="preserve" text-anchor="middle" x="618.25" y="-288.05" font-family="droid sans,dejavu sans,helvetica" font-size="11.00">RSA 4096</text>
<polyline fill="none" stroke="gray" points="649.5,-281 649.5,-302.5"/>
<text xml:space="preserve" text-anchor="middle" x="707.38" y="-288.05" font-family="droid sans,dejavu sans,helvetica" font-size="11.00">972D5BF4DC613806</text>
</a>
</g>
</g>
<!-- a_314&#45;&gt;a_394 -->
<g id="edge12" class="edge">
<title>a_314&#45;&gt;a_394</title>
<path fill="none" stroke="black" d="M472.13,-374.17C505.16,-363.82 542.93,-351.99 576.91,-341.34"/>
<polygon fill="black" stroke="black" points="577.86,-344.71 586.35,-338.38 575.76,-338.03 577.86,-344.71"/>
</g>
<!-- a_3 -->
<g id="node4" class="node">
<title>a_3</title>
<g id="a_node4"><a xlink:href="00FD9F49DF9958A0.svg" xlink:title="{Mika Westerberg\niki.fi|{RSA 4096|00FD9F49DF9958A0}}">
<path fill="none" stroke="gray" d="M307.12,-0.5C307.12,-0.5 459.12,-0.5 459.12,-0.5 465.12,-0.5 471.12,-6.5 471.12,-12.5 471.12,-12.5 471.12,-45 471.12,-45 471.12,-51 465.12,-57 459.12,-57 459.12,-57 307.12,-57 307.12,-57 301.12,-57 295.12,-51 295.12,-45 295.12,-45 295.12,-12.5 295.12,-12.5 295.12,-6.5 301.12,-0.5 307.12,-0.5"/>
<text xml:space="preserve" text-anchor="middle" x="383.12" y="-42.55" font-family="droid sans,dejavu sans,helvetica" font-size="11.00">Mika Westerberg</text>
<text xml:space="preserve" text-anchor="middle" x="383.12" y="-29.05" font-family="droid sans,dejavu sans,helvetica" font-size="11.00">iki.fi</text>
<polyline fill="none" stroke="gray" points="295.12,-22 471.12,-22"/>
<text xml:space="preserve" text-anchor="middle" x="326.38" y="-7.55" font-family="droid sans,dejavu sans,helvetica" font-size="11.00">RSA 4096</text>
<polyline fill="none" stroke="gray" points="357.62,-0.5 357.62,-22"/>
<text xml:space="preserve" text-anchor="middle" x="414.38" y="-7.55" font-family="droid sans,dejavu sans,helvetica" font-size="11.00">00FD9F49DF9958A0</text>
</a>
</g>
</g>
<!-- a_108&#45;&gt;a_3 -->
<g id="edge3" class="edge">
<title>a_108&#45;&gt;a_3</title>
<path fill="none" stroke="black" d="M105.16,-187.02C122.37,-159.56 152.15,-118.17 188.12,-93.5 216.63,-73.96 251.54,-60.07 283.9,-50.36"/>
<polygon fill="black" stroke="black" points="284.68,-53.78 293.32,-47.64 282.74,-47.05 284.68,-53.78"/>
</g>
<!-- a_435 -->
<g id="node6" class="node">
<title>a_435</title>
<g id="a_node6"><a xlink:href="A6CC680C0AA77EB8.svg" xlink:title="{Darren Vincent Hart\nkernel.org|{RSA 2048|A6CC680C0AA77EB8}}">
<path fill="none" stroke="gray" d="M208.25,-187.5C208.25,-187.5 364,-187.5 364,-187.5 370,-187.5 376,-193.5 376,-199.5 376,-199.5 376,-232 376,-232 376,-238 370,-244 364,-244 364,-244 208.25,-244 208.25,-244 202.25,-244 196.25,-238 196.25,-232 196.25,-232 196.25,-199.5 196.25,-199.5 196.25,-193.5 202.25,-187.5 208.25,-187.5"/>
<text xml:space="preserve" text-anchor="middle" x="286.12" y="-229.55" font-family="droid sans,dejavu sans,helvetica" font-size="11.00">Darren Vincent Hart</text>
<text xml:space="preserve" text-anchor="middle" x="286.12" y="-216.05" font-family="droid sans,dejavu sans,helvetica" font-size="11.00">kernel.org</text>
<polyline fill="none" stroke="gray" points="196.25,-209 376,-209"/>
<text xml:space="preserve" text-anchor="middle" x="227.5" y="-194.55" font-family="droid sans,dejavu sans,helvetica" font-size="11.00">RSA 2048</text>
<polyline fill="none" stroke="gray" points="258.75,-187.5 258.75,-209"/>
<text xml:space="preserve" text-anchor="middle" x="317.38" y="-194.55" font-family="droid sans,dejavu sans,helvetica" font-size="11.00">A6CC680C0AA77EB8</text>
</a>
</g>
</g>
<!-- a_46&#45;&gt;a_435 -->
<g id="edge5" class="edge">
<title>a_46&#45;&gt;a_435</title>
<path fill="none" stroke="black" d="M286.82,-280.8C286.74,-273 286.65,-264.35 286.55,-255.99"/>
<polygon fill="black" stroke="black" points="290.05,-255.97 286.44,-246.01 283.05,-256.05 290.05,-255.97"/>
</g>
<!-- a_399 -->
<g id="node7" class="node">
<title>a_399</title>
<g id="a_node7"><a xlink:href="993DFFF377394B2D.svg" xlink:title="{Andriy Shevchenko\nlinux.intel.com|{RSA 4096|993DFFF377394B2D}}">
<path fill="none" stroke="gray" d="M209.12,-94C209.12,-94 361.12,-94 361.12,-94 367.12,-94 373.12,-100 373.12,-106 373.12,-106 373.12,-138.5 373.12,-138.5 373.12,-144.5 367.12,-150.5 361.12,-150.5 361.12,-150.5 209.12,-150.5 209.12,-150.5 203.12,-150.5 197.12,-144.5 197.12,-138.5 197.12,-138.5 197.12,-106 197.12,-106 197.12,-100 203.12,-94 209.12,-94"/>
<text xml:space="preserve" text-anchor="middle" x="285.12" y="-136.05" font-family="droid sans,dejavu sans,helvetica" font-size="11.00">Andriy Shevchenko</text>
<text xml:space="preserve" text-anchor="middle" x="285.12" y="-122.55" font-family="droid sans,dejavu sans,helvetica" font-size="11.00">linux.intel.com</text>
<polyline fill="none" stroke="gray" points="197.12,-115.5 373.12,-115.5"/>
<text xml:space="preserve" text-anchor="middle" x="228.38" y="-101.05" font-family="droid sans,dejavu sans,helvetica" font-size="11.00">RSA 4096</text>
<polyline fill="none" stroke="gray" points="259.62,-94 259.62,-115.5"/>
<text xml:space="preserve" text-anchor="middle" x="316.38" y="-101.05" font-family="droid sans,dejavu sans,helvetica" font-size="11.00">993DFFF377394B2D</text>
</a>
</g>
</g>
<!-- a_435&#45;&gt;a_399 -->
<g id="edge6" class="edge">
<title>a_435&#45;&gt;a_399</title>
<path fill="none" stroke="black" d="M285.82,-187.3C285.74,-179.5 285.65,-170.85 285.55,-162.49"/>
<polygon fill="black" stroke="black" points="289.05,-162.47 285.44,-152.51 282.05,-162.55 289.05,-162.47"/>
</g>
<!-- a_399&#45;&gt;a_3 -->
<g id="edge7" class="edge">
<title>a_399&#45;&gt;a_3</title>
<path fill="none" stroke="black" d="M314.79,-93.55C324.39,-84.59 335.16,-74.53 345.27,-65.1"/>
<polygon fill="black" stroke="black" points="347.53,-67.77 352.45,-58.39 342.75,-62.66 347.53,-67.77"/>
</g>
<!-- a_624 -->
<g id="node9" class="node">
<title>a_624</title>
<g id="a_node9"><a xlink:href="FB373D45F8B36D28.svg" xlink:title="{Gustavo Padovan\npadovan.org|{RSA 4096|FB373D45F8B36D28}}">
<path fill="none" stroke="gray" d="M406.38,-187.5C406.38,-187.5 559.88,-187.5 559.88,-187.5 565.88,-187.5 571.88,-193.5 571.88,-199.5 571.88,-199.5 571.88,-232 571.88,-232 571.88,-238 565.88,-244 559.88,-244 559.88,-244 406.38,-244 406.38,-244 400.38,-244 394.38,-238 394.38,-232 394.38,-232 394.38,-199.5 394.38,-199.5 394.38,-193.5 400.38,-187.5 406.38,-187.5"/>
<text xml:space="preserve" text-anchor="middle" x="483.12" y="-229.55" font-family="droid sans,dejavu sans,helvetica" font-size="11.00">Gustavo Padovan</text>
<text xml:space="preserve" text-anchor="middle" x="483.12" y="-216.05" font-family="droid sans,dejavu sans,helvetica" font-size="11.00">padovan.org</text>
<polyline fill="none" stroke="gray" points="394.38,-209 571.88,-209"/>
<text xml:space="preserve" text-anchor="middle" x="425.62" y="-194.55" font-family="droid sans,dejavu sans,helvetica" font-size="11.00">RSA 4096</text>
<polyline fill="none" stroke="gray" points="456.88,-187.5 456.88,-209"/>
<text xml:space="preserve" text-anchor="middle" x="514.38" y="-194.55" font-family="droid sans,dejavu sans,helvetica" font-size="11.00">FB373D45F8B36D28</text>
</a>
</g>
</g>
<!-- a_255&#45;&gt;a_624 -->
<g id="edge9" class="edge">
<title>a_255&#45;&gt;a_624</title>
<path fill="none" stroke="black" d="M481.73,-280.8C481.9,-273 482.08,-264.35 482.27,-255.99"/>
<polygon fill="black" stroke="black" points="485.77,-256.09 482.49,-246.01 478.77,-255.93 485.77,-256.09"/>
</g>
<!-- a_483 -->
<g id="node10" class="node">
<title>a_483</title>
<g id="a_node10"><a xlink:href="BF53AD52308AD4EC.svg" xlink:title="{Sakari Ailus\niki.fi|{DSA 3072|BF53AD52308AD4EC}}">
<path fill="none" stroke="gray" d="M402.88,-94C402.88,-94 559.38,-94 559.38,-94 565.38,-94 571.38,-100 571.38,-106 571.38,-106 571.38,-138.5 571.38,-138.5 571.38,-144.5 565.38,-150.5 559.38,-150.5 559.38,-150.5 402.88,-150.5 402.88,-150.5 396.88,-150.5 390.88,-144.5 390.88,-138.5 390.88,-138.5 390.88,-106 390.88,-106 390.88,-100 396.88,-94 402.88,-94"/>
<text xml:space="preserve" text-anchor="middle" x="481.12" y="-136.05" font-family="droid sans,dejavu sans,helvetica" font-size="11.00">Sakari Ailus</text>
<text xml:space="preserve" text-anchor="middle" x="481.12" y="-122.55" font-family="droid sans,dejavu sans,helvetica" font-size="11.00">iki.fi</text>
<polyline fill="none" stroke="gray" points="390.88,-115.5 571.38,-115.5"/>
<text xml:space="preserve" text-anchor="middle" x="422.5" y="-101.05" font-family="droid sans,dejavu sans,helvetica" font-size="11.00">DSA 3072</text>
<polyline fill="none" stroke="gray" points="454.12,-94 454.12,-115.5"/>
<text xml:space="preserve" text-anchor="middle" x="512.75" y="-101.05" font-family="droid sans,dejavu sans,helvetica" font-size="11.00">BF53AD52308AD4EC</text>
</a>
</g>
</g>
<!-- a_624&#45;&gt;a_483 -->
<g id="edge10" class="edge">
<title>a_624&#45;&gt;a_483</title>
<path fill="none" stroke="black" d="M482.52,-187.3C482.35,-179.5 482.17,-170.85 481.98,-162.49"/>
<polygon fill="black" stroke="black" points="485.48,-162.43 481.76,-152.51 478.48,-162.59 485.48,-162.43"/>
</g>
<!-- a_483&#45;&gt;a_3 -->
<g id="edge11" class="edge">
<title>a_483&#45;&gt;a_3</title>
<path fill="none" stroke="black" d="M451.46,-93.55C441.86,-84.59 431.09,-74.53 420.98,-65.1"/>
<polygon fill="black" stroke="black" points="423.5,-62.66 413.8,-58.39 418.72,-67.77 423.5,-62.66"/>
</g>
<!-- a_98 -->
<g id="node12" class="node">
<title>a_98</title>
<g id="a_node12"><a xlink:href="2423F6FBF9A8D412.svg" xlink:title="{Johan Hedberg\nintel.com|{RSA 4096|2423F6FBF9A8D412}}">
<path fill="none" stroke="gray" d="M601.5,-187.5C601.5,-187.5 752.75,-187.5 752.75,-187.5 758.75,-187.5 764.75,-193.5 764.75,-199.5 764.75,-199.5 764.75,-232 764.75,-232 764.75,-238 758.75,-244 752.75,-244 752.75,-244 601.5,-244 601.5,-244 595.5,-244 589.5,-238 589.5,-232 589.5,-232 589.5,-199.5 589.5,-199.5 589.5,-193.5 595.5,-187.5 601.5,-187.5"/>
<text xml:space="preserve" text-anchor="middle" x="677.12" y="-229.55" font-family="droid sans,dejavu sans,helvetica" font-size="11.00">Johan Hedberg</text>
<text xml:space="preserve" text-anchor="middle" x="677.12" y="-216.05" font-family="droid sans,dejavu sans,helvetica" font-size="11.00">intel.com</text>
<polyline fill="none" stroke="gray" points="589.5,-209 764.75,-209"/>
<text xml:space="preserve" text-anchor="middle" x="620.75" y="-194.55" font-family="droid sans,dejavu sans,helvetica" font-size="11.00">RSA 4096</text>
<polyline fill="none" stroke="gray" points="652,-187.5 652,-209"/>
<text xml:space="preserve" text-anchor="middle" x="708.38" y="-194.55" font-family="droid sans,dejavu sans,helvetica" font-size="11.00">2423F6FBF9A8D412</text>
</a>
</g>
</g>
<!-- a_394&#45;&gt;a_98 -->
<g id="edge13" class="edge">
<title>a_394&#45;&gt;a_98</title>
<path fill="none" stroke="black" d="M676.43,-280.8C676.51,-273 676.6,-264.35 676.7,-255.99"/>
<polygon fill="black" stroke="black" points="680.2,-256.05 676.81,-246.01 673.2,-255.97 680.2,-256.05"/>
</g>
<!-- a_230 -->
<g id="node13" class="node">
<title>a_230</title>
<g id="a_node13"><a xlink:href="58839FFB9893C549.svg" xlink:title="{Mathias Nyman\ngmail.com|{RSA 4096|58839FFB9893C549}}">
<path fill="none" stroke="gray" d="M601.88,-94C601.88,-94 752.38,-94 752.38,-94 758.38,-94 764.38,-100 764.38,-106 764.38,-106 764.38,-138.5 764.38,-138.5 764.38,-144.5 758.38,-150.5 752.38,-150.5 752.38,-150.5 601.88,-150.5 601.88,-150.5 595.88,-150.5 589.88,-144.5 589.88,-138.5 589.88,-138.5 589.88,-106 589.88,-106 589.88,-100 595.88,-94 601.88,-94"/>
<text xml:space="preserve" text-anchor="middle" x="677.12" y="-136.05" font-family="droid sans,dejavu sans,helvetica" font-size="11.00">Mathias Nyman</text>
<text xml:space="preserve" text-anchor="middle" x="677.12" y="-122.55" font-family="droid sans,dejavu sans,helvetica" font-size="11.00">gmail.com</text>
<polyline fill="none" stroke="gray" points="589.88,-115.5 764.38,-115.5"/>
<text xml:space="preserve" text-anchor="middle" x="621.12" y="-101.05" font-family="droid sans,dejavu sans,helvetica" font-size="11.00">RSA 4096</text>
<polyline fill="none" stroke="gray" points="652.38,-94 652.38,-115.5"/>
<text xml:space="preserve" text-anchor="middle" x="708.38" y="-101.05" font-family="droid sans,dejavu sans,helvetica" font-size="11.00">58839FFB9893C549</text>
</a>
</g>
</g>
<!-- a_98&#45;&gt;a_230 -->
<g id="edge14" class="edge">
<title>a_98&#45;&gt;a_230</title>
<path fill="none" stroke="black" d="M677.12,-187.3C677.12,-179.5 677.12,-170.85 677.12,-162.49"/>
<polygon fill="black" stroke="black" points="680.63,-162.51 677.13,-152.51 673.63,-162.51 680.63,-162.51"/>
</g>
<!-- a_230&#45;&gt;a_3 -->
<g id="edge15" class="edge">
<title>a_230&#45;&gt;a_3</title>
<path fill="none" stroke="black" d="M589.71,-94.04C555.89,-83.52 517,-71.41 482.15,-60.57"/>
<polygon fill="black" stroke="black" points="483.51,-57.33 472.92,-57.7 481.43,-64.01 483.51,-57.33"/>
</g>
</g>
</svg>
