<?xml version="1.0" encoding="UTF-8" standalone="no"?>
<!DOCTYPE svg PUBLIC "-//W3C//DTD SVG 1.1//EN"
 "http://www.w3.org/Graphics/SVG/1.1/DTD/svg11.dtd">
<!-- Generated by graphviz version 2.40.1 (0)
 -->
<!-- Title: G Pages: 1 -->
<svg width="385pt" height="344pt"
 viewBox="0.00 0.00 385.00 344.00" xmlns="http://www.w3.org/2000/svg" xmlns:xlink="http://www.w3.org/1999/xlink">
<g id="graph0" class="graph" transform="scale(1 1) rotate(0) translate(4 340)">
<title>G</title>
<polygon fill="#ffffff" stroke="transparent" points="-4,4 -4,-340 381,-340 381,4 -4,4"/>
<g id="clust1" class="cluster">
<title>cluster_toplevel</title>
<polygon fill="none" stroke="#ffffff" points="92.5,-259 92.5,-328 284.5,-328 284.5,-259 92.5,-259"/>
</g>
<!-- a_72 -->
<g id="node1" class="node">
<title>a_72</title>
<path fill="none" stroke="#c0c0c0" d="M12,-178.5C12,-178.5 169,-178.5 169,-178.5 175,-178.5 181,-184.5 181,-190.5 181,-190.5 181,-218.5 181,-218.5 181,-224.5 175,-230.5 169,-230.5 169,-230.5 12,-230.5 12,-230.5 6,-230.5 0,-224.5 0,-218.5 0,-218.5 0,-190.5 0,-190.5 0,-184.5 6,-178.5 12,-178.5"/>
<text text-anchor="middle" x="90.5" y="-217.7" font-family="droid sans,dejavu sans,helvetica" font-size="11.00" fill="#000000">David Howells</text>
<text text-anchor="middle" x="90.5" y="-205.7" font-family="droid sans,dejavu sans,helvetica" font-size="11.00" fill="#000000">redhat.com</text>
<polyline fill="none" stroke="#c0c0c0" points="0,-198.5 181,-198.5 "/>
<text text-anchor="middle" x="31.5" y="-185.7" font-family="droid sans,dejavu sans,helvetica" font-size="11.00" fill="#000000">RSA 4096</text>
<polyline fill="none" stroke="#c0c0c0" points="63,-178.5 63,-198.5 "/>
<text text-anchor="middle" x="122" y="-185.7" font-family="droid sans,dejavu sans,helvetica" font-size="11.00" fill="#000000">FBB7576BA7CB0B6B</text>
</g>
<!-- a_42 -->
<g id="node3" class="node">
<title>a_42</title>
<path fill="none" stroke="#c0c0c0" d="M13,-89.5C13,-89.5 168,-89.5 168,-89.5 174,-89.5 180,-95.5 180,-101.5 180,-101.5 180,-129.5 180,-129.5 180,-135.5 174,-141.5 168,-141.5 168,-141.5 13,-141.5 13,-141.5 7,-141.5 1,-135.5 1,-129.5 1,-129.5 1,-101.5 1,-101.5 1,-95.5 7,-89.5 13,-89.5"/>
<text text-anchor="middle" x="90.5" y="-128.7" font-family="droid sans,dejavu sans,helvetica" font-size="11.00" fill="#000000">Mark Brown</text>
<text text-anchor="middle" x="90.5" y="-116.7" font-family="droid sans,dejavu sans,helvetica" font-size="11.00" fill="#000000">sirena.org.uk</text>
<polyline fill="none" stroke="#c0c0c0" points="1,-109.5 180,-109.5 "/>
<text text-anchor="middle" x="32.5" y="-96.7" font-family="droid sans,dejavu sans,helvetica" font-size="11.00" fill="#000000">RSA 4096</text>
<polyline fill="none" stroke="#c0c0c0" points="64,-89.5 64,-109.5 "/>
<text text-anchor="middle" x="122" y="-96.7" font-family="droid sans,dejavu sans,helvetica" font-size="11.00" fill="#000000">C3F436CA30F5D8EB</text>
</g>
<!-- a_72&#45;&gt;a_42 -->
<g id="edge2" class="edge">
<title>a_72&#45;&gt;a_42</title>
<path fill="none" stroke="#000000" d="M90.5,-178.2784C90.5,-169.9495 90.5,-160.5865 90.5,-151.6839"/>
<polygon fill="#000000" stroke="#000000" points="94.0001,-151.5341 90.5,-141.5341 87.0001,-151.5342 94.0001,-151.5341"/>
</g>
<!-- a_321 -->
<g id="node2" class="node">
<title>a_321</title>
<path fill="none" stroke="#c0c0c0" d="M112.5,-267.5C112.5,-267.5 264.5,-267.5 264.5,-267.5 270.5,-267.5 276.5,-273.5 276.5,-279.5 276.5,-279.5 276.5,-307.5 276.5,-307.5 276.5,-313.5 270.5,-319.5 264.5,-319.5 264.5,-319.5 112.5,-319.5 112.5,-319.5 106.5,-319.5 100.5,-313.5 100.5,-307.5 100.5,-307.5 100.5,-279.5 100.5,-279.5 100.5,-273.5 106.5,-267.5 112.5,-267.5"/>
<text text-anchor="middle" x="188.5" y="-306.7" font-family="droid sans,dejavu sans,helvetica" font-size="11.00" fill="#000000">Linus Torvalds</text>
<text text-anchor="middle" x="188.5" y="-294.7" font-family="droid sans,dejavu sans,helvetica" font-size="11.00" fill="#000000">kernel.org</text>
<polyline fill="none" stroke="#c0c0c0" points="100.5,-287.5 276.5,-287.5 "/>
<text text-anchor="middle" x="132" y="-274.7" font-family="droid sans,dejavu sans,helvetica" font-size="11.00" fill="#000000">RSA 2048</text>
<polyline fill="none" stroke="#c0c0c0" points="163.5,-267.5 163.5,-287.5 "/>
<text text-anchor="middle" x="220" y="-274.7" font-family="droid sans,dejavu sans,helvetica" font-size="11.00" fill="#000000">79BE3E4300411886</text>
</g>
<!-- a_321&#45;&gt;a_72 -->
<g id="edge1" class="edge">
<title>a_321&#45;&gt;a_72</title>
<path fill="none" stroke="#000000" d="M159.6268,-267.2784C149.359,-257.9536 137.6641,-247.3327 126.8513,-237.5129"/>
<polygon fill="#000000" stroke="#000000" points="128.9227,-234.6662 119.1668,-230.5341 124.2166,-239.8481 128.9227,-234.6662"/>
</g>
<!-- a_228 -->
<g id="node5" class="node">
<title>a_228</title>
<path fill="none" stroke="#c0c0c0" d="M211.5,-178.5C211.5,-178.5 363.5,-178.5 363.5,-178.5 369.5,-178.5 375.5,-184.5 375.5,-190.5 375.5,-190.5 375.5,-218.5 375.5,-218.5 375.5,-224.5 369.5,-230.5 363.5,-230.5 363.5,-230.5 211.5,-230.5 211.5,-230.5 205.5,-230.5 199.5,-224.5 199.5,-218.5 199.5,-218.5 199.5,-190.5 199.5,-190.5 199.5,-184.5 205.5,-178.5 211.5,-178.5"/>
<text text-anchor="middle" x="287.5" y="-217.7" font-family="droid sans,dejavu sans,helvetica" font-size="11.00" fill="#000000">Michal Simek</text>
<text text-anchor="middle" x="287.5" y="-205.7" font-family="droid sans,dejavu sans,helvetica" font-size="11.00" fill="#000000">monstr.eu</text>
<polyline fill="none" stroke="#c0c0c0" points="199.5,-198.5 375.5,-198.5 "/>
<text text-anchor="middle" x="231" y="-185.7" font-family="droid sans,dejavu sans,helvetica" font-size="11.00" fill="#000000">RSA 4096</text>
<polyline fill="none" stroke="#c0c0c0" points="262.5,-178.5 262.5,-198.5 "/>
<text text-anchor="middle" x="319" y="-185.7" font-family="droid sans,dejavu sans,helvetica" font-size="11.00" fill="#000000">377C7F21FE3D1F91</text>
</g>
<!-- a_321&#45;&gt;a_228 -->
<g id="edge4" class="edge">
<title>a_321&#45;&gt;a_228</title>
<path fill="none" stroke="#000000" d="M217.6678,-267.2784C228.1411,-257.8631 240.0842,-247.1264 251.0957,-237.2271"/>
<polygon fill="#000000" stroke="#000000" points="253.4439,-239.8225 258.5407,-230.5341 248.764,-234.6168 253.4439,-239.8225"/>
</g>
<!-- a_406 -->
<g id="node4" class="node">
<title>a_406</title>
<path fill="none" stroke="#c0c0c0" d="M111.5,-.5C111.5,-.5 265.5,-.5 265.5,-.5 271.5,-.5 277.5,-6.5 277.5,-12.5 277.5,-12.5 277.5,-40.5 277.5,-40.5 277.5,-46.5 271.5,-52.5 265.5,-52.5 265.5,-52.5 111.5,-52.5 111.5,-52.5 105.5,-52.5 99.5,-46.5 99.5,-40.5 99.5,-40.5 99.5,-12.5 99.5,-12.5 99.5,-6.5 105.5,-.5 111.5,-.5"/>
<text text-anchor="middle" x="188.5" y="-39.7" font-family="droid sans,dejavu sans,helvetica" font-size="11.00" fill="#000000">Michael Grzeschik</text>
<text text-anchor="middle" x="188.5" y="-27.7" font-family="droid sans,dejavu sans,helvetica" font-size="11.00" fill="#000000">pengutronix.de</text>
<polyline fill="none" stroke="#c0c0c0" points="99.5,-20.5 277.5,-20.5 "/>
<text text-anchor="middle" x="131" y="-7.7" font-family="droid sans,dejavu sans,helvetica" font-size="11.00" fill="#000000">RSA 4096</text>
<polyline fill="none" stroke="#c0c0c0" points="162.5,-.5 162.5,-20.5 "/>
<text text-anchor="middle" x="220" y="-7.7" font-family="droid sans,dejavu sans,helvetica" font-size="11.00" fill="#000000">0BE9E3157A1E2C64</text>
</g>
<!-- a_42&#45;&gt;a_406 -->
<g id="edge3" class="edge">
<title>a_42&#45;&gt;a_406</title>
<path fill="none" stroke="#000000" d="M119.3732,-89.2784C129.641,-79.9536 141.3359,-69.3327 152.1487,-59.5129"/>
<polygon fill="#000000" stroke="#000000" points="154.7834,-61.8481 159.8332,-52.5341 150.0773,-56.6662 154.7834,-61.8481"/>
</g>
<!-- a_223 -->
<g id="node6" class="node">
<title>a_223</title>
<path fill="none" stroke="#c0c0c0" d="M210,-89.5C210,-89.5 365,-89.5 365,-89.5 371,-89.5 377,-95.5 377,-101.5 377,-101.5 377,-129.5 377,-129.5 377,-135.5 371,-141.5 365,-141.5 365,-141.5 210,-141.5 210,-141.5 204,-141.5 198,-135.5 198,-129.5 198,-129.5 198,-101.5 198,-101.5 198,-95.5 204,-89.5 210,-89.5"/>
<text text-anchor="middle" x="287.5" y="-128.7" font-family="droid sans,dejavu sans,helvetica" font-size="11.00" fill="#000000">Marc Kleine&#45;Budde</text>
<text text-anchor="middle" x="287.5" y="-116.7" font-family="droid sans,dejavu sans,helvetica" font-size="11.00" fill="#000000">blackshift.org</text>
<polyline fill="none" stroke="#c0c0c0" points="198,-109.5 377,-109.5 "/>
<text text-anchor="middle" x="229.5" y="-96.7" font-family="droid sans,dejavu sans,helvetica" font-size="11.00" fill="#000000">RSA 4096</text>
<polyline fill="none" stroke="#c0c0c0" points="261,-89.5 261,-109.5 "/>
<text text-anchor="middle" x="319" y="-96.7" font-family="droid sans,dejavu sans,helvetica" font-size="11.00" fill="#000000">2B5EE211C58AEA54</text>
</g>
<!-- a_228&#45;&gt;a_223 -->
<g id="edge5" class="edge">
<title>a_228&#45;&gt;a_223</title>
<path fill="none" stroke="#000000" d="M287.5,-178.2784C287.5,-169.9495 287.5,-160.5865 287.5,-151.6839"/>
<polygon fill="#000000" stroke="#000000" points="291.0001,-151.5341 287.5,-141.5341 284.0001,-151.5342 291.0001,-151.5341"/>
</g>
<!-- a_223&#45;&gt;a_406 -->
<g id="edge6" class="edge">
<title>a_223&#45;&gt;a_406</title>
<path fill="none" stroke="#000000" d="M258.3322,-89.2784C247.8589,-79.8631 235.9158,-69.1264 224.9043,-59.2271"/>
<polygon fill="#000000" stroke="#000000" points="227.236,-56.6168 217.4593,-52.5341 222.5561,-61.8225 227.236,-56.6168"/>
</g>
</g>
</svg>
