<?xml version="1.0" encoding="UTF-8" standalone="no"?>
<!DOCTYPE svg PUBLIC "-//W3C//DTD SVG 1.1//EN"
 "http://www.w3.org/Graphics/SVG/1.1/DTD/svg11.dtd">
<!-- Generated by graphviz version 14.1.5 (20260411.2331)
 -->
<!-- Title: G Pages: 1 -->
<svg width="774pt" height="456pt"
 viewBox="0.00 0.00 774.00 456.00" xmlns="http://www.w3.org/2000/svg" xmlns:xlink="http://www.w3.org/1999/xlink">
<g id="graph0" class="graph" transform="scale(1 1) rotate(0) translate(4 451.5)">
<title>G</title>
<polygon fill="white" stroke="none" points="-4,4 -4,-451.5 769.75,-451.5 769.75,4 -4,4"/>
<g id="clust1" class="cluster">
<title>cluster_toplevel</title>
<polygon fill="none" stroke="white" points="288.25,-366 288.25,-439.5 480.25,-439.5 480.25,-366 288.25,-366"/>
</g>
<!-- a_123 -->
<g id="node1" class="node">
<title>a_123</title>
<g id="a_node1"><a xlink:href="2EA76B9C2B466D9D.svg" xlink:title="{John Hawley\neaglescrag.net|{RSA 4096|2EA76B9C2B466D9D}}">
<path fill="none" stroke="gray" d="M12,-281C12,-281 168.5,-281 168.5,-281 174.5,-281 180.5,-287 180.5,-293 180.5,-293 180.5,-325.5 180.5,-325.5 180.5,-331.5 174.5,-337.5 168.5,-337.5 168.5,-337.5 12,-337.5 12,-337.5 6,-337.5 0,-331.5 0,-325.5 0,-325.5 0,-293 0,-293 0,-287 6,-281 12,-281"/>
<text xml:space="preserve" text-anchor="middle" x="90.25" y="-323.05" font-family="droid sans,dejavu sans,helvetica" font-size="11.00">John Hawley</text>
<text xml:space="preserve" text-anchor="middle" x="90.25" y="-309.55" font-family="droid sans,dejavu sans,helvetica" font-size="11.00">eaglescrag.net</text>
<polyline fill="none" stroke="gray" points="0,-302.5 180.5,-302.5"/>
<text xml:space="preserve" text-anchor="middle" x="31.25" y="-288.05" font-family="droid sans,dejavu sans,helvetica" font-size="11.00">RSA 4096</text>
<polyline fill="none" stroke="gray" points="62.5,-281 62.5,-302.5"/>
<text xml:space="preserve" text-anchor="middle" x="121.5" y="-288.05" font-family="droid sans,dejavu sans,helvetica" font-size="11.00">2EA76B9C2B466D9D</text>
</a>
</g>
</g>
<!-- a_67 -->
<g id="node3" class="node">
<title>a_67</title>
<g id="a_node3"><a xlink:href="15BC833443038D8C.svg" xlink:title="{Jan Kara\nsuse.com|{RSA 4096|15BC833443038D8C}}">
<path fill="none" stroke="gray" d="M14.12,-187.5C14.12,-187.5 168.38,-187.5 168.38,-187.5 174.38,-187.5 180.38,-193.5 180.38,-199.5 180.38,-199.5 180.38,-232 180.38,-232 180.38,-238 174.38,-244 168.38,-244 168.38,-244 14.12,-244 14.12,-244 8.12,-244 2.12,-238 2.12,-232 2.12,-232 2.12,-199.5 2.12,-199.5 2.12,-193.5 8.12,-187.5 14.12,-187.5"/>
<text xml:space="preserve" text-anchor="middle" x="91.25" y="-229.55" font-family="droid sans,dejavu sans,helvetica" font-size="11.00">Jan Kara</text>
<text xml:space="preserve" text-anchor="middle" x="91.25" y="-216.05" font-family="droid sans,dejavu sans,helvetica" font-size="11.00">suse.com</text>
<polyline fill="none" stroke="gray" points="2.12,-209 180.38,-209"/>
<text xml:space="preserve" text-anchor="middle" x="33.38" y="-194.55" font-family="droid sans,dejavu sans,helvetica" font-size="11.00">RSA 4096</text>
<polyline fill="none" stroke="gray" points="64.62,-187.5 64.62,-209"/>
<text xml:space="preserve" text-anchor="middle" x="122.5" y="-194.55" font-family="droid sans,dejavu sans,helvetica" font-size="11.00">15BC833443038D8C</text>
</a>
</g>
</g>
<!-- a_123&#45;&gt;a_67 -->
<g id="edge2" class="edge">
<title>a_123&#45;&gt;a_67</title>
<path fill="none" stroke="black" d="M90.55,-280.8C90.64,-273 90.73,-264.35 90.82,-255.99"/>
<polygon fill="black" stroke="black" points="94.32,-256.05 90.93,-246.01 87.32,-255.97 94.32,-256.05"/>
</g>
<!-- a_315 -->
<g id="node2" class="node">
<title>a_315</title>
<g id="a_node2"><a xlink:href="79BE3E4300411886.svg" xlink:title="{Linus Torvalds\nlinux&#45;foundation.org|{RSA 2048|79BE3E4300411886}}">
<path fill="none" stroke="gray" d="M308.62,-374.5C308.62,-374.5 459.88,-374.5 459.88,-374.5 465.88,-374.5 471.88,-380.5 471.88,-386.5 471.88,-386.5 471.88,-419 471.88,-419 471.88,-425 465.88,-431 459.88,-431 459.88,-431 308.62,-431 308.62,-431 302.62,-431 296.62,-425 296.62,-419 296.62,-419 296.62,-386.5 296.62,-386.5 296.62,-380.5 302.62,-374.5 308.62,-374.5"/>
<text xml:space="preserve" text-anchor="middle" x="384.25" y="-416.55" font-family="droid sans,dejavu sans,helvetica" font-size="11.00">Linus Torvalds</text>
<text xml:space="preserve" text-anchor="middle" x="384.25" y="-403.05" font-family="droid sans,dejavu sans,helvetica" font-size="11.00">linux&#45;foundation.org</text>
<polyline fill="none" stroke="gray" points="296.62,-396 471.88,-396"/>
<text xml:space="preserve" text-anchor="middle" x="327.88" y="-381.55" font-family="droid sans,dejavu sans,helvetica" font-size="11.00">RSA 2048</text>
<polyline fill="none" stroke="gray" points="359.12,-374.5 359.12,-396"/>
<text xml:space="preserve" text-anchor="middle" x="415.5" y="-381.55" font-family="droid sans,dejavu sans,helvetica" font-size="11.00">79BE3E4300411886</text>
</a>
</g>
</g>
<!-- a_315&#45;&gt;a_123 -->
<g id="edge1" class="edge">
<title>a_315&#45;&gt;a_123</title>
<path fill="none" stroke="black" d="M296.44,-374.42C262.93,-363.99 224.5,-352.03 189.97,-341.29"/>
<polygon fill="black" stroke="black" points="191.42,-338.07 180.83,-338.44 189.34,-344.76 191.42,-338.07"/>
</g>
<!-- a_255 -->
<g id="node5" class="node">
<title>a_255</title>
<g id="a_node5"><a xlink:href="63762CDA67E2F359.svg" xlink:title="{David Woodhouse\ninfradead.org|{RSA 4096|63762CDA67E2F359}}">
<path fill="none" stroke="gray" d="M210.88,-281C210.88,-281 363.62,-281 363.62,-281 369.62,-281 375.62,-287 375.62,-293 375.62,-293 375.62,-325.5 375.62,-325.5 375.62,-331.5 369.62,-337.5 363.62,-337.5 363.62,-337.5 210.88,-337.5 210.88,-337.5 204.88,-337.5 198.88,-331.5 198.88,-325.5 198.88,-325.5 198.88,-293 198.88,-293 198.88,-287 204.88,-281 210.88,-281"/>
<text xml:space="preserve" text-anchor="middle" x="287.25" y="-323.05" font-family="droid sans,dejavu sans,helvetica" font-size="11.00">David Woodhouse</text>
<text xml:space="preserve" text-anchor="middle" x="287.25" y="-309.55" font-family="droid sans,dejavu sans,helvetica" font-size="11.00">infradead.org</text>
<polyline fill="none" stroke="gray" points="198.88,-302.5 375.62,-302.5"/>
<text xml:space="preserve" text-anchor="middle" x="230.12" y="-288.05" font-family="droid sans,dejavu sans,helvetica" font-size="11.00">RSA 4096</text>
<polyline fill="none" stroke="gray" points="261.38,-281 261.38,-302.5"/>
<text xml:space="preserve" text-anchor="middle" x="318.5" y="-288.05" font-family="droid sans,dejavu sans,helvetica" font-size="11.00">63762CDA67E2F359</text>
</a>
</g>
</g>
<!-- a_315&#45;&gt;a_255 -->
<g id="edge4" class="edge">
<title>a_315&#45;&gt;a_255</title>
<path fill="none" stroke="black" d="M354.88,-374.05C345.39,-365.09 334.72,-355.03 324.72,-345.6"/>
<polygon fill="black" stroke="black" points="327.29,-343.21 317.62,-338.9 322.49,-348.3 327.29,-343.21"/>
</g>
<!-- a_380 -->
<g id="node7" class="node">
<title>a_380</title>
<g id="a_node7"><a xlink:href="8DCE35563022E57A.svg" xlink:title="{Jonathan Corbet\nlwn.net|{RSA 4096|8DCE35563022E57A}}">
<path fill="none" stroke="gray" d="M405.5,-281C405.5,-281 559,-281 559,-281 565,-281 571,-287 571,-293 571,-293 571,-325.5 571,-325.5 571,-331.5 565,-337.5 559,-337.5 559,-337.5 405.5,-337.5 405.5,-337.5 399.5,-337.5 393.5,-331.5 393.5,-325.5 393.5,-325.5 393.5,-293 393.5,-293 393.5,-287 399.5,-281 405.5,-281"/>
<text xml:space="preserve" text-anchor="middle" x="482.25" y="-323.05" font-family="droid sans,dejavu sans,helvetica" font-size="11.00">Jonathan Corbet</text>
<text xml:space="preserve" text-anchor="middle" x="482.25" y="-309.55" font-family="droid sans,dejavu sans,helvetica" font-size="11.00">lwn.net</text>
<polyline fill="none" stroke="gray" points="393.5,-302.5 571,-302.5"/>
<text xml:space="preserve" text-anchor="middle" x="424.75" y="-288.05" font-family="droid sans,dejavu sans,helvetica" font-size="11.00">RSA 4096</text>
<polyline fill="none" stroke="gray" points="456,-281 456,-302.5"/>
<text xml:space="preserve" text-anchor="middle" x="513.5" y="-288.05" font-family="droid sans,dejavu sans,helvetica" font-size="11.00">8DCE35563022E57A</text>
</a>
</g>
</g>
<!-- a_315&#45;&gt;a_380 -->
<g id="edge7" class="edge">
<title>a_315&#45;&gt;a_380</title>
<path fill="none" stroke="black" d="M413.92,-374.05C423.51,-365.09 434.29,-355.03 444.39,-345.6"/>
<polygon fill="black" stroke="black" points="446.65,-348.27 451.58,-338.89 441.88,-343.16 446.65,-348.27"/>
</g>
<!-- a_71 -->
<g id="node9" class="node">
<title>a_71</title>
<g id="a_node9"><a xlink:href="17212997986C5765.svg" xlink:title="{Benson Leung\nchromium.org|{RSA 4096|17212997986C5765}}">
<path fill="none" stroke="gray" d="M600.62,-281C600.62,-281 751.88,-281 751.88,-281 757.88,-281 763.88,-287 763.88,-293 763.88,-293 763.88,-325.5 763.88,-325.5 763.88,-331.5 757.88,-337.5 751.88,-337.5 751.88,-337.5 600.62,-337.5 600.62,-337.5 594.62,-337.5 588.62,-331.5 588.62,-325.5 588.62,-325.5 588.62,-293 588.62,-293 588.62,-287 594.62,-281 600.62,-281"/>
<text xml:space="preserve" text-anchor="middle" x="676.25" y="-323.05" font-family="droid sans,dejavu sans,helvetica" font-size="11.00">Benson Leung</text>
<text xml:space="preserve" text-anchor="middle" x="676.25" y="-309.55" font-family="droid sans,dejavu sans,helvetica" font-size="11.00">chromium.org</text>
<polyline fill="none" stroke="gray" points="588.62,-302.5 763.88,-302.5"/>
<text xml:space="preserve" text-anchor="middle" x="619.88" y="-288.05" font-family="droid sans,dejavu sans,helvetica" font-size="11.00">RSA 4096</text>
<polyline fill="none" stroke="gray" points="651.12,-281 651.12,-302.5"/>
<text xml:space="preserve" text-anchor="middle" x="707.5" y="-288.05" font-family="droid sans,dejavu sans,helvetica" font-size="11.00">17212997986C5765</text>
</a>
</g>
</g>
<!-- a_315&#45;&gt;a_71 -->
<g id="edge10" class="edge">
<title>a_315&#45;&gt;a_71</title>
<path fill="none" stroke="black" d="M472.26,-374.17C505.36,-363.8 543.22,-351.93 577.27,-341.27"/>
<polygon fill="black" stroke="black" points="578.23,-344.63 586.73,-338.3 576.14,-337.95 578.23,-344.63"/>
</g>
<!-- a_48 -->
<g id="node4" class="node">
<title>a_48</title>
<g id="a_node4"><a xlink:href="115BD5C937BFD56A.svg" xlink:title="{Amir Goldstein\ngmail.com|{RSA 4096|115BD5C937BFD56A}}">
<path fill="none" stroke="gray" d="M305.38,-0.5C305.38,-0.5 461.12,-0.5 461.12,-0.5 467.12,-0.5 473.12,-6.5 473.12,-12.5 473.12,-12.5 473.12,-45 473.12,-45 473.12,-51 467.12,-57 461.12,-57 461.12,-57 305.38,-57 305.38,-57 299.38,-57 293.38,-51 293.38,-45 293.38,-45 293.38,-12.5 293.38,-12.5 293.38,-6.5 299.38,-0.5 305.38,-0.5"/>
<text xml:space="preserve" text-anchor="middle" x="383.25" y="-42.55" font-family="droid sans,dejavu sans,helvetica" font-size="11.00">Amir Goldstein</text>
<text xml:space="preserve" text-anchor="middle" x="383.25" y="-29.05" font-family="droid sans,dejavu sans,helvetica" font-size="11.00">gmail.com</text>
<polyline fill="none" stroke="gray" points="293.38,-22 473.12,-22"/>
<text xml:space="preserve" text-anchor="middle" x="324.62" y="-7.55" font-family="droid sans,dejavu sans,helvetica" font-size="11.00">RSA 4096</text>
<polyline fill="none" stroke="gray" points="355.88,-0.5 355.88,-22"/>
<text xml:space="preserve" text-anchor="middle" x="414.5" y="-7.55" font-family="droid sans,dejavu sans,helvetica" font-size="11.00">115BD5C937BFD56A</text>
</a>
</g>
</g>
<!-- a_67&#45;&gt;a_48 -->
<g id="edge3" class="edge">
<title>a_67&#45;&gt;a_48</title>
<path fill="none" stroke="black" d="M134.97,-187.05C187.15,-153.99 274.38,-98.73 330.33,-63.28"/>
<polygon fill="black" stroke="black" points="331.86,-66.45 338.43,-58.14 328.11,-60.54 331.86,-66.45"/>
</g>
<!-- a_1 -->
<g id="node6" class="node">
<title>a_1</title>
<g id="a_node6"><a xlink:href="000E684119568215.svg" xlink:title="{Jeff Layton\npoochiereds.net|{RSA 4096|000E684119568215}}">
<path fill="none" stroke="gray" d="M211,-187.5C211,-187.5 361.5,-187.5 361.5,-187.5 367.5,-187.5 373.5,-193.5 373.5,-199.5 373.5,-199.5 373.5,-232 373.5,-232 373.5,-238 367.5,-244 361.5,-244 361.5,-244 211,-244 211,-244 205,-244 199,-238 199,-232 199,-232 199,-199.5 199,-199.5 199,-193.5 205,-187.5 211,-187.5"/>
<text xml:space="preserve" text-anchor="middle" x="286.25" y="-229.55" font-family="droid sans,dejavu sans,helvetica" font-size="11.00">Jeff Layton</text>
<text xml:space="preserve" text-anchor="middle" x="286.25" y="-216.05" font-family="droid sans,dejavu sans,helvetica" font-size="11.00">poochiereds.net</text>
<polyline fill="none" stroke="gray" points="199,-209 373.5,-209"/>
<text xml:space="preserve" text-anchor="middle" x="230.25" y="-194.55" font-family="droid sans,dejavu sans,helvetica" font-size="11.00">RSA 4096</text>
<polyline fill="none" stroke="gray" points="261.5,-187.5 261.5,-209"/>
<text xml:space="preserve" text-anchor="middle" x="317.5" y="-194.55" font-family="droid sans,dejavu sans,helvetica" font-size="11.00">000E684119568215</text>
</a>
</g>
</g>
<!-- a_255&#45;&gt;a_1 -->
<g id="edge5" class="edge">
<title>a_255&#45;&gt;a_1</title>
<path fill="none" stroke="black" d="M286.95,-280.8C286.86,-273 286.77,-264.35 286.68,-255.99"/>
<polygon fill="black" stroke="black" points="290.18,-255.97 286.57,-246.01 283.18,-256.05 290.18,-255.97"/>
</g>
<!-- a_1&#45;&gt;a_48 -->
<g id="edge6" class="edge">
<title>a_1&#45;&gt;a_48</title>
<path fill="none" stroke="black" d="M300.77,-187.05C317.46,-155.22 344.95,-102.8 363.55,-67.31"/>
<polygon fill="black" stroke="black" points="366.54,-69.16 368.08,-58.67 360.34,-65.9 366.54,-69.16"/>
</g>
<!-- a_284 -->
<g id="node8" class="node">
<title>a_284</title>
<g id="a_node8"><a xlink:href="6CBA8A24391968FE.svg" xlink:title="{Miklos Szeredi\nszeredi.hu|{RSA 4096|6CBA8A24391968FE}}">
<path fill="none" stroke="gray" d="M403.88,-187.5C403.88,-187.5 556.62,-187.5 556.62,-187.5 562.62,-187.5 568.62,-193.5 568.62,-199.5 568.62,-199.5 568.62,-232 568.62,-232 568.62,-238 562.62,-244 556.62,-244 556.62,-244 403.88,-244 403.88,-244 397.88,-244 391.88,-238 391.88,-232 391.88,-232 391.88,-199.5 391.88,-199.5 391.88,-193.5 397.88,-187.5 403.88,-187.5"/>
<text xml:space="preserve" text-anchor="middle" x="480.25" y="-229.55" font-family="droid sans,dejavu sans,helvetica" font-size="11.00">Miklos Szeredi</text>
<text xml:space="preserve" text-anchor="middle" x="480.25" y="-216.05" font-family="droid sans,dejavu sans,helvetica" font-size="11.00">szeredi.hu</text>
<polyline fill="none" stroke="gray" points="391.88,-209 568.62,-209"/>
<text xml:space="preserve" text-anchor="middle" x="423.12" y="-194.55" font-family="droid sans,dejavu sans,helvetica" font-size="11.00">RSA 4096</text>
<polyline fill="none" stroke="gray" points="454.38,-187.5 454.38,-209"/>
<text xml:space="preserve" text-anchor="middle" x="511.5" y="-194.55" font-family="droid sans,dejavu sans,helvetica" font-size="11.00">6CBA8A24391968FE</text>
</a>
</g>
</g>
<!-- a_380&#45;&gt;a_284 -->
<g id="edge8" class="edge">
<title>a_380&#45;&gt;a_284</title>
<path fill="none" stroke="black" d="M481.65,-280.8C481.48,-273 481.29,-264.35 481.11,-255.99"/>
<polygon fill="black" stroke="black" points="484.61,-255.93 480.89,-246.01 477.61,-256.09 484.61,-255.93"/>
</g>
<!-- a_284&#45;&gt;a_48 -->
<g id="edge9" class="edge">
<title>a_284&#45;&gt;a_48</title>
<path fill="none" stroke="black" d="M465.73,-187.05C449.04,-155.22 421.55,-102.8 402.95,-67.31"/>
<polygon fill="black" stroke="black" points="406.16,-65.9 398.42,-58.67 399.96,-69.16 406.16,-65.9"/>
</g>
<!-- a_368 -->
<g id="node10" class="node">
<title>a_368</title>
<g id="a_node10"><a xlink:href="8972F4DFDC6DC026.svg" xlink:title="{Kees Cook\noutflux.net|{RSA 4096|8972F4DFDC6DC026}}">
<path fill="none" stroke="gray" d="M598.75,-187.5C598.75,-187.5 753.75,-187.5 753.75,-187.5 759.75,-187.5 765.75,-193.5 765.75,-199.5 765.75,-199.5 765.75,-232 765.75,-232 765.75,-238 759.75,-244 753.75,-244 753.75,-244 598.75,-244 598.75,-244 592.75,-244 586.75,-238 586.75,-232 586.75,-232 586.75,-199.5 586.75,-199.5 586.75,-193.5 592.75,-187.5 598.75,-187.5"/>
<text xml:space="preserve" text-anchor="middle" x="676.25" y="-229.55" font-family="droid sans,dejavu sans,helvetica" font-size="11.00">Kees Cook</text>
<text xml:space="preserve" text-anchor="middle" x="676.25" y="-216.05" font-family="droid sans,dejavu sans,helvetica" font-size="11.00">outflux.net</text>
<polyline fill="none" stroke="gray" points="586.75,-209 765.75,-209"/>
<text xml:space="preserve" text-anchor="middle" x="618" y="-194.55" font-family="droid sans,dejavu sans,helvetica" font-size="11.00">RSA 4096</text>
<polyline fill="none" stroke="gray" points="649.25,-187.5 649.25,-209"/>
<text xml:space="preserve" text-anchor="middle" x="707.5" y="-194.55" font-family="droid sans,dejavu sans,helvetica" font-size="11.00">8972F4DFDC6DC026</text>
</a>
</g>
</g>
<!-- a_71&#45;&gt;a_368 -->
<g id="edge11" class="edge">
<title>a_71&#45;&gt;a_368</title>
<path fill="none" stroke="black" d="M676.25,-280.8C676.25,-273 676.25,-264.35 676.25,-255.99"/>
<polygon fill="black" stroke="black" points="679.75,-256.01 676.25,-246.01 672.75,-256.01 679.75,-256.01"/>
</g>
<!-- a_277 -->
<g id="node11" class="node">
<title>a_277</title>
<g id="a_node11"><a xlink:href="6B792466B03E715A.svg" xlink:title="{Mimi Zohar\nlinux.vnet.ibm.com|{RSA 4096|6B792466B03E715A}}">
<path fill="none" stroke="gray" d="M559.88,-94C559.88,-94 712.62,-94 712.62,-94 718.62,-94 724.62,-100 724.62,-106 724.62,-106 724.62,-138.5 724.62,-138.5 724.62,-144.5 718.62,-150.5 712.62,-150.5 712.62,-150.5 559.88,-150.5 559.88,-150.5 553.88,-150.5 547.88,-144.5 547.88,-138.5 547.88,-138.5 547.88,-106 547.88,-106 547.88,-100 553.88,-94 559.88,-94"/>
<text xml:space="preserve" text-anchor="middle" x="636.25" y="-136.05" font-family="droid sans,dejavu sans,helvetica" font-size="11.00">Mimi Zohar</text>
<text xml:space="preserve" text-anchor="middle" x="636.25" y="-122.55" font-family="droid sans,dejavu sans,helvetica" font-size="11.00">linux.vnet.ibm.com</text>
<polyline fill="none" stroke="gray" points="547.88,-115.5 724.62,-115.5"/>
<text xml:space="preserve" text-anchor="middle" x="579.12" y="-101.05" font-family="droid sans,dejavu sans,helvetica" font-size="11.00">RSA 4096</text>
<polyline fill="none" stroke="gray" points="610.38,-94 610.38,-115.5"/>
<text xml:space="preserve" text-anchor="middle" x="667.5" y="-101.05" font-family="droid sans,dejavu sans,helvetica" font-size="11.00">6B792466B03E715A</text>
</a>
</g>
</g>
<!-- a_368&#45;&gt;a_277 -->
<g id="edge12" class="edge">
<title>a_368&#45;&gt;a_277</title>
<path fill="none" stroke="black" d="M664.25,-187.3C660.68,-179.14 656.71,-170.05 652.9,-161.34"/>
<polygon fill="black" stroke="black" points="656.2,-160.15 648.99,-152.39 649.79,-162.95 656.2,-160.15"/>
</g>
<!-- a_277&#45;&gt;a_48 -->
<g id="edge13" class="edge">
<title>a_277&#45;&gt;a_48</title>
<path fill="none" stroke="black" d="M559.66,-93.55C531.42,-83.34 499.23,-71.69 470.15,-61.18"/>
<polygon fill="black" stroke="black" points="471.6,-57.98 461.01,-57.87 469.22,-64.56 471.6,-57.98"/>
</g>
</g>
</svg>
