<?xml version="1.0" encoding="UTF-8" standalone="no"?>
<!DOCTYPE svg PUBLIC "-//W3C//DTD SVG 1.1//EN"
 "http://www.w3.org/Graphics/SVG/1.1/DTD/svg11.dtd">
<!-- Generated by graphviz version 14.1.5 (20260411.2331)
 -->
<!-- Title: G Pages: 1 -->
<svg width="382pt" height="362pt"
 viewBox="0.00 0.00 382.00 362.00" xmlns="http://www.w3.org/2000/svg" xmlns:xlink="http://www.w3.org/1999/xlink">
<g id="graph0" class="graph" transform="scale(1 1) rotate(0) translate(4 358)">
<title>G</title>
<polygon fill="white" stroke="none" points="-4,4 -4,-358 377.5,-358 377.5,4 -4,4"/>
<g id="clust1" class="cluster">
<title>cluster_toplevel</title>
<polygon fill="none" stroke="white" points="89.12,-272.5 89.12,-346 285.12,-346 285.12,-272.5 89.12,-272.5"/>
</g>
<!-- a_82 -->
<g id="node1" class="node">
<title>a_82</title>
<g id="a_node1"><a xlink:href="1CE50A930818BA9C.svg" xlink:title="{Peter P Waskiewicz Jr\nintel.com|{RSA 4096|1CE50A930818BA9C}}">
<path fill="none" stroke="gray" d="M12,-187.5C12,-187.5 166.25,-187.5 166.25,-187.5 172.25,-187.5 178.25,-193.5 178.25,-199.5 178.25,-199.5 178.25,-232 178.25,-232 178.25,-238 172.25,-244 166.25,-244 166.25,-244 12,-244 12,-244 6,-244 0,-238 0,-232 0,-232 0,-199.5 0,-199.5 0,-193.5 6,-187.5 12,-187.5"/>
<text xml:space="preserve" text-anchor="middle" x="89.12" y="-229.55" font-family="droid sans,dejavu sans,helvetica" font-size="11.00">Peter P Waskiewicz Jr</text>
<text xml:space="preserve" text-anchor="middle" x="89.12" y="-216.05" font-family="droid sans,dejavu sans,helvetica" font-size="11.00">intel.com</text>
<polyline fill="none" stroke="gray" points="0,-209 178.25,-209"/>
<text xml:space="preserve" text-anchor="middle" x="31.25" y="-194.55" font-family="droid sans,dejavu sans,helvetica" font-size="11.00">RSA 4096</text>
<polyline fill="none" stroke="gray" points="62.5,-187.5 62.5,-209"/>
<text xml:space="preserve" text-anchor="middle" x="120.38" y="-194.55" font-family="droid sans,dejavu sans,helvetica" font-size="11.00">1CE50A930818BA9C</text>
</a>
</g>
</g>
<!-- a_67 -->
<g id="node3" class="node">
<title>a_67</title>
<g id="a_node3"><a xlink:href="15BC833443038D8C.svg" xlink:title="{Jan Kara\nsuse.com|{RSA 4096|15BC833443038D8C}}">
<path fill="none" stroke="gray" d="M13,-94C13,-94 167.25,-94 167.25,-94 173.25,-94 179.25,-100 179.25,-106 179.25,-106 179.25,-138.5 179.25,-138.5 179.25,-144.5 173.25,-150.5 167.25,-150.5 167.25,-150.5 13,-150.5 13,-150.5 7,-150.5 1,-144.5 1,-138.5 1,-138.5 1,-106 1,-106 1,-100 7,-94 13,-94"/>
<text xml:space="preserve" text-anchor="middle" x="90.12" y="-136.05" font-family="droid sans,dejavu sans,helvetica" font-size="11.00">Jan Kara</text>
<text xml:space="preserve" text-anchor="middle" x="90.12" y="-122.55" font-family="droid sans,dejavu sans,helvetica" font-size="11.00">suse.com</text>
<polyline fill="none" stroke="gray" points="1,-115.5 179.25,-115.5"/>
<text xml:space="preserve" text-anchor="middle" x="32.25" y="-101.05" font-family="droid sans,dejavu sans,helvetica" font-size="11.00">RSA 4096</text>
<polyline fill="none" stroke="gray" points="63.5,-94 63.5,-115.5"/>
<text xml:space="preserve" text-anchor="middle" x="121.38" y="-101.05" font-family="droid sans,dejavu sans,helvetica" font-size="11.00">15BC833443038D8C</text>
</a>
</g>
</g>
<!-- a_82&#45;&gt;a_67 -->
<g id="edge2" class="edge">
<title>a_82&#45;&gt;a_67</title>
<path fill="none" stroke="black" d="M89.43,-187.3C89.51,-179.5 89.6,-170.85 89.7,-162.49"/>
<polygon fill="black" stroke="black" points="93.2,-162.55 89.81,-152.51 86.2,-162.47 93.2,-162.55"/>
</g>
<!-- a_145 -->
<g id="node2" class="node">
<title>a_145</title>
<g id="a_node2"><a xlink:href="38DBBDC86092693E.svg" xlink:title="{Greg Kroah&#45;Hartman\nkroah.com|{RSA 4096|38DBBDC86092693E}}">
<path fill="none" stroke="gray" d="M109.25,-281C109.25,-281 265,-281 265,-281 271,-281 277,-287 277,-293 277,-293 277,-325.5 277,-325.5 277,-331.5 271,-337.5 265,-337.5 265,-337.5 109.25,-337.5 109.25,-337.5 103.25,-337.5 97.25,-331.5 97.25,-325.5 97.25,-325.5 97.25,-293 97.25,-293 97.25,-287 103.25,-281 109.25,-281"/>
<text xml:space="preserve" text-anchor="middle" x="187.12" y="-323.05" font-family="droid sans,dejavu sans,helvetica" font-size="11.00">Greg Kroah&#45;Hartman</text>
<text xml:space="preserve" text-anchor="middle" x="187.12" y="-309.55" font-family="droid sans,dejavu sans,helvetica" font-size="11.00">kroah.com</text>
<polyline fill="none" stroke="gray" points="97.25,-302.5 277,-302.5"/>
<text xml:space="preserve" text-anchor="middle" x="128.5" y="-288.05" font-family="droid sans,dejavu sans,helvetica" font-size="11.00">RSA 4096</text>
<polyline fill="none" stroke="gray" points="159.75,-281 159.75,-302.5"/>
<text xml:space="preserve" text-anchor="middle" x="218.38" y="-288.05" font-family="droid sans,dejavu sans,helvetica" font-size="11.00">38DBBDC86092693E</text>
</a>
</g>
</g>
<!-- a_145&#45;&gt;a_82 -->
<g id="edge1" class="edge">
<title>a_145&#45;&gt;a_82</title>
<path fill="none" stroke="black" d="M157.46,-280.55C147.86,-271.59 137.09,-261.53 126.98,-252.1"/>
<polygon fill="black" stroke="black" points="129.5,-249.66 119.8,-245.39 124.72,-254.77 129.5,-249.66"/>
</g>
<!-- a_255 -->
<g id="node5" class="node">
<title>a_255</title>
<g id="a_node5"><a xlink:href="63762CDA67E2F359.svg" xlink:title="{David Woodhouse\ninfradead.org|{RSA 4096|63762CDA67E2F359}}">
<path fill="none" stroke="gray" d="M208.75,-187.5C208.75,-187.5 361.5,-187.5 361.5,-187.5 367.5,-187.5 373.5,-193.5 373.5,-199.5 373.5,-199.5 373.5,-232 373.5,-232 373.5,-238 367.5,-244 361.5,-244 361.5,-244 208.75,-244 208.75,-244 202.75,-244 196.75,-238 196.75,-232 196.75,-232 196.75,-199.5 196.75,-199.5 196.75,-193.5 202.75,-187.5 208.75,-187.5"/>
<text xml:space="preserve" text-anchor="middle" x="285.12" y="-229.55" font-family="droid sans,dejavu sans,helvetica" font-size="11.00">David Woodhouse</text>
<text xml:space="preserve" text-anchor="middle" x="285.12" y="-216.05" font-family="droid sans,dejavu sans,helvetica" font-size="11.00">infradead.org</text>
<polyline fill="none" stroke="gray" points="196.75,-209 373.5,-209"/>
<text xml:space="preserve" text-anchor="middle" x="228" y="-194.55" font-family="droid sans,dejavu sans,helvetica" font-size="11.00">RSA 4096</text>
<polyline fill="none" stroke="gray" points="259.25,-187.5 259.25,-209"/>
<text xml:space="preserve" text-anchor="middle" x="316.38" y="-194.55" font-family="droid sans,dejavu sans,helvetica" font-size="11.00">63762CDA67E2F359</text>
</a>
</g>
</g>
<!-- a_145&#45;&gt;a_255 -->
<g id="edge4" class="edge">
<title>a_145&#45;&gt;a_255</title>
<path fill="none" stroke="black" d="M216.79,-280.55C226.39,-271.59 237.16,-261.53 247.27,-252.1"/>
<polygon fill="black" stroke="black" points="249.53,-254.77 254.45,-245.39 244.75,-249.66 249.53,-254.77"/>
</g>
<!-- a_48 -->
<g id="node4" class="node">
<title>a_48</title>
<g id="a_node4"><a xlink:href="115BD5C937BFD56A.svg" xlink:title="{Amir Goldstein\ngmail.com|{RSA 4096|115BD5C937BFD56A}}">
<path fill="none" stroke="gray" d="M109.25,-0.5C109.25,-0.5 265,-0.5 265,-0.5 271,-0.5 277,-6.5 277,-12.5 277,-12.5 277,-45 277,-45 277,-51 271,-57 265,-57 265,-57 109.25,-57 109.25,-57 103.25,-57 97.25,-51 97.25,-45 97.25,-45 97.25,-12.5 97.25,-12.5 97.25,-6.5 103.25,-0.5 109.25,-0.5"/>
<text xml:space="preserve" text-anchor="middle" x="187.12" y="-42.55" font-family="droid sans,dejavu sans,helvetica" font-size="11.00">Amir Goldstein</text>
<text xml:space="preserve" text-anchor="middle" x="187.12" y="-29.05" font-family="droid sans,dejavu sans,helvetica" font-size="11.00">gmail.com</text>
<polyline fill="none" stroke="gray" points="97.25,-22 277,-22"/>
<text xml:space="preserve" text-anchor="middle" x="128.5" y="-7.55" font-family="droid sans,dejavu sans,helvetica" font-size="11.00">RSA 4096</text>
<polyline fill="none" stroke="gray" points="159.75,-0.5 159.75,-22"/>
<text xml:space="preserve" text-anchor="middle" x="218.38" y="-7.55" font-family="droid sans,dejavu sans,helvetica" font-size="11.00">115BD5C937BFD56A</text>
</a>
</g>
</g>
<!-- a_67&#45;&gt;a_48 -->
<g id="edge3" class="edge">
<title>a_67&#45;&gt;a_48</title>
<path fill="none" stroke="black" d="M119.49,-93.55C128.99,-84.59 139.65,-74.53 149.65,-65.1"/>
<polygon fill="black" stroke="black" points="151.88,-67.8 156.76,-58.4 147.08,-62.71 151.88,-67.8"/>
</g>
<!-- a_1 -->
<g id="node6" class="node">
<title>a_1</title>
<g id="a_node6"><a xlink:href="000E684119568215.svg" xlink:title="{Jeff Layton\npoochiereds.net|{RSA 4096|000E684119568215}}">
<path fill="none" stroke="gray" d="M208.88,-94C208.88,-94 359.38,-94 359.38,-94 365.38,-94 371.38,-100 371.38,-106 371.38,-106 371.38,-138.5 371.38,-138.5 371.38,-144.5 365.38,-150.5 359.38,-150.5 359.38,-150.5 208.88,-150.5 208.88,-150.5 202.88,-150.5 196.88,-144.5 196.88,-138.5 196.88,-138.5 196.88,-106 196.88,-106 196.88,-100 202.88,-94 208.88,-94"/>
<text xml:space="preserve" text-anchor="middle" x="284.12" y="-136.05" font-family="droid sans,dejavu sans,helvetica" font-size="11.00">Jeff Layton</text>
<text xml:space="preserve" text-anchor="middle" x="284.12" y="-122.55" font-family="droid sans,dejavu sans,helvetica" font-size="11.00">poochiereds.net</text>
<polyline fill="none" stroke="gray" points="196.88,-115.5 371.38,-115.5"/>
<text xml:space="preserve" text-anchor="middle" x="228.12" y="-101.05" font-family="droid sans,dejavu sans,helvetica" font-size="11.00">RSA 4096</text>
<polyline fill="none" stroke="gray" points="259.38,-94 259.38,-115.5"/>
<text xml:space="preserve" text-anchor="middle" x="315.38" y="-101.05" font-family="droid sans,dejavu sans,helvetica" font-size="11.00">000E684119568215</text>
</a>
</g>
</g>
<!-- a_255&#45;&gt;a_1 -->
<g id="edge5" class="edge">
<title>a_255&#45;&gt;a_1</title>
<path fill="none" stroke="black" d="M284.82,-187.3C284.74,-179.5 284.65,-170.85 284.55,-162.49"/>
<polygon fill="black" stroke="black" points="288.05,-162.47 284.44,-152.51 281.05,-162.55 288.05,-162.47"/>
</g>
<!-- a_1&#45;&gt;a_48 -->
<g id="edge6" class="edge">
<title>a_1&#45;&gt;a_48</title>
<path fill="none" stroke="black" d="M254.76,-93.55C245.26,-84.59 234.6,-74.53 224.6,-65.1"/>
<polygon fill="black" stroke="black" points="227.17,-62.71 217.49,-58.4 222.37,-67.8 227.17,-62.71"/>
</g>
</g>
</svg>
