<?xml version="1.0" encoding="UTF-8" standalone="no"?>
<!DOCTYPE svg PUBLIC "-//W3C//DTD SVG 1.1//EN"
 "http://www.w3.org/Graphics/SVG/1.1/DTD/svg11.dtd">
<!-- Generated by graphviz version 2.48.0 (0)
 -->
<!-- Title: G Pages: 1 -->
<svg width="584pt" height="344pt"
 viewBox="0.00 0.00 583.50 344.00" xmlns="http://www.w3.org/2000/svg" xmlns:xlink="http://www.w3.org/1999/xlink">
<g id="graph0" class="graph" transform="scale(1 1) rotate(0) translate(4 340)">
<title>G</title>
<polygon fill="white" stroke="transparent" points="-4,4 -4,-340 579.5,-340 579.5,4 -4,4"/>
<g id="clust1" class="cluster">
<title>cluster_toplevel</title>
<polygon fill="none" stroke="white" points="192,-259 192,-328 384,-328 384,-259 192,-259"/>
</g>
<!-- a_429 -->
<g id="node1" class="node">
<title>a_429</title>
<path fill="none" stroke="gray" d="M12,-178.5C12,-178.5 170,-178.5 170,-178.5 176,-178.5 182,-184.5 182,-190.5 182,-190.5 182,-218.5 182,-218.5 182,-224.5 176,-230.5 170,-230.5 170,-230.5 12,-230.5 12,-230.5 6,-230.5 0,-224.5 0,-218.5 0,-218.5 0,-190.5 0,-190.5 0,-184.5 6,-178.5 12,-178.5"/>
<text text-anchor="middle" x="91" y="-217.7" font-family="droid sans,dejavu sans,helvetica" font-size="11.00">Steven Rostedt</text>
<text text-anchor="middle" x="91" y="-205.7" font-family="droid sans,dejavu sans,helvetica" font-size="11.00">goodmis.org</text>
<polyline fill="none" stroke="gray" points="0,-198.5 182,-198.5 "/>
<text text-anchor="middle" x="31.5" y="-185.7" font-family="droid sans,dejavu sans,helvetica" font-size="11.00">RSA 4096</text>
<polyline fill="none" stroke="gray" points="63,-178.5 63,-198.5 "/>
<text text-anchor="middle" x="122.5" y="-185.7" font-family="droid sans,dejavu sans,helvetica" font-size="11.00">EBC26CDB5A56DE73</text>
</g>
<!-- a_96 -->
<g id="node3" class="node">
<title>a_96</title>
<path fill="none" stroke="gray" d="M211,-0.5C211,-0.5 365,-0.5 365,-0.5 371,-0.5 377,-6.5 377,-12.5 377,-12.5 377,-40.5 377,-40.5 377,-46.5 371,-52.5 365,-52.5 365,-52.5 211,-52.5 211,-52.5 205,-52.5 199,-46.5 199,-40.5 199,-40.5 199,-12.5 199,-12.5 199,-6.5 205,-0.5 211,-0.5"/>
<text text-anchor="middle" x="288" y="-39.7" font-family="droid sans,dejavu sans,helvetica" font-size="11.00">Benjamin Tissoires</text>
<text text-anchor="middle" x="288" y="-27.7" font-family="droid sans,dejavu sans,helvetica" font-size="11.00">gmail.com</text>
<polyline fill="none" stroke="gray" points="199,-20.5 377,-20.5 "/>
<text text-anchor="middle" x="230.5" y="-7.7" font-family="droid sans,dejavu sans,helvetica" font-size="11.00">RSA 2048</text>
<polyline fill="none" stroke="gray" points="262,-0.5 262,-20.5 "/>
<text text-anchor="middle" x="319.5" y="-7.7" font-family="droid sans,dejavu sans,helvetica" font-size="11.00">2F2670AC164DB36F</text>
</g>
<!-- a_429&#45;&gt;a_96 -->
<g id="edge2" class="edge">
<title>a_429&#45;&gt;a_96</title>
<path fill="none" stroke="black" d="M119.23,-178.28C154.19,-147.05 213.8,-93.79 252.01,-59.65"/>
<polygon fill="black" stroke="black" points="254.7,-61.94 259.83,-52.67 250.04,-56.72 254.7,-61.94"/>
</g>
<!-- a_232 -->
<g id="node2" class="node">
<title>a_232</title>
<path fill="none" stroke="gray" d="M212,-267.5C212,-267.5 364,-267.5 364,-267.5 370,-267.5 376,-273.5 376,-279.5 376,-279.5 376,-307.5 376,-307.5 376,-313.5 370,-319.5 364,-319.5 364,-319.5 212,-319.5 212,-319.5 206,-319.5 200,-313.5 200,-307.5 200,-307.5 200,-279.5 200,-279.5 200,-273.5 206,-267.5 212,-267.5"/>
<text text-anchor="middle" x="288" y="-306.7" font-family="droid sans,dejavu sans,helvetica" font-size="11.00">Linus Torvalds</text>
<text text-anchor="middle" x="288" y="-294.7" font-family="droid sans,dejavu sans,helvetica" font-size="11.00">kernel.org</text>
<polyline fill="none" stroke="gray" points="200,-287.5 376,-287.5 "/>
<text text-anchor="middle" x="231.5" y="-274.7" font-family="droid sans,dejavu sans,helvetica" font-size="11.00">RSA 2048</text>
<polyline fill="none" stroke="gray" points="263,-267.5 263,-287.5 "/>
<text text-anchor="middle" x="319.5" y="-274.7" font-family="droid sans,dejavu sans,helvetica" font-size="11.00">79BE3E4300411886</text>
</g>
<!-- a_232&#45;&gt;a_429 -->
<g id="edge1" class="edge">
<title>a_232&#45;&gt;a_429</title>
<path fill="none" stroke="black" d="M231.28,-267.45C208.1,-257.22 181.13,-245.31 157.07,-234.68"/>
<polygon fill="black" stroke="black" points="158.22,-231.36 147.66,-230.52 155.39,-237.76 158.22,-231.36"/>
</g>
<!-- a_431 -->
<g id="node4" class="node">
<title>a_431</title>
<path fill="none" stroke="gray" d="M212,-178.5C212,-178.5 364,-178.5 364,-178.5 370,-178.5 376,-184.5 376,-190.5 376,-190.5 376,-218.5 376,-218.5 376,-224.5 370,-230.5 364,-230.5 364,-230.5 212,-230.5 212,-230.5 206,-230.5 200,-224.5 200,-218.5 200,-218.5 200,-190.5 200,-190.5 200,-184.5 206,-178.5 212,-178.5"/>
<text text-anchor="middle" x="288" y="-217.7" font-family="droid sans,dejavu sans,helvetica" font-size="11.00">Rafael J. Wysocki</text>
<text text-anchor="middle" x="288" y="-205.7" font-family="droid sans,dejavu sans,helvetica" font-size="11.00">rjwysocki.net</text>
<polyline fill="none" stroke="gray" points="200,-198.5 376,-198.5 "/>
<text text-anchor="middle" x="231.5" y="-185.7" font-family="droid sans,dejavu sans,helvetica" font-size="11.00">RSA 4096</text>
<polyline fill="none" stroke="gray" points="263,-178.5 263,-198.5 "/>
<text text-anchor="middle" x="319.5" y="-185.7" font-family="droid sans,dejavu sans,helvetica" font-size="11.00">EF1F7EB8765E435D</text>
</g>
<!-- a_232&#45;&gt;a_431 -->
<g id="edge3" class="edge">
<title>a_232&#45;&gt;a_431</title>
<path fill="none" stroke="black" d="M288,-267.34C288,-259.04 288,-249.65 288,-240.75"/>
<polygon fill="black" stroke="black" points="291.5,-240.61 288,-230.61 284.5,-240.61 291.5,-240.61"/>
</g>
<!-- a_107 -->
<g id="node5" class="node">
<title>a_107</title>
<path fill="none" stroke="gray" d="M406.5,-178.5C406.5,-178.5 563.5,-178.5 563.5,-178.5 569.5,-178.5 575.5,-184.5 575.5,-190.5 575.5,-190.5 575.5,-218.5 575.5,-218.5 575.5,-224.5 569.5,-230.5 563.5,-230.5 563.5,-230.5 406.5,-230.5 406.5,-230.5 400.5,-230.5 394.5,-224.5 394.5,-218.5 394.5,-218.5 394.5,-190.5 394.5,-190.5 394.5,-184.5 400.5,-178.5 406.5,-178.5"/>
<text text-anchor="middle" x="485" y="-217.7" font-family="droid sans,dejavu sans,helvetica" font-size="11.00">Greg Kroah&#45;Hartman</text>
<text text-anchor="middle" x="485" y="-205.7" font-family="droid sans,dejavu sans,helvetica" font-size="11.00">linuxfoundation.org</text>
<polyline fill="none" stroke="gray" points="394.5,-198.5 575.5,-198.5 "/>
<text text-anchor="middle" x="426" y="-185.7" font-family="droid sans,dejavu sans,helvetica" font-size="11.00">RSA 4096</text>
<polyline fill="none" stroke="gray" points="457.5,-178.5 457.5,-198.5 "/>
<text text-anchor="middle" x="516.5" y="-185.7" font-family="droid sans,dejavu sans,helvetica" font-size="11.00">38DBBDC86092693E</text>
</g>
<!-- a_232&#45;&gt;a_107 -->
<g id="edge5" class="edge">
<title>a_232&#45;&gt;a_107</title>
<path fill="none" stroke="black" d="M344.72,-267.45C367.9,-257.22 394.87,-245.31 418.93,-234.68"/>
<polygon fill="black" stroke="black" points="420.61,-237.76 428.34,-230.52 417.78,-231.36 420.61,-237.76"/>
</g>
<!-- a_431&#45;&gt;a_96 -->
<g id="edge4" class="edge">
<title>a_431&#45;&gt;a_96</title>
<path fill="none" stroke="black" d="M288,-178.28C288,-147.96 288,-96.89 288,-62.7"/>
<polygon fill="black" stroke="black" points="291.5,-62.67 288,-52.67 284.5,-62.67 291.5,-62.67"/>
</g>
<!-- a_311 -->
<g id="node6" class="node">
<title>a_311</title>
<path fill="none" stroke="gray" d="M368.5,-89.5C368.5,-89.5 521.5,-89.5 521.5,-89.5 527.5,-89.5 533.5,-95.5 533.5,-101.5 533.5,-101.5 533.5,-129.5 533.5,-129.5 533.5,-135.5 527.5,-141.5 521.5,-141.5 521.5,-141.5 368.5,-141.5 368.5,-141.5 362.5,-141.5 356.5,-135.5 356.5,-129.5 356.5,-129.5 356.5,-101.5 356.5,-101.5 356.5,-95.5 362.5,-89.5 368.5,-89.5"/>
<text text-anchor="middle" x="445" y="-128.7" font-family="droid sans,dejavu sans,helvetica" font-size="11.00">Jiri Kosina</text>
<text text-anchor="middle" x="445" y="-116.7" font-family="droid sans,dejavu sans,helvetica" font-size="11.00">suse.com</text>
<polyline fill="none" stroke="gray" points="356.5,-109.5 533.5,-109.5 "/>
<text text-anchor="middle" x="388" y="-96.7" font-family="droid sans,dejavu sans,helvetica" font-size="11.00">RSA 4096</text>
<polyline fill="none" stroke="gray" points="419.5,-89.5 419.5,-109.5 "/>
<text text-anchor="middle" x="476.5" y="-96.7" font-family="droid sans,dejavu sans,helvetica" font-size="11.00">A662F38F6BED6049</text>
</g>
<!-- a_107&#45;&gt;a_311 -->
<g id="edge6" class="edge">
<title>a_107&#45;&gt;a_311</title>
<path fill="none" stroke="black" d="M473.43,-178.34C469.49,-169.77 465.02,-160.04 460.81,-150.88"/>
<polygon fill="black" stroke="black" points="463.9,-149.23 456.54,-141.61 457.54,-152.16 463.9,-149.23"/>
</g>
<!-- a_311&#45;&gt;a_96 -->
<g id="edge7" class="edge">
<title>a_311&#45;&gt;a_96</title>
<path fill="none" stroke="black" d="M399.59,-89.34C381.69,-79.42 360.98,-67.94 342.3,-57.59"/>
<polygon fill="black" stroke="black" points="343.75,-54.39 333.31,-52.61 340.36,-60.52 343.75,-54.39"/>
</g>
</g>
</svg>
