<?xml version="1.0" encoding="UTF-8" standalone="no"?>
<!DOCTYPE svg PUBLIC "-//W3C//DTD SVG 1.1//EN"
 "http://www.w3.org/Graphics/SVG/1.1/DTD/svg11.dtd">
<!-- Generated by graphviz version 12.2.1 (20241206.2353)
 -->
<!-- Title: G Pages: 1 -->
<svg width="776pt" height="456pt"
 viewBox="0.00 0.00 776.00 455.50" xmlns="http://www.w3.org/2000/svg" xmlns:xlink="http://www.w3.org/1999/xlink">
<g id="graph0" class="graph" transform="scale(1 1) rotate(0) translate(4 451.5)">
<title>G</title>
<polygon fill="white" stroke="none" points="-4,4 -4,-451.5 772,-451.5 772,4 -4,4"/>
<g id="clust1" class="cluster">
<title>cluster_toplevel</title>
<polygon fill="none" stroke="white" points="286.5,-366 286.5,-439.5 478.5,-439.5 478.5,-366 286.5,-366"/>
</g>
<!-- a_71 -->
<g id="node1" class="node">
<title>a_71</title>
<g id="a_node1"><a xlink:href="17212997986C5765.svg" xlink:title="{Benson Leung\nchromium.org|{RSA 4096|17212997986C5765}}">
<path fill="none" stroke="gray" d="M14.88,-281C14.88,-281 166.12,-281 166.12,-281 172.12,-281 178.12,-287 178.12,-293 178.12,-293 178.12,-325.5 178.12,-325.5 178.12,-331.5 172.12,-337.5 166.12,-337.5 166.12,-337.5 14.88,-337.5 14.88,-337.5 8.88,-337.5 2.88,-331.5 2.88,-325.5 2.88,-325.5 2.88,-293 2.88,-293 2.88,-287 8.88,-281 14.88,-281"/>
<text text-anchor="middle" x="90.5" y="-323.05" font-family="droid sans,dejavu sans,helvetica" font-size="11.00">Benson Leung</text>
<text text-anchor="middle" x="90.5" y="-309.55" font-family="droid sans,dejavu sans,helvetica" font-size="11.00">chromium.org</text>
<polyline fill="none" stroke="gray" points="2.88,-302.5 178.12,-302.5"/>
<text text-anchor="middle" x="34.12" y="-288.05" font-family="droid sans,dejavu sans,helvetica" font-size="11.00">RSA 4096</text>
<polyline fill="none" stroke="gray" points="65.38,-281 65.38,-302.5"/>
<text text-anchor="middle" x="121.75" y="-288.05" font-family="droid sans,dejavu sans,helvetica" font-size="11.00">17212997986C5765</text>
</a>
</g>
</g>
<!-- a_368 -->
<g id="node3" class="node">
<title>a_368</title>
<g id="a_node3"><a xlink:href="8972F4DFDC6DC026.svg" xlink:title="{Kees Cook\noutflux.net|{RSA 4096|8972F4DFDC6DC026}}">
<path fill="none" stroke="gray" d="M12,-187.5C12,-187.5 167,-187.5 167,-187.5 173,-187.5 179,-193.5 179,-199.5 179,-199.5 179,-232 179,-232 179,-238 173,-244 167,-244 167,-244 12,-244 12,-244 6,-244 0,-238 0,-232 0,-232 0,-199.5 0,-199.5 0,-193.5 6,-187.5 12,-187.5"/>
<text text-anchor="middle" x="89.5" y="-229.55" font-family="droid sans,dejavu sans,helvetica" font-size="11.00">Kees Cook</text>
<text text-anchor="middle" x="89.5" y="-216.05" font-family="droid sans,dejavu sans,helvetica" font-size="11.00">outflux.net</text>
<polyline fill="none" stroke="gray" points="0,-209 179,-209"/>
<text text-anchor="middle" x="31.25" y="-194.55" font-family="droid sans,dejavu sans,helvetica" font-size="11.00">RSA 4096</text>
<polyline fill="none" stroke="gray" points="62.5,-187.5 62.5,-209"/>
<text text-anchor="middle" x="120.75" y="-194.55" font-family="droid sans,dejavu sans,helvetica" font-size="11.00">8972F4DFDC6DC026</text>
</a>
</g>
</g>
<!-- a_71&#45;&gt;a_368 -->
<g id="edge2" class="edge">
<title>a_71&#45;&gt;a_368</title>
<path fill="none" stroke="black" d="M90.2,-280.8C90.11,-273 90.02,-264.35 89.93,-255.99"/>
<polygon fill="black" stroke="black" points="93.43,-255.97 89.82,-246.01 86.43,-256.05 93.43,-255.97"/>
</g>
<!-- a_315 -->
<g id="node2" class="node">
<title>a_315</title>
<g id="a_node2"><a xlink:href="79BE3E4300411886.svg" xlink:title="{Linus Torvalds\nlinux&#45;foundation.org|{RSA 2048|79BE3E4300411886}}">
<path fill="none" stroke="gray" d="M306.88,-374.5C306.88,-374.5 458.12,-374.5 458.12,-374.5 464.12,-374.5 470.12,-380.5 470.12,-386.5 470.12,-386.5 470.12,-419 470.12,-419 470.12,-425 464.12,-431 458.12,-431 458.12,-431 306.88,-431 306.88,-431 300.88,-431 294.88,-425 294.88,-419 294.88,-419 294.88,-386.5 294.88,-386.5 294.88,-380.5 300.88,-374.5 306.88,-374.5"/>
<text text-anchor="middle" x="382.5" y="-416.55" font-family="droid sans,dejavu sans,helvetica" font-size="11.00">Linus Torvalds</text>
<text text-anchor="middle" x="382.5" y="-403.05" font-family="droid sans,dejavu sans,helvetica" font-size="11.00">linux&#45;foundation.org</text>
<polyline fill="none" stroke="gray" points="294.88,-396 470.12,-396"/>
<text text-anchor="middle" x="326.12" y="-381.55" font-family="droid sans,dejavu sans,helvetica" font-size="11.00">RSA 2048</text>
<polyline fill="none" stroke="gray" points="357.38,-374.5 357.38,-396"/>
<text text-anchor="middle" x="413.75" y="-381.55" font-family="droid sans,dejavu sans,helvetica" font-size="11.00">79BE3E4300411886</text>
</a>
</g>
</g>
<!-- a_315&#45;&gt;a_71 -->
<g id="edge1" class="edge">
<title>a_315&#45;&gt;a_71</title>
<path fill="none" stroke="black" d="M294.49,-374.17C261.39,-363.8 223.53,-351.93 189.48,-341.27"/>
<polygon fill="black" stroke="black" points="190.61,-337.95 180.02,-338.3 188.52,-344.63 190.61,-337.95"/>
</g>
<!-- a_339 -->
<g id="node5" class="node">
<title>a_339</title>
<g id="a_node5"><a xlink:href="80A77F6095CDE47E.svg" xlink:title="{Stephen Hemminger\nmicrosoft.com|{RSA 4096|80A77F6095CDE47E}}">
<path fill="none" stroke="gray" d="M208.12,-281C208.12,-281 360.88,-281 360.88,-281 366.88,-281 372.88,-287 372.88,-293 372.88,-293 372.88,-325.5 372.88,-325.5 372.88,-331.5 366.88,-337.5 360.88,-337.5 360.88,-337.5 208.12,-337.5 208.12,-337.5 202.12,-337.5 196.12,-331.5 196.12,-325.5 196.12,-325.5 196.12,-293 196.12,-293 196.12,-287 202.12,-281 208.12,-281"/>
<text text-anchor="middle" x="284.5" y="-323.05" font-family="droid sans,dejavu sans,helvetica" font-size="11.00">Stephen Hemminger</text>
<text text-anchor="middle" x="284.5" y="-309.55" font-family="droid sans,dejavu sans,helvetica" font-size="11.00">microsoft.com</text>
<polyline fill="none" stroke="gray" points="196.12,-302.5 372.88,-302.5"/>
<text text-anchor="middle" x="227.38" y="-288.05" font-family="droid sans,dejavu sans,helvetica" font-size="11.00">RSA 4096</text>
<polyline fill="none" stroke="gray" points="258.62,-281 258.62,-302.5"/>
<text text-anchor="middle" x="315.75" y="-288.05" font-family="droid sans,dejavu sans,helvetica" font-size="11.00">80A77F6095CDE47E</text>
</a>
</g>
</g>
<!-- a_315&#45;&gt;a_339 -->
<g id="edge4" class="edge">
<title>a_315&#45;&gt;a_339</title>
<path fill="none" stroke="black" d="M352.83,-374.05C343.24,-365.09 332.46,-355.03 322.36,-345.6"/>
<polygon fill="black" stroke="black" points="324.87,-343.16 315.17,-338.89 320.1,-348.27 324.87,-343.16"/>
</g>
<!-- a_123 -->
<g id="node7" class="node">
<title>a_123</title>
<g id="a_node7"><a xlink:href="2EA76B9C2B466D9D.svg" xlink:title="{John Hawley\neaglescrag.net|{RSA 4096|2EA76B9C2B466D9D}}">
<path fill="none" stroke="gray" d="M403.25,-281C403.25,-281 559.75,-281 559.75,-281 565.75,-281 571.75,-287 571.75,-293 571.75,-293 571.75,-325.5 571.75,-325.5 571.75,-331.5 565.75,-337.5 559.75,-337.5 559.75,-337.5 403.25,-337.5 403.25,-337.5 397.25,-337.5 391.25,-331.5 391.25,-325.5 391.25,-325.5 391.25,-293 391.25,-293 391.25,-287 397.25,-281 403.25,-281"/>
<text text-anchor="middle" x="481.5" y="-323.05" font-family="droid sans,dejavu sans,helvetica" font-size="11.00">John Hawley</text>
<text text-anchor="middle" x="481.5" y="-309.55" font-family="droid sans,dejavu sans,helvetica" font-size="11.00">eaglescrag.net</text>
<polyline fill="none" stroke="gray" points="391.25,-302.5 571.75,-302.5"/>
<text text-anchor="middle" x="422.5" y="-288.05" font-family="droid sans,dejavu sans,helvetica" font-size="11.00">RSA 4096</text>
<polyline fill="none" stroke="gray" points="453.75,-281 453.75,-302.5"/>
<text text-anchor="middle" x="512.75" y="-288.05" font-family="droid sans,dejavu sans,helvetica" font-size="11.00">2EA76B9C2B466D9D</text>
</a>
</g>
</g>
<!-- a_315&#45;&gt;a_123 -->
<g id="edge7" class="edge">
<title>a_315&#45;&gt;a_123</title>
<path fill="none" stroke="black" d="M412.47,-374.05C422.16,-365.09 433.05,-355.03 443.25,-345.6"/>
<polygon fill="black" stroke="black" points="445.55,-348.24 450.52,-338.88 440.8,-343.1 445.55,-348.24"/>
</g>
<!-- a_489 -->
<g id="node10" class="node">
<title>a_489</title>
<g id="a_node10"><a xlink:href="C1A460725B51CBCF.svg" xlink:title="{Andrea Arcangeli\nredhat.com|{RSA 4096|C1A460725B51CBCF}}">
<path fill="none" stroke="gray" d="M601.38,-281C601.38,-281 755.62,-281 755.62,-281 761.62,-281 767.62,-287 767.62,-293 767.62,-293 767.62,-325.5 767.62,-325.5 767.62,-331.5 761.62,-337.5 755.62,-337.5 755.62,-337.5 601.38,-337.5 601.38,-337.5 595.38,-337.5 589.38,-331.5 589.38,-325.5 589.38,-325.5 589.38,-293 589.38,-293 589.38,-287 595.38,-281 601.38,-281"/>
<text text-anchor="middle" x="678.5" y="-323.05" font-family="droid sans,dejavu sans,helvetica" font-size="11.00">Andrea Arcangeli</text>
<text text-anchor="middle" x="678.5" y="-309.55" font-family="droid sans,dejavu sans,helvetica" font-size="11.00">redhat.com</text>
<polyline fill="none" stroke="gray" points="589.38,-302.5 767.62,-302.5"/>
<text text-anchor="middle" x="620.62" y="-288.05" font-family="droid sans,dejavu sans,helvetica" font-size="11.00">RSA 4096</text>
<polyline fill="none" stroke="gray" points="651.88,-281 651.88,-302.5"/>
<text text-anchor="middle" x="709.75" y="-288.05" font-family="droid sans,dejavu sans,helvetica" font-size="11.00">C1A460725B51CBCF</text>
</a>
</g>
</g>
<!-- a_315&#45;&gt;a_489 -->
<g id="edge11" class="edge">
<title>a_315&#45;&gt;a_489</title>
<path fill="none" stroke="black" d="M470.51,-374.54C504.41,-364.07 543.36,-352.02 578.33,-341.22"/>
<polygon fill="black" stroke="black" points="579.07,-344.65 587.59,-338.35 577,-337.96 579.07,-344.65"/>
</g>
<!-- a_152 -->
<g id="node4" class="node">
<title>a_152</title>
<g id="a_node4"><a xlink:href="3A554D033B37BCED.svg" xlink:title="{Jesper Dangaard Brouer\ncloudflare.com|{DSA 3072|3A554D033B37BCED}}">
<path fill="none" stroke="gray" d="M295.88,-0.5C295.88,-0.5 453.12,-0.5 453.12,-0.5 459.12,-0.5 465.12,-6.5 465.12,-12.5 465.12,-12.5 465.12,-45 465.12,-45 465.12,-51 459.12,-57 453.12,-57 453.12,-57 295.88,-57 295.88,-57 289.88,-57 283.88,-51 283.88,-45 283.88,-45 283.88,-12.5 283.88,-12.5 283.88,-6.5 289.88,-0.5 295.88,-0.5"/>
<text text-anchor="middle" x="374.5" y="-42.55" font-family="droid sans,dejavu sans,helvetica" font-size="11.00">Jesper Dangaard Brouer</text>
<text text-anchor="middle" x="374.5" y="-29.05" font-family="droid sans,dejavu sans,helvetica" font-size="11.00">cloudflare.com</text>
<polyline fill="none" stroke="gray" points="283.88,-22 465.12,-22"/>
<text text-anchor="middle" x="315.5" y="-7.55" font-family="droid sans,dejavu sans,helvetica" font-size="11.00">DSA 3072</text>
<polyline fill="none" stroke="gray" points="347.12,-0.5 347.12,-22"/>
<text text-anchor="middle" x="406.12" y="-7.55" font-family="droid sans,dejavu sans,helvetica" font-size="11.00">3A554D033B37BCED</text>
</a>
</g>
</g>
<!-- a_368&#45;&gt;a_152 -->
<g id="edge3" class="edge">
<title>a_368&#45;&gt;a_152</title>
<path fill="none" stroke="black" d="M132.17,-187.05C183,-154.06 267.89,-98.95 322.51,-63.5"/>
<polygon fill="black" stroke="black" points="324.26,-66.54 330.74,-58.16 320.44,-60.67 324.26,-66.54"/>
</g>
<!-- a_82 -->
<g id="node6" class="node">
<title>a_82</title>
<g id="a_node6"><a xlink:href="1CE50A930818BA9C.svg" xlink:title="{Peter P Waskiewicz Jr\nintel.com|{RSA 4096|1CE50A930818BA9C}}">
<path fill="none" stroke="gray" d="M209.38,-187.5C209.38,-187.5 363.62,-187.5 363.62,-187.5 369.62,-187.5 375.62,-193.5 375.62,-199.5 375.62,-199.5 375.62,-232 375.62,-232 375.62,-238 369.62,-244 363.62,-244 363.62,-244 209.38,-244 209.38,-244 203.38,-244 197.38,-238 197.38,-232 197.38,-232 197.38,-199.5 197.38,-199.5 197.38,-193.5 203.38,-187.5 209.38,-187.5"/>
<text text-anchor="middle" x="286.5" y="-229.55" font-family="droid sans,dejavu sans,helvetica" font-size="11.00">Peter P Waskiewicz Jr</text>
<text text-anchor="middle" x="286.5" y="-216.05" font-family="droid sans,dejavu sans,helvetica" font-size="11.00">intel.com</text>
<polyline fill="none" stroke="gray" points="197.38,-209 375.62,-209"/>
<text text-anchor="middle" x="228.62" y="-194.55" font-family="droid sans,dejavu sans,helvetica" font-size="11.00">RSA 4096</text>
<polyline fill="none" stroke="gray" points="259.88,-187.5 259.88,-209"/>
<text text-anchor="middle" x="317.75" y="-194.55" font-family="droid sans,dejavu sans,helvetica" font-size="11.00">1CE50A930818BA9C</text>
</a>
</g>
</g>
<!-- a_339&#45;&gt;a_82 -->
<g id="edge5" class="edge">
<title>a_339&#45;&gt;a_82</title>
<path fill="none" stroke="black" d="M285.1,-280.8C285.27,-273 285.46,-264.35 285.64,-255.99"/>
<polygon fill="black" stroke="black" points="289.14,-256.09 285.86,-246.01 282.14,-255.93 289.14,-256.09"/>
</g>
<!-- a_82&#45;&gt;a_152 -->
<g id="edge6" class="edge">
<title>a_82&#45;&gt;a_152</title>
<path fill="none" stroke="black" d="M299.67,-187.05C314.82,-155.22 339.75,-102.8 356.63,-67.31"/>
<polygon fill="black" stroke="black" points="359.59,-69.23 360.73,-58.7 353.27,-66.23 359.59,-69.23"/>
</g>
<!-- a_447 -->
<g id="node8" class="node">
<title>a_447</title>
<g id="a_node8"><a xlink:href="AC1DC469FF4F5BB7.svg" xlink:title="{Steffen Klassert\nklassert.de|{RSA 4096|AC1DC469FF4F5BB7}}">
<path fill="none" stroke="gray" d="M405.75,-187.5C405.75,-187.5 559.25,-187.5 559.25,-187.5 565.25,-187.5 571.25,-193.5 571.25,-199.5 571.25,-199.5 571.25,-232 571.25,-232 571.25,-238 565.25,-244 559.25,-244 559.25,-244 405.75,-244 405.75,-244 399.75,-244 393.75,-238 393.75,-232 393.75,-232 393.75,-199.5 393.75,-199.5 393.75,-193.5 399.75,-187.5 405.75,-187.5"/>
<text text-anchor="middle" x="482.5" y="-229.55" font-family="droid sans,dejavu sans,helvetica" font-size="11.00">Steffen Klassert</text>
<text text-anchor="middle" x="482.5" y="-216.05" font-family="droid sans,dejavu sans,helvetica" font-size="11.00">klassert.de</text>
<polyline fill="none" stroke="gray" points="393.75,-209 571.25,-209"/>
<text text-anchor="middle" x="425" y="-194.55" font-family="droid sans,dejavu sans,helvetica" font-size="11.00">RSA 4096</text>
<polyline fill="none" stroke="gray" points="456.25,-187.5 456.25,-209"/>
<text text-anchor="middle" x="513.75" y="-194.55" font-family="droid sans,dejavu sans,helvetica" font-size="11.00">AC1DC469FF4F5BB7</text>
</a>
</g>
</g>
<!-- a_123&#45;&gt;a_447 -->
<g id="edge8" class="edge">
<title>a_123&#45;&gt;a_447</title>
<path fill="none" stroke="black" d="M481.8,-280.8C481.89,-273 481.98,-264.35 482.07,-255.99"/>
<polygon fill="black" stroke="black" points="485.57,-256.05 482.18,-246.01 478.57,-255.97 485.57,-256.05"/>
</g>
<!-- a_214 -->
<g id="node9" class="node">
<title>a_214</title>
<g id="a_node9"><a xlink:href="526A3E2C6E4E387D.svg" xlink:title="{Jiří Pírko\nresnulli.us|{RSA 4096|526A3E2C6E4E387D}}">
<path fill="none" stroke="gray" d="M375.75,-94C375.75,-94 529.25,-94 529.25,-94 535.25,-94 541.25,-100 541.25,-106 541.25,-106 541.25,-138.5 541.25,-138.5 541.25,-144.5 535.25,-150.5 529.25,-150.5 529.25,-150.5 375.75,-150.5 375.75,-150.5 369.75,-150.5 363.75,-144.5 363.75,-138.5 363.75,-138.5 363.75,-106 363.75,-106 363.75,-100 369.75,-94 375.75,-94"/>
<text text-anchor="middle" x="452.5" y="-136.05" font-family="droid sans,dejavu sans,helvetica" font-size="11.00">Jiří Pírko</text>
<text text-anchor="middle" x="452.5" y="-122.55" font-family="droid sans,dejavu sans,helvetica" font-size="11.00">resnulli.us</text>
<polyline fill="none" stroke="gray" points="363.75,-115.5 541.25,-115.5"/>
<text text-anchor="middle" x="395" y="-101.05" font-family="droid sans,dejavu sans,helvetica" font-size="11.00">RSA 4096</text>
<polyline fill="none" stroke="gray" points="426.25,-94 426.25,-115.5"/>
<text text-anchor="middle" x="483.75" y="-101.05" font-family="droid sans,dejavu sans,helvetica" font-size="11.00">526A3E2C6E4E387D</text>
</a>
</g>
</g>
<!-- a_447&#45;&gt;a_214 -->
<g id="edge9" class="edge">
<title>a_447&#45;&gt;a_214</title>
<path fill="none" stroke="black" d="M473.5,-187.3C470.88,-179.32 467.98,-170.45 465.18,-161.92"/>
<polygon fill="black" stroke="black" points="468.51,-160.85 462.07,-152.44 461.86,-163.03 468.51,-160.85"/>
</g>
<!-- a_214&#45;&gt;a_152 -->
<g id="edge10" class="edge">
<title>a_214&#45;&gt;a_152</title>
<path fill="none" stroke="black" d="M429.1,-93.8C421.68,-85.1 413.37,-75.35 405.51,-66.13"/>
<polygon fill="black" stroke="black" points="408.29,-63.99 399.14,-58.65 402.96,-68.53 408.29,-63.99"/>
</g>
<!-- a_79 -->
<g id="node11" class="node">
<title>a_79</title>
<g id="a_node11"><a xlink:href="1B52E30D2FA29DB8.svg" xlink:title="{Radim Krčmář\nkrcmar.dev|{RSA 3072|1B52E30D2FA29DB8}}">
<path fill="none" stroke="gray" d="M601,-187.5C601,-187.5 756,-187.5 756,-187.5 762,-187.5 768,-193.5 768,-199.5 768,-199.5 768,-232 768,-232 768,-238 762,-244 756,-244 756,-244 601,-244 601,-244 595,-244 589,-238 589,-232 589,-232 589,-199.5 589,-199.5 589,-193.5 595,-187.5 601,-187.5"/>
<text text-anchor="middle" x="678.5" y="-229.55" font-family="droid sans,dejavu sans,helvetica" font-size="11.00">Radim Krčmář</text>
<text text-anchor="middle" x="678.5" y="-216.05" font-family="droid sans,dejavu sans,helvetica" font-size="11.00">krcmar.dev</text>
<polyline fill="none" stroke="gray" points="589,-209 768,-209"/>
<text text-anchor="middle" x="620.25" y="-194.55" font-family="droid sans,dejavu sans,helvetica" font-size="11.00">RSA 3072</text>
<polyline fill="none" stroke="gray" points="651.5,-187.5 651.5,-209"/>
<text text-anchor="middle" x="709.75" y="-194.55" font-family="droid sans,dejavu sans,helvetica" font-size="11.00">1B52E30D2FA29DB8</text>
</a>
</g>
</g>
<!-- a_489&#45;&gt;a_79 -->
<g id="edge12" class="edge">
<title>a_489&#45;&gt;a_79</title>
<path fill="none" stroke="black" d="M678.5,-280.8C678.5,-273 678.5,-264.35 678.5,-255.99"/>
<polygon fill="black" stroke="black" points="682,-256.01 678.5,-246.01 675,-256.01 682,-256.01"/>
</g>
<!-- a_78 -->
<g id="node12" class="node">
<title>a_78</title>
<g id="a_node12"><a xlink:href="1A53BC68A06E022E.svg" xlink:title="{Lorenzo Bianconi\nredhat.com|{RSA 2048|1A53BC68A06E022E}}">
<path fill="none" stroke="gray" d="M591.75,-94C591.75,-94 745.25,-94 745.25,-94 751.25,-94 757.25,-100 757.25,-106 757.25,-106 757.25,-138.5 757.25,-138.5 757.25,-144.5 751.25,-150.5 745.25,-150.5 745.25,-150.5 591.75,-150.5 591.75,-150.5 585.75,-150.5 579.75,-144.5 579.75,-138.5 579.75,-138.5 579.75,-106 579.75,-106 579.75,-100 585.75,-94 591.75,-94"/>
<text text-anchor="middle" x="668.5" y="-136.05" font-family="droid sans,dejavu sans,helvetica" font-size="11.00">Lorenzo Bianconi</text>
<text text-anchor="middle" x="668.5" y="-122.55" font-family="droid sans,dejavu sans,helvetica" font-size="11.00">redhat.com</text>
<polyline fill="none" stroke="gray" points="579.75,-115.5 757.25,-115.5"/>
<text text-anchor="middle" x="611" y="-101.05" font-family="droid sans,dejavu sans,helvetica" font-size="11.00">RSA 2048</text>
<polyline fill="none" stroke="gray" points="642.25,-94 642.25,-115.5"/>
<text text-anchor="middle" x="699.75" y="-101.05" font-family="droid sans,dejavu sans,helvetica" font-size="11.00">1A53BC68A06E022E</text>
</a>
</g>
</g>
<!-- a_79&#45;&gt;a_78 -->
<g id="edge13" class="edge">
<title>a_79&#45;&gt;a_78</title>
<path fill="none" stroke="black" d="M675.5,-187.3C674.64,-179.41 673.68,-170.65 672.76,-162.21"/>
<polygon fill="black" stroke="black" points="676.26,-162.07 671.7,-152.5 669.3,-162.83 676.26,-162.07"/>
</g>
<!-- a_78&#45;&gt;a_152 -->
<g id="edge14" class="edge">
<title>a_78&#45;&gt;a_152</title>
<path fill="none" stroke="black" d="M579.49,-93.55C546.32,-83.23 508.46,-71.44 474.38,-60.84"/>
<polygon fill="black" stroke="black" points="475.49,-57.52 464.9,-57.89 473.41,-64.2 475.49,-57.52"/>
</g>
</g>
</svg>
