<?xml version="1.0" encoding="UTF-8" standalone="no"?>
<!DOCTYPE svg PUBLIC "-//W3C//DTD SVG 1.1//EN"
 "http://www.w3.org/Graphics/SVG/1.1/DTD/svg11.dtd">
<!-- Generated by graphviz version 12.2.1 (20241206.2353)
 -->
<!-- Title: G Pages: 1 -->
<svg width="580pt" height="456pt"
 viewBox="0.00 0.00 580.12 455.50" xmlns="http://www.w3.org/2000/svg" xmlns:xlink="http://www.w3.org/1999/xlink">
<g id="graph0" class="graph" transform="scale(1 1) rotate(0) translate(4 451.5)">
<title>G</title>
<polygon fill="white" stroke="none" points="-4,4 -4,-451.5 576.12,-451.5 576.12,4 -4,4"/>
<g id="clust1" class="cluster">
<title>cluster_toplevel</title>
<polygon fill="none" stroke="white" points="190.25,-366 190.25,-439.5 382.25,-439.5 382.25,-366 190.25,-366"/>
</g>
<!-- a_123 -->
<g id="node1" class="node">
<title>a_123</title>
<g id="a_node1"><a xlink:href="2EA76B9C2B466D9D.svg" xlink:title="{John Hawley\neaglescrag.net|{RSA 4096|2EA76B9C2B466D9D}}">
<path fill="none" stroke="gray" d="M12,-281C12,-281 168.5,-281 168.5,-281 174.5,-281 180.5,-287 180.5,-293 180.5,-293 180.5,-325.5 180.5,-325.5 180.5,-331.5 174.5,-337.5 168.5,-337.5 168.5,-337.5 12,-337.5 12,-337.5 6,-337.5 0,-331.5 0,-325.5 0,-325.5 0,-293 0,-293 0,-287 6,-281 12,-281"/>
<text text-anchor="middle" x="90.25" y="-323.05" font-family="droid sans,dejavu sans,helvetica" font-size="11.00">John Hawley</text>
<text text-anchor="middle" x="90.25" y="-309.55" font-family="droid sans,dejavu sans,helvetica" font-size="11.00">eaglescrag.net</text>
<polyline fill="none" stroke="gray" points="0,-302.5 180.5,-302.5"/>
<text text-anchor="middle" x="31.25" y="-288.05" font-family="droid sans,dejavu sans,helvetica" font-size="11.00">RSA 4096</text>
<polyline fill="none" stroke="gray" points="62.5,-281 62.5,-302.5"/>
<text text-anchor="middle" x="121.5" y="-288.05" font-family="droid sans,dejavu sans,helvetica" font-size="11.00">2EA76B9C2B466D9D</text>
</a>
</g>
</g>
<!-- a_446 -->
<g id="node3" class="node">
<title>a_446</title>
<g id="a_node3"><a xlink:href="ABAB231F97DF5881.svg" xlink:title="{Tony Luck\nintel.com|{RSA 4096|ABAB231F97DF5881}}">
<path fill="none" stroke="gray" d="M13.5,-187.5C13.5,-187.5 167,-187.5 167,-187.5 173,-187.5 179,-193.5 179,-199.5 179,-199.5 179,-232 179,-232 179,-238 173,-244 167,-244 167,-244 13.5,-244 13.5,-244 7.5,-244 1.5,-238 1.5,-232 1.5,-232 1.5,-199.5 1.5,-199.5 1.5,-193.5 7.5,-187.5 13.5,-187.5"/>
<text text-anchor="middle" x="90.25" y="-229.55" font-family="droid sans,dejavu sans,helvetica" font-size="11.00">Tony Luck</text>
<text text-anchor="middle" x="90.25" y="-216.05" font-family="droid sans,dejavu sans,helvetica" font-size="11.00">intel.com</text>
<polyline fill="none" stroke="gray" points="1.5,-209 179,-209"/>
<text text-anchor="middle" x="32.75" y="-194.55" font-family="droid sans,dejavu sans,helvetica" font-size="11.00">RSA 4096</text>
<polyline fill="none" stroke="gray" points="64,-187.5 64,-209"/>
<text text-anchor="middle" x="121.5" y="-194.55" font-family="droid sans,dejavu sans,helvetica" font-size="11.00">ABAB231F97DF5881</text>
</a>
</g>
</g>
<!-- a_123&#45;&gt;a_446 -->
<g id="edge2" class="edge">
<title>a_123&#45;&gt;a_446</title>
<path fill="none" stroke="black" d="M90.25,-280.8C90.25,-273 90.25,-264.35 90.25,-255.99"/>
<polygon fill="black" stroke="black" points="93.75,-256.01 90.25,-246.01 86.75,-256.01 93.75,-256.01"/>
</g>
<!-- a_315 -->
<g id="node2" class="node">
<title>a_315</title>
<g id="a_node2"><a xlink:href="79BE3E4300411886.svg" xlink:title="{Linus Torvalds\nlinux&#45;foundation.org|{RSA 2048|79BE3E4300411886}}">
<path fill="none" stroke="gray" d="M210.62,-374.5C210.62,-374.5 361.88,-374.5 361.88,-374.5 367.88,-374.5 373.88,-380.5 373.88,-386.5 373.88,-386.5 373.88,-419 373.88,-419 373.88,-425 367.88,-431 361.88,-431 361.88,-431 210.62,-431 210.62,-431 204.62,-431 198.62,-425 198.62,-419 198.62,-419 198.62,-386.5 198.62,-386.5 198.62,-380.5 204.62,-374.5 210.62,-374.5"/>
<text text-anchor="middle" x="286.25" y="-416.55" font-family="droid sans,dejavu sans,helvetica" font-size="11.00">Linus Torvalds</text>
<text text-anchor="middle" x="286.25" y="-403.05" font-family="droid sans,dejavu sans,helvetica" font-size="11.00">linux&#45;foundation.org</text>
<polyline fill="none" stroke="gray" points="198.62,-396 373.88,-396"/>
<text text-anchor="middle" x="229.88" y="-381.55" font-family="droid sans,dejavu sans,helvetica" font-size="11.00">RSA 2048</text>
<polyline fill="none" stroke="gray" points="261.12,-374.5 261.12,-396"/>
<text text-anchor="middle" x="317.5" y="-381.55" font-family="droid sans,dejavu sans,helvetica" font-size="11.00">79BE3E4300411886</text>
</a>
</g>
</g>
<!-- a_315&#45;&gt;a_123 -->
<g id="edge1" class="edge">
<title>a_315&#45;&gt;a_123</title>
<path fill="none" stroke="black" d="M226.91,-374.05C205.71,-364.15 181.63,-352.91 159.65,-342.65"/>
<polygon fill="black" stroke="black" points="161.3,-339.56 150.76,-338.5 158.34,-345.9 161.3,-339.56"/>
</g>
<!-- a_414 -->
<g id="node6" class="node">
<title>a_414</title>
<g id="a_node6"><a xlink:href="9EBF12F372D9FB8C.svg" xlink:title="{Paul E. McKenney\nlinux.vnet.ibm.com|{RSA 4096|9EBF12F372D9FB8C}}">
<path fill="none" stroke="gray" d="M210.25,-281C210.25,-281 362.25,-281 362.25,-281 368.25,-281 374.25,-287 374.25,-293 374.25,-293 374.25,-325.5 374.25,-325.5 374.25,-331.5 368.25,-337.5 362.25,-337.5 362.25,-337.5 210.25,-337.5 210.25,-337.5 204.25,-337.5 198.25,-331.5 198.25,-325.5 198.25,-325.5 198.25,-293 198.25,-293 198.25,-287 204.25,-281 210.25,-281"/>
<text text-anchor="middle" x="286.25" y="-323.05" font-family="droid sans,dejavu sans,helvetica" font-size="11.00">Paul E. McKenney</text>
<text text-anchor="middle" x="286.25" y="-309.55" font-family="droid sans,dejavu sans,helvetica" font-size="11.00">linux.vnet.ibm.com</text>
<polyline fill="none" stroke="gray" points="198.25,-302.5 374.25,-302.5"/>
<text text-anchor="middle" x="229.5" y="-288.05" font-family="droid sans,dejavu sans,helvetica" font-size="11.00">RSA 4096</text>
<polyline fill="none" stroke="gray" points="260.75,-281 260.75,-302.5"/>
<text text-anchor="middle" x="317.5" y="-288.05" font-family="droid sans,dejavu sans,helvetica" font-size="11.00">9EBF12F372D9FB8C</text>
</a>
</g>
</g>
<!-- a_315&#45;&gt;a_414 -->
<g id="edge5" class="edge">
<title>a_315&#45;&gt;a_414</title>
<path fill="none" stroke="black" d="M286.25,-374.3C286.25,-366.5 286.25,-357.85 286.25,-349.49"/>
<polygon fill="black" stroke="black" points="289.75,-349.51 286.25,-339.51 282.75,-349.51 289.75,-349.51"/>
</g>
<!-- a_482 -->
<g id="node9" class="node">
<title>a_482</title>
<g id="a_node9"><a xlink:href="BDA06085493BACE4.svg" xlink:title="{H. Peter Anvin\nzytor.com|{RSA 4096|BDA06085493BACE4}}">
<path fill="none" stroke="gray" d="M404.38,-281C404.38,-281 560.12,-281 560.12,-281 566.12,-281 572.12,-287 572.12,-293 572.12,-293 572.12,-325.5 572.12,-325.5 572.12,-331.5 566.12,-337.5 560.12,-337.5 560.12,-337.5 404.38,-337.5 404.38,-337.5 398.38,-337.5 392.38,-331.5 392.38,-325.5 392.38,-325.5 392.38,-293 392.38,-293 392.38,-287 398.38,-281 404.38,-281"/>
<text text-anchor="middle" x="482.25" y="-323.05" font-family="droid sans,dejavu sans,helvetica" font-size="11.00">H. Peter Anvin</text>
<text text-anchor="middle" x="482.25" y="-309.55" font-family="droid sans,dejavu sans,helvetica" font-size="11.00">zytor.com</text>
<polyline fill="none" stroke="gray" points="392.38,-302.5 572.12,-302.5"/>
<text text-anchor="middle" x="423.62" y="-288.05" font-family="droid sans,dejavu sans,helvetica" font-size="11.00">RSA 4096</text>
<polyline fill="none" stroke="gray" points="454.88,-281 454.88,-302.5"/>
<text text-anchor="middle" x="513.5" y="-288.05" font-family="droid sans,dejavu sans,helvetica" font-size="11.00">BDA06085493BACE4</text>
</a>
</g>
</g>
<!-- a_315&#45;&gt;a_482 -->
<g id="edge9" class="edge">
<title>a_315&#45;&gt;a_482</title>
<path fill="none" stroke="black" d="M345.59,-374.05C366.79,-364.15 390.87,-352.91 412.85,-342.65"/>
<polygon fill="black" stroke="black" points="414.16,-345.9 421.74,-338.5 411.2,-339.56 414.16,-345.9"/>
</g>
<!-- a_318 -->
<g id="node4" class="node">
<title>a_318</title>
<g id="a_node4"><a xlink:href="7AFA61BEA3B84DFF.svg" xlink:title="{Vishal Verma\nstellar.sh|{RSA 4096|7AFA61BEA3B84DFF}}">
<path fill="none" stroke="gray" d="M12.5,-94C12.5,-94 166,-94 166,-94 172,-94 178,-100 178,-106 178,-106 178,-138.5 178,-138.5 178,-144.5 172,-150.5 166,-150.5 166,-150.5 12.5,-150.5 12.5,-150.5 6.5,-150.5 0.5,-144.5 0.5,-138.5 0.5,-138.5 0.5,-106 0.5,-106 0.5,-100 6.5,-94 12.5,-94"/>
<text text-anchor="middle" x="89.25" y="-136.05" font-family="droid sans,dejavu sans,helvetica" font-size="11.00">Vishal Verma</text>
<text text-anchor="middle" x="89.25" y="-122.55" font-family="droid sans,dejavu sans,helvetica" font-size="11.00">stellar.sh</text>
<polyline fill="none" stroke="gray" points="0.5,-115.5 178,-115.5"/>
<text text-anchor="middle" x="31.75" y="-101.05" font-family="droid sans,dejavu sans,helvetica" font-size="11.00">RSA 4096</text>
<polyline fill="none" stroke="gray" points="63,-94 63,-115.5"/>
<text text-anchor="middle" x="120.5" y="-101.05" font-family="droid sans,dejavu sans,helvetica" font-size="11.00">7AFA61BEA3B84DFF</text>
</a>
</g>
</g>
<!-- a_446&#45;&gt;a_318 -->
<g id="edge3" class="edge">
<title>a_446&#45;&gt;a_318</title>
<path fill="none" stroke="black" d="M89.95,-187.3C89.86,-179.5 89.77,-170.85 89.68,-162.49"/>
<polygon fill="black" stroke="black" points="93.18,-162.47 89.57,-152.51 86.18,-162.55 93.18,-162.47"/>
</g>
<!-- a_156 -->
<g id="node5" class="node">
<title>a_156</title>
<g id="a_node5"><a xlink:href="3B1BBD6BB613204B.svg" xlink:title="{Lukas Wunner\nwunner.de|{RSA 4096|3B1BBD6BB613204B}}">
<path fill="none" stroke="gray" d="M208,-0.5C208,-0.5 364.5,-0.5 364.5,-0.5 370.5,-0.5 376.5,-6.5 376.5,-12.5 376.5,-12.5 376.5,-45 376.5,-45 376.5,-51 370.5,-57 364.5,-57 364.5,-57 208,-57 208,-57 202,-57 196,-51 196,-45 196,-45 196,-12.5 196,-12.5 196,-6.5 202,-0.5 208,-0.5"/>
<text text-anchor="middle" x="286.25" y="-42.55" font-family="droid sans,dejavu sans,helvetica" font-size="11.00">Lukas Wunner</text>
<text text-anchor="middle" x="286.25" y="-29.05" font-family="droid sans,dejavu sans,helvetica" font-size="11.00">wunner.de</text>
<polyline fill="none" stroke="gray" points="196,-22 376.5,-22"/>
<text text-anchor="middle" x="227.25" y="-7.55" font-family="droid sans,dejavu sans,helvetica" font-size="11.00">RSA 4096</text>
<polyline fill="none" stroke="gray" points="258.5,-0.5 258.5,-22"/>
<text text-anchor="middle" x="317.5" y="-7.55" font-family="droid sans,dejavu sans,helvetica" font-size="11.00">3B1BBD6BB613204B</text>
</a>
</g>
</g>
<!-- a_318&#45;&gt;a_156 -->
<g id="edge4" class="edge">
<title>a_318&#45;&gt;a_156</title>
<path fill="none" stroke="black" d="M148.89,-93.55C170.2,-83.65 194.41,-72.41 216.5,-62.15"/>
<polygon fill="black" stroke="black" points="217.84,-65.38 225.44,-57.99 214.9,-59.03 217.84,-65.38"/>
</g>
<!-- a_270 -->
<g id="node7" class="node">
<title>a_270</title>
<g id="a_node7"><a xlink:href="6835953070C992B0.svg" xlink:title="{David Christopher Hansen\nsr71.net|{RSA 4096|6835953070C992B0}}">
<path fill="none" stroke="gray" d="M210.25,-187.5C210.25,-187.5 362.25,-187.5 362.25,-187.5 368.25,-187.5 374.25,-193.5 374.25,-199.5 374.25,-199.5 374.25,-232 374.25,-232 374.25,-238 368.25,-244 362.25,-244 362.25,-244 210.25,-244 210.25,-244 204.25,-244 198.25,-238 198.25,-232 198.25,-232 198.25,-199.5 198.25,-199.5 198.25,-193.5 204.25,-187.5 210.25,-187.5"/>
<text text-anchor="middle" x="286.25" y="-229.55" font-family="droid sans,dejavu sans,helvetica" font-size="11.00">David Christopher Hansen</text>
<text text-anchor="middle" x="286.25" y="-216.05" font-family="droid sans,dejavu sans,helvetica" font-size="11.00">sr71.net</text>
<polyline fill="none" stroke="gray" points="198.25,-209 374.25,-209"/>
<text text-anchor="middle" x="229.5" y="-194.55" font-family="droid sans,dejavu sans,helvetica" font-size="11.00">RSA 4096</text>
<polyline fill="none" stroke="gray" points="260.75,-187.5 260.75,-209"/>
<text text-anchor="middle" x="317.5" y="-194.55" font-family="droid sans,dejavu sans,helvetica" font-size="11.00">6835953070C992B0</text>
</a>
</g>
</g>
<!-- a_414&#45;&gt;a_270 -->
<g id="edge6" class="edge">
<title>a_414&#45;&gt;a_270</title>
<path fill="none" stroke="black" d="M286.25,-280.8C286.25,-273 286.25,-264.35 286.25,-255.99"/>
<polygon fill="black" stroke="black" points="289.75,-256.01 286.25,-246.01 282.75,-256.01 289.75,-256.01"/>
</g>
<!-- a_198 -->
<g id="node8" class="node">
<title>a_198</title>
<g id="a_node8"><a xlink:href="4CA3BABF788D70D8.svg" xlink:title="{Ira Weiny\nintel.com|{RSA 4096|4CA3BABF788D70D8}}">
<path fill="none" stroke="gray" d="M208,-94C208,-94 364.5,-94 364.5,-94 370.5,-94 376.5,-100 376.5,-106 376.5,-106 376.5,-138.5 376.5,-138.5 376.5,-144.5 370.5,-150.5 364.5,-150.5 364.5,-150.5 208,-150.5 208,-150.5 202,-150.5 196,-144.5 196,-138.5 196,-138.5 196,-106 196,-106 196,-100 202,-94 208,-94"/>
<text text-anchor="middle" x="286.25" y="-136.05" font-family="droid sans,dejavu sans,helvetica" font-size="11.00">Ira Weiny</text>
<text text-anchor="middle" x="286.25" y="-122.55" font-family="droid sans,dejavu sans,helvetica" font-size="11.00">intel.com</text>
<polyline fill="none" stroke="gray" points="196,-115.5 376.5,-115.5"/>
<text text-anchor="middle" x="227.25" y="-101.05" font-family="droid sans,dejavu sans,helvetica" font-size="11.00">RSA 4096</text>
<polyline fill="none" stroke="gray" points="258.5,-94 258.5,-115.5"/>
<text text-anchor="middle" x="317.5" y="-101.05" font-family="droid sans,dejavu sans,helvetica" font-size="11.00">4CA3BABF788D70D8</text>
</a>
</g>
</g>
<!-- a_270&#45;&gt;a_198 -->
<g id="edge7" class="edge">
<title>a_270&#45;&gt;a_198</title>
<path fill="none" stroke="black" d="M286.25,-187.3C286.25,-179.5 286.25,-170.85 286.25,-162.49"/>
<polygon fill="black" stroke="black" points="289.75,-162.51 286.25,-152.51 282.75,-162.51 289.75,-162.51"/>
</g>
<!-- a_198&#45;&gt;a_156 -->
<g id="edge8" class="edge">
<title>a_198&#45;&gt;a_156</title>
<path fill="none" stroke="black" d="M286.25,-93.8C286.25,-86 286.25,-77.35 286.25,-68.99"/>
<polygon fill="black" stroke="black" points="289.75,-69.01 286.25,-59.01 282.75,-69.01 289.75,-69.01"/>
</g>
<!-- a_86 -->
<g id="node10" class="node">
<title>a_86</title>
<g id="a_node10"><a xlink:href="1ED2916A667D8802.svg" xlink:title="{Dan Williams\nintel.com|{RSA 4096|1ED2916A667D8802}}">
<path fill="none" stroke="gray" d="M405.12,-187.5C405.12,-187.5 559.38,-187.5 559.38,-187.5 565.38,-187.5 571.38,-193.5 571.38,-199.5 571.38,-199.5 571.38,-232 571.38,-232 571.38,-238 565.38,-244 559.38,-244 559.38,-244 405.12,-244 405.12,-244 399.12,-244 393.12,-238 393.12,-232 393.12,-232 393.12,-199.5 393.12,-199.5 393.12,-193.5 399.12,-187.5 405.12,-187.5"/>
<text text-anchor="middle" x="482.25" y="-229.55" font-family="droid sans,dejavu sans,helvetica" font-size="11.00">Dan Williams</text>
<text text-anchor="middle" x="482.25" y="-216.05" font-family="droid sans,dejavu sans,helvetica" font-size="11.00">intel.com</text>
<polyline fill="none" stroke="gray" points="393.12,-209 571.38,-209"/>
<text text-anchor="middle" x="424.38" y="-194.55" font-family="droid sans,dejavu sans,helvetica" font-size="11.00">RSA 4096</text>
<polyline fill="none" stroke="gray" points="455.62,-187.5 455.62,-209"/>
<text text-anchor="middle" x="513.5" y="-194.55" font-family="droid sans,dejavu sans,helvetica" font-size="11.00">1ED2916A667D8802</text>
</a>
</g>
</g>
<!-- a_482&#45;&gt;a_86 -->
<g id="edge10" class="edge">
<title>a_482&#45;&gt;a_86</title>
<path fill="none" stroke="black" d="M482.25,-280.8C482.25,-273 482.25,-264.35 482.25,-255.99"/>
<polygon fill="black" stroke="black" points="485.75,-256.01 482.25,-246.01 478.75,-256.01 485.75,-256.01"/>
</g>
<!-- a_247 -->
<g id="node11" class="node">
<title>a_247</title>
<g id="a_node11"><a xlink:href="6068C5166953384A.svg" xlink:title="{Dave Jiang\nintel.com|{RSA 4096|6068C5166953384A}}">
<path fill="none" stroke="gray" d="M406.25,-94C406.25,-94 558.25,-94 558.25,-94 564.25,-94 570.25,-100 570.25,-106 570.25,-106 570.25,-138.5 570.25,-138.5 570.25,-144.5 564.25,-150.5 558.25,-150.5 558.25,-150.5 406.25,-150.5 406.25,-150.5 400.25,-150.5 394.25,-144.5 394.25,-138.5 394.25,-138.5 394.25,-106 394.25,-106 394.25,-100 400.25,-94 406.25,-94"/>
<text text-anchor="middle" x="482.25" y="-136.05" font-family="droid sans,dejavu sans,helvetica" font-size="11.00">Dave Jiang</text>
<text text-anchor="middle" x="482.25" y="-122.55" font-family="droid sans,dejavu sans,helvetica" font-size="11.00">intel.com</text>
<polyline fill="none" stroke="gray" points="394.25,-115.5 570.25,-115.5"/>
<text text-anchor="middle" x="425.5" y="-101.05" font-family="droid sans,dejavu sans,helvetica" font-size="11.00">RSA 4096</text>
<polyline fill="none" stroke="gray" points="456.75,-94 456.75,-115.5"/>
<text text-anchor="middle" x="513.5" y="-101.05" font-family="droid sans,dejavu sans,helvetica" font-size="11.00">6068C5166953384A</text>
</a>
</g>
</g>
<!-- a_86&#45;&gt;a_247 -->
<g id="edge11" class="edge">
<title>a_86&#45;&gt;a_247</title>
<path fill="none" stroke="black" d="M482.25,-187.3C482.25,-179.5 482.25,-170.85 482.25,-162.49"/>
<polygon fill="black" stroke="black" points="485.75,-162.51 482.25,-152.51 478.75,-162.51 485.75,-162.51"/>
</g>
<!-- a_247&#45;&gt;a_156 -->
<g id="edge12" class="edge">
<title>a_247&#45;&gt;a_156</title>
<path fill="none" stroke="black" d="M422.91,-93.55C401.71,-83.65 377.63,-72.41 355.65,-62.15"/>
<polygon fill="black" stroke="black" points="357.3,-59.06 346.76,-58 354.34,-65.4 357.3,-59.06"/>
</g>
</g>
</svg>
