<?xml version="1.0" encoding="UTF-8" standalone="no"?>
<!DOCTYPE svg PUBLIC "-//W3C//DTD SVG 1.1//EN"
 "http://www.w3.org/Graphics/SVG/1.1/DTD/svg11.dtd">
<!-- Generated by graphviz version 2.40.1 (0)
 -->
<!-- Title: G Pages: 1 -->
<svg width="390pt" height="433pt"
 viewBox="0.00 0.00 389.50 433.00" xmlns="http://www.w3.org/2000/svg" xmlns:xlink="http://www.w3.org/1999/xlink">
<g id="graph0" class="graph" transform="scale(1 1) rotate(0) translate(4 429)">
<title>G</title>
<polygon fill="#ffffff" stroke="transparent" points="-4,4 -4,-429 385.5,-429 385.5,4 -4,4"/>
<g id="clust1" class="cluster">
<title>cluster_toplevel</title>
<polygon fill="none" stroke="#ffffff" points="94.5,-348 94.5,-417 286.5,-417 286.5,-348 94.5,-348"/>
</g>
<!-- a_100 -->
<g id="node1" class="node">
<title>a_100</title>
<path fill="none" stroke="#c0c0c0" d="M12,-267.5C12,-267.5 169,-267.5 169,-267.5 175,-267.5 181,-273.5 181,-279.5 181,-279.5 181,-307.5 181,-307.5 181,-313.5 175,-319.5 169,-319.5 169,-319.5 12,-319.5 12,-319.5 6,-319.5 0,-313.5 0,-307.5 0,-307.5 0,-279.5 0,-279.5 0,-273.5 6,-267.5 12,-267.5"/>
<text text-anchor="middle" x="90.5" y="-306.7" font-family="droid sans,dejavu sans,helvetica" font-size="11.00" fill="#000000">Greg Kroah&#45;Hartman</text>
<text text-anchor="middle" x="90.5" y="-294.7" font-family="droid sans,dejavu sans,helvetica" font-size="11.00" fill="#000000">linuxfoundation.org</text>
<polyline fill="none" stroke="#c0c0c0" points="0,-287.5 181,-287.5 "/>
<text text-anchor="middle" x="31.5" y="-274.7" font-family="droid sans,dejavu sans,helvetica" font-size="11.00" fill="#000000">RSA 4096</text>
<polyline fill="none" stroke="#c0c0c0" points="63,-267.5 63,-287.5 "/>
<text text-anchor="middle" x="122" y="-274.7" font-family="droid sans,dejavu sans,helvetica" font-size="11.00" fill="#000000">38DBBDC86092693E</text>
</g>
<!-- a_127 -->
<g id="node3" class="node">
<title>a_127</title>
<path fill="none" stroke="#c0c0c0" d="M113,-.5C113,-.5 268,-.5 268,-.5 274,-.5 280,-6.5 280,-12.5 280,-12.5 280,-40.5 280,-40.5 280,-46.5 274,-52.5 268,-52.5 268,-52.5 113,-52.5 113,-52.5 107,-52.5 101,-46.5 101,-40.5 101,-40.5 101,-12.5 101,-12.5 101,-6.5 107,-.5 113,-.5"/>
<text text-anchor="middle" x="190.5" y="-39.7" font-family="droid sans,dejavu sans,helvetica" font-size="11.00" fill="#000000">Jason A. Donenfeld</text>
<text text-anchor="middle" x="190.5" y="-27.7" font-family="droid sans,dejavu sans,helvetica" font-size="11.00" fill="#000000">zx2c4.com</text>
<polyline fill="none" stroke="#c0c0c0" points="101,-20.5 280,-20.5 "/>
<text text-anchor="middle" x="132.5" y="-7.7" font-family="droid sans,dejavu sans,helvetica" font-size="11.00" fill="#000000">RSA 4096</text>
<polyline fill="none" stroke="#c0c0c0" points="164,-.5 164,-20.5 "/>
<text text-anchor="middle" x="222" y="-7.7" font-family="droid sans,dejavu sans,helvetica" font-size="11.00" fill="#000000">49FC7012A5DE03AE</text>
</g>
<!-- a_100&#45;&gt;a_127 -->
<g id="edge2" class="edge">
<title>a_100&#45;&gt;a_127</title>
<path fill="none" stroke="#000000" d="M100.2705,-267.4128C118.268,-219.3595 156.6797,-116.8001 177.0961,-62.2885"/>
<polygon fill="#000000" stroke="#000000" points="180.46,-63.2855 180.6898,-52.6931 173.9047,-60.8302 180.46,-63.2855"/>
</g>
<!-- a_211 -->
<g id="node2" class="node">
<title>a_211</title>
<path fill="none" stroke="#c0c0c0" d="M114.5,-356.5C114.5,-356.5 266.5,-356.5 266.5,-356.5 272.5,-356.5 278.5,-362.5 278.5,-368.5 278.5,-368.5 278.5,-396.5 278.5,-396.5 278.5,-402.5 272.5,-408.5 266.5,-408.5 266.5,-408.5 114.5,-408.5 114.5,-408.5 108.5,-408.5 102.5,-402.5 102.5,-396.5 102.5,-396.5 102.5,-368.5 102.5,-368.5 102.5,-362.5 108.5,-356.5 114.5,-356.5"/>
<text text-anchor="middle" x="190.5" y="-395.7" font-family="droid sans,dejavu sans,helvetica" font-size="11.00" fill="#000000">Linus Torvalds</text>
<text text-anchor="middle" x="190.5" y="-383.7" font-family="droid sans,dejavu sans,helvetica" font-size="11.00" fill="#000000">kernel.org</text>
<polyline fill="none" stroke="#c0c0c0" points="102.5,-376.5 278.5,-376.5 "/>
<text text-anchor="middle" x="134" y="-363.7" font-family="droid sans,dejavu sans,helvetica" font-size="11.00" fill="#000000">RSA 2048</text>
<polyline fill="none" stroke="#c0c0c0" points="165.5,-356.5 165.5,-376.5 "/>
<text text-anchor="middle" x="222" y="-363.7" font-family="droid sans,dejavu sans,helvetica" font-size="11.00" fill="#000000">79BE3E4300411886</text>
</g>
<!-- a_211&#45;&gt;a_100 -->
<g id="edge1" class="edge">
<title>a_211&#45;&gt;a_100</title>
<path fill="none" stroke="#000000" d="M161.0376,-356.2784C150.4585,-346.8631 138.3948,-336.1264 127.2721,-326.2271"/>
<polygon fill="#000000" stroke="#000000" points="129.5488,-323.568 119.7519,-319.5341 124.8949,-328.797 129.5488,-323.568"/>
</g>
<!-- a_88 -->
<g id="node4" class="node">
<title>a_88</title>
<path fill="none" stroke="#c0c0c0" d="M211.5,-267.5C211.5,-267.5 369.5,-267.5 369.5,-267.5 375.5,-267.5 381.5,-273.5 381.5,-279.5 381.5,-279.5 381.5,-307.5 381.5,-307.5 381.5,-313.5 375.5,-319.5 369.5,-319.5 369.5,-319.5 211.5,-319.5 211.5,-319.5 205.5,-319.5 199.5,-313.5 199.5,-307.5 199.5,-307.5 199.5,-279.5 199.5,-279.5 199.5,-273.5 205.5,-267.5 211.5,-267.5"/>
<text text-anchor="middle" x="290.5" y="-306.7" font-family="droid sans,dejavu sans,helvetica" font-size="11.00" fill="#000000">John Hawley</text>
<text text-anchor="middle" x="290.5" y="-294.7" font-family="droid sans,dejavu sans,helvetica" font-size="11.00" fill="#000000">eaglescrag.net</text>
<polyline fill="none" stroke="#c0c0c0" points="199.5,-287.5 381.5,-287.5 "/>
<text text-anchor="middle" x="231" y="-274.7" font-family="droid sans,dejavu sans,helvetica" font-size="11.00" fill="#000000">RSA 4096</text>
<polyline fill="none" stroke="#c0c0c0" points="262.5,-267.5 262.5,-287.5 "/>
<text text-anchor="middle" x="322" y="-274.7" font-family="droid sans,dejavu sans,helvetica" font-size="11.00" fill="#000000">2EA76B9C2B466D9D</text>
</g>
<!-- a_211&#45;&gt;a_88 -->
<g id="edge3" class="edge">
<title>a_211&#45;&gt;a_88</title>
<path fill="none" stroke="#000000" d="M219.9624,-356.2784C230.5415,-346.8631 242.6052,-336.1264 253.7279,-326.2271"/>
<polygon fill="#000000" stroke="#000000" points="256.1051,-328.797 261.2481,-319.5341 251.4512,-323.568 256.1051,-328.797"/>
</g>
<!-- a_87 -->
<g id="node5" class="node">
<title>a_87</title>
<path fill="none" stroke="#c0c0c0" d="M203,-178.5C203,-178.5 356,-178.5 356,-178.5 362,-178.5 368,-184.5 368,-190.5 368,-190.5 368,-218.5 368,-218.5 368,-224.5 362,-230.5 356,-230.5 356,-230.5 203,-230.5 203,-230.5 197,-230.5 191,-224.5 191,-218.5 191,-218.5 191,-190.5 191,-190.5 191,-184.5 197,-178.5 203,-178.5"/>
<text text-anchor="middle" x="279.5" y="-217.7" font-family="droid sans,dejavu sans,helvetica" font-size="11.00" fill="#000000">Will Deacon</text>
<text text-anchor="middle" x="279.5" y="-205.7" font-family="droid sans,dejavu sans,helvetica" font-size="11.00" fill="#000000">kernel.org</text>
<polyline fill="none" stroke="#c0c0c0" points="191,-198.5 368,-198.5 "/>
<text text-anchor="middle" x="222.5" y="-185.7" font-family="droid sans,dejavu sans,helvetica" font-size="11.00" fill="#000000">RSA 4096</text>
<polyline fill="none" stroke="#c0c0c0" points="254,-178.5 254,-198.5 "/>
<text text-anchor="middle" x="311" y="-185.7" font-family="droid sans,dejavu sans,helvetica" font-size="11.00" fill="#000000">2DFBF4523E542FD9</text>
</g>
<!-- a_88&#45;&gt;a_87 -->
<g id="edge4" class="edge">
<title>a_88&#45;&gt;a_87</title>
<path fill="none" stroke="#000000" d="M287.2591,-267.2784C286.2297,-258.9495 285.0725,-249.5865 283.9722,-240.6839"/>
<polygon fill="#000000" stroke="#000000" points="287.418,-240.0293 282.7177,-230.5341 280.4708,-240.888 287.418,-240.0293"/>
</g>
<!-- a_193 -->
<g id="node6" class="node">
<title>a_193</title>
<path fill="none" stroke="#c0c0c0" d="M192,-89.5C192,-89.5 347,-89.5 347,-89.5 353,-89.5 359,-95.5 359,-101.5 359,-101.5 359,-129.5 359,-129.5 359,-135.5 353,-141.5 347,-141.5 347,-141.5 192,-141.5 192,-141.5 186,-141.5 180,-135.5 180,-129.5 180,-129.5 180,-101.5 180,-101.5 180,-95.5 186,-89.5 192,-89.5"/>
<text text-anchor="middle" x="269.5" y="-128.7" font-family="droid sans,dejavu sans,helvetica" font-size="11.00" fill="#000000">Luc Van Oostenryck</text>
<text text-anchor="middle" x="269.5" y="-116.7" font-family="droid sans,dejavu sans,helvetica" font-size="11.00" fill="#000000">gmail.com</text>
<polyline fill="none" stroke="#c0c0c0" points="180,-109.5 359,-109.5 "/>
<text text-anchor="middle" x="211.5" y="-96.7" font-family="droid sans,dejavu sans,helvetica" font-size="11.00" fill="#000000">RSA 4096</text>
<polyline fill="none" stroke="#c0c0c0" points="243,-89.5 243,-109.5 "/>
<text text-anchor="middle" x="301" y="-96.7" font-family="droid sans,dejavu sans,helvetica" font-size="11.00" fill="#000000">6BE1D9E01FBEE00A</text>
</g>
<!-- a_87&#45;&gt;a_193 -->
<g id="edge5" class="edge">
<title>a_87&#45;&gt;a_193</title>
<path fill="none" stroke="#000000" d="M276.5538,-178.2784C275.6179,-169.9495 274.5659,-160.5865 273.5656,-151.6839"/>
<polygon fill="#000000" stroke="#000000" points="277.02,-151.0808 272.4252,-141.5341 270.0637,-151.8624 277.02,-151.0808"/>
</g>
<!-- a_193&#45;&gt;a_127 -->
<g id="edge6" class="edge">
<title>a_193&#45;&gt;a_127</title>
<path fill="none" stroke="#000000" d="M246.2247,-89.2784C238.1083,-80.1347 228.8857,-69.7447 220.3121,-60.0858"/>
<polygon fill="#000000" stroke="#000000" points="222.865,-57.6894 213.609,-52.5341 217.6299,-62.3364 222.865,-57.6894"/>
</g>
</g>
</svg>
