<?xml version="1.0" encoding="UTF-8" standalone="no"?>
<!DOCTYPE svg PUBLIC "-//W3C//DTD SVG 1.1//EN"
 "http://www.w3.org/Graphics/SVG/1.1/DTD/svg11.dtd">
<!-- Generated by graphviz version 2.44.0 (0)
 -->
<!-- Title: G Pages: 1 -->
<svg width="781pt" height="344pt"
 viewBox="0.00 0.00 780.50 344.00" xmlns="http://www.w3.org/2000/svg" xmlns:xlink="http://www.w3.org/1999/xlink">
<g id="graph0" class="graph" transform="scale(1 1) rotate(0) translate(4 340)">
<title>G</title>
<polygon fill="white" stroke="transparent" points="-4,4 -4,-340 776.5,-340 776.5,4 -4,4"/>
<g id="clust1" class="cluster">
<title>cluster_toplevel</title>
<polygon fill="none" stroke="white" points="290,-259 290,-328 482,-328 482,-259 290,-259"/>
</g>
<!-- a_47 -->
<g id="node1" class="node">
<title>a_47</title>
<path fill="none" stroke="gray" d="M15,-178.5C15,-178.5 167,-178.5 167,-178.5 173,-178.5 179,-184.5 179,-190.5 179,-190.5 179,-218.5 179,-218.5 179,-224.5 173,-230.5 167,-230.5 167,-230.5 15,-230.5 15,-230.5 9,-230.5 3,-224.5 3,-218.5 3,-218.5 3,-190.5 3,-190.5 3,-184.5 9,-178.5 15,-178.5"/>
<text text-anchor="middle" x="91" y="-217.7" font-family="droid sans,dejavu sans,helvetica" font-size="11.00">Benson Leung</text>
<text text-anchor="middle" x="91" y="-205.7" font-family="droid sans,dejavu sans,helvetica" font-size="11.00">chromium.org</text>
<polyline fill="none" stroke="gray" points="3,-198.5 179,-198.5 "/>
<text text-anchor="middle" x="34.5" y="-185.7" font-family="droid sans,dejavu sans,helvetica" font-size="11.00">RSA 4096</text>
<polyline fill="none" stroke="gray" points="66,-178.5 66,-198.5 "/>
<text text-anchor="middle" x="122.5" y="-185.7" font-family="droid sans,dejavu sans,helvetica" font-size="11.00">17212997986C5765</text>
</g>
<!-- a_377 -->
<g id="node3" class="node">
<title>a_377</title>
<path fill="none" stroke="gray" d="M12,-89.5C12,-89.5 168,-89.5 168,-89.5 174,-89.5 180,-95.5 180,-101.5 180,-101.5 180,-129.5 180,-129.5 180,-135.5 174,-141.5 168,-141.5 168,-141.5 12,-141.5 12,-141.5 6,-141.5 0,-135.5 0,-129.5 0,-129.5 0,-101.5 0,-101.5 0,-95.5 6,-89.5 12,-89.5"/>
<text text-anchor="middle" x="90" y="-128.7" font-family="droid sans,dejavu sans,helvetica" font-size="11.00">Stephen Boyd</text>
<text text-anchor="middle" x="90" y="-116.7" font-family="droid sans,dejavu sans,helvetica" font-size="11.00">codeaurora.org</text>
<polyline fill="none" stroke="gray" points="0,-109.5 180,-109.5 "/>
<text text-anchor="middle" x="31.5" y="-96.7" font-family="droid sans,dejavu sans,helvetica" font-size="11.00">RSA 4096</text>
<polyline fill="none" stroke="gray" points="63,-89.5 63,-109.5 "/>
<text text-anchor="middle" x="121.5" y="-96.7" font-family="droid sans,dejavu sans,helvetica" font-size="11.00">D89D81132578E73D</text>
</g>
<!-- a_47&#45;&gt;a_377 -->
<g id="edge2" class="edge">
<title>a_47&#45;&gt;a_377</title>
<path fill="none" stroke="black" d="M90.71,-178.34C90.62,-170.04 90.51,-160.65 90.41,-151.75"/>
<polygon fill="black" stroke="black" points="93.9,-151.57 90.29,-141.61 86.9,-151.65 93.9,-151.57"/>
</g>
<!-- a_217 -->
<g id="node2" class="node">
<title>a_217</title>
<path fill="none" stroke="gray" d="M310,-267.5C310,-267.5 462,-267.5 462,-267.5 468,-267.5 474,-273.5 474,-279.5 474,-279.5 474,-307.5 474,-307.5 474,-313.5 468,-319.5 462,-319.5 462,-319.5 310,-319.5 310,-319.5 304,-319.5 298,-313.5 298,-307.5 298,-307.5 298,-279.5 298,-279.5 298,-273.5 304,-267.5 310,-267.5"/>
<text text-anchor="middle" x="386" y="-306.7" font-family="droid sans,dejavu sans,helvetica" font-size="11.00">Linus Torvalds</text>
<text text-anchor="middle" x="386" y="-294.7" font-family="droid sans,dejavu sans,helvetica" font-size="11.00">kernel.org</text>
<polyline fill="none" stroke="gray" points="298,-287.5 474,-287.5 "/>
<text text-anchor="middle" x="329.5" y="-274.7" font-family="droid sans,dejavu sans,helvetica" font-size="11.00">RSA 2048</text>
<polyline fill="none" stroke="gray" points="361,-267.5 361,-287.5 "/>
<text text-anchor="middle" x="417.5" y="-274.7" font-family="droid sans,dejavu sans,helvetica" font-size="11.00">79BE3E4300411886</text>
</g>
<!-- a_217&#45;&gt;a_47 -->
<g id="edge1" class="edge">
<title>a_217&#45;&gt;a_47</title>
<path fill="none" stroke="black" d="M301.07,-267.45C264.98,-256.81 222.75,-244.35 185.65,-233.41"/>
<polygon fill="black" stroke="black" points="186.42,-229.99 175.84,-230.52 184.44,-236.71 186.42,-229.99"/>
</g>
<!-- a_63 -->
<g id="node5" class="node">
<title>a_63</title>
<path fill="none" stroke="gray" d="M209.5,-178.5C209.5,-178.5 364.5,-178.5 364.5,-178.5 370.5,-178.5 376.5,-184.5 376.5,-190.5 376.5,-190.5 376.5,-218.5 376.5,-218.5 376.5,-224.5 370.5,-230.5 364.5,-230.5 364.5,-230.5 209.5,-230.5 209.5,-230.5 203.5,-230.5 197.5,-224.5 197.5,-218.5 197.5,-218.5 197.5,-190.5 197.5,-190.5 197.5,-184.5 203.5,-178.5 209.5,-178.5"/>
<text text-anchor="middle" x="287" y="-217.7" font-family="droid sans,dejavu sans,helvetica" font-size="11.00">Junio C Hamano</text>
<text text-anchor="middle" x="287" y="-205.7" font-family="droid sans,dejavu sans,helvetica" font-size="11.00">pobox.com</text>
<polyline fill="none" stroke="gray" points="197.5,-198.5 376.5,-198.5 "/>
<text text-anchor="middle" x="229" y="-185.7" font-family="droid sans,dejavu sans,helvetica" font-size="11.00">RSA 4096</text>
<polyline fill="none" stroke="gray" points="260.5,-178.5 260.5,-198.5 "/>
<text text-anchor="middle" x="318.5" y="-185.7" font-family="droid sans,dejavu sans,helvetica" font-size="11.00">20D04E5A713660A7</text>
</g>
<!-- a_217&#45;&gt;a_63 -->
<g id="edge4" class="edge">
<title>a_217&#45;&gt;a_63</title>
<path fill="none" stroke="black" d="M357.37,-267.34C346.69,-257.96 334.44,-247.19 323.18,-237.29"/>
<polygon fill="black" stroke="black" points="325.39,-234.58 315.57,-230.61 320.77,-239.84 325.39,-234.58"/>
</g>
<!-- a_100 -->
<g id="node7" class="node">
<title>a_100</title>
<path fill="none" stroke="gray" d="M406.5,-178.5C406.5,-178.5 563.5,-178.5 563.5,-178.5 569.5,-178.5 575.5,-184.5 575.5,-190.5 575.5,-190.5 575.5,-218.5 575.5,-218.5 575.5,-224.5 569.5,-230.5 563.5,-230.5 563.5,-230.5 406.5,-230.5 406.5,-230.5 400.5,-230.5 394.5,-224.5 394.5,-218.5 394.5,-218.5 394.5,-190.5 394.5,-190.5 394.5,-184.5 400.5,-178.5 406.5,-178.5"/>
<text text-anchor="middle" x="485" y="-217.7" font-family="droid sans,dejavu sans,helvetica" font-size="11.00">Greg Kroah&#45;Hartman</text>
<text text-anchor="middle" x="485" y="-205.7" font-family="droid sans,dejavu sans,helvetica" font-size="11.00">linuxfoundation.org</text>
<polyline fill="none" stroke="gray" points="394.5,-198.5 575.5,-198.5 "/>
<text text-anchor="middle" x="426" y="-185.7" font-family="droid sans,dejavu sans,helvetica" font-size="11.00">RSA 4096</text>
<polyline fill="none" stroke="gray" points="457.5,-178.5 457.5,-198.5 "/>
<text text-anchor="middle" x="516.5" y="-185.7" font-family="droid sans,dejavu sans,helvetica" font-size="11.00">38DBBDC86092693E</text>
</g>
<!-- a_217&#45;&gt;a_100 -->
<g id="edge7" class="edge">
<title>a_217&#45;&gt;a_100</title>
<path fill="none" stroke="black" d="M414.63,-267.34C425.31,-257.96 437.56,-247.19 448.82,-237.29"/>
<polygon fill="black" stroke="black" points="451.23,-239.84 456.43,-230.61 446.61,-234.58 451.23,-239.84"/>
</g>
<!-- a_181 -->
<g id="node9" class="node">
<title>a_181</title>
<path fill="none" stroke="gray" d="M606,-178.5C606,-178.5 760,-178.5 760,-178.5 766,-178.5 772,-184.5 772,-190.5 772,-190.5 772,-218.5 772,-218.5 772,-224.5 766,-230.5 760,-230.5 760,-230.5 606,-230.5 606,-230.5 600,-230.5 594,-224.5 594,-218.5 594,-218.5 594,-190.5 594,-190.5 594,-184.5 600,-178.5 606,-178.5"/>
<text text-anchor="middle" x="683" y="-217.7" font-family="droid sans,dejavu sans,helvetica" font-size="11.00">David Woodhouse</text>
<text text-anchor="middle" x="683" y="-205.7" font-family="droid sans,dejavu sans,helvetica" font-size="11.00">infradead.org</text>
<polyline fill="none" stroke="gray" points="594,-198.5 772,-198.5 "/>
<text text-anchor="middle" x="625.5" y="-185.7" font-family="droid sans,dejavu sans,helvetica" font-size="11.00">RSA 4096</text>
<polyline fill="none" stroke="gray" points="657,-178.5 657,-198.5 "/>
<text text-anchor="middle" x="714.5" y="-185.7" font-family="droid sans,dejavu sans,helvetica" font-size="11.00">63762CDA67E2F359</text>
</g>
<!-- a_217&#45;&gt;a_181 -->
<g id="edge10" class="edge">
<title>a_217&#45;&gt;a_181</title>
<path fill="none" stroke="black" d="M471.51,-267.45C507.84,-256.81 550.36,-244.35 587.7,-233.41"/>
<polygon fill="black" stroke="black" points="588.97,-236.69 597.58,-230.52 587,-229.97 588.97,-236.69"/>
</g>
<!-- a_149 -->
<g id="node4" class="node">
<title>a_149</title>
<path fill="none" stroke="gray" d="M309.5,-0.5C309.5,-0.5 464.5,-0.5 464.5,-0.5 470.5,-0.5 476.5,-6.5 476.5,-12.5 476.5,-12.5 476.5,-40.5 476.5,-40.5 476.5,-46.5 470.5,-52.5 464.5,-52.5 464.5,-52.5 309.5,-52.5 309.5,-52.5 303.5,-52.5 297.5,-46.5 297.5,-40.5 297.5,-40.5 297.5,-12.5 297.5,-12.5 297.5,-6.5 303.5,-0.5 309.5,-0.5"/>
<text text-anchor="middle" x="387" y="-39.7" font-family="droid sans,dejavu sans,helvetica" font-size="11.00">Andy Gross</text>
<text text-anchor="middle" x="387" y="-27.7" font-family="droid sans,dejavu sans,helvetica" font-size="11.00">linaro.org</text>
<polyline fill="none" stroke="gray" points="297.5,-20.5 476.5,-20.5 "/>
<text text-anchor="middle" x="329" y="-7.7" font-family="droid sans,dejavu sans,helvetica" font-size="11.00">RSA 4096</text>
<polyline fill="none" stroke="gray" points="360.5,-0.5 360.5,-20.5 "/>
<text text-anchor="middle" x="418.5" y="-7.7" font-family="droid sans,dejavu sans,helvetica" font-size="11.00">52A205B1F1D915D5</text>
</g>
<!-- a_377&#45;&gt;a_149 -->
<g id="edge3" class="edge">
<title>a_377&#45;&gt;a_149</title>
<path fill="none" stroke="black" d="M175.51,-89.45C211.84,-78.81 254.36,-66.35 291.7,-55.41"/>
<polygon fill="black" stroke="black" points="292.97,-58.69 301.58,-52.52 291,-51.97 292.97,-58.69"/>
</g>
<!-- a_259 -->
<g id="node6" class="node">
<title>a_259</title>
<path fill="none" stroke="gray" d="M210,-89.5C210,-89.5 366,-89.5 366,-89.5 372,-89.5 378,-95.5 378,-101.5 378,-101.5 378,-129.5 378,-129.5 378,-135.5 372,-141.5 366,-141.5 366,-141.5 210,-141.5 210,-141.5 204,-141.5 198,-135.5 198,-129.5 198,-129.5 198,-101.5 198,-101.5 198,-95.5 204,-89.5 210,-89.5"/>
<text text-anchor="middle" x="288" y="-128.7" font-family="droid sans,dejavu sans,helvetica" font-size="11.00">Olof Johansson</text>
<text text-anchor="middle" x="288" y="-116.7" font-family="droid sans,dejavu sans,helvetica" font-size="11.00">lixom.net</text>
<polyline fill="none" stroke="gray" points="198,-109.5 378,-109.5 "/>
<text text-anchor="middle" x="229.5" y="-96.7" font-family="droid sans,dejavu sans,helvetica" font-size="11.00">RSA 4096</text>
<polyline fill="none" stroke="gray" points="261,-89.5 261,-109.5 "/>
<text text-anchor="middle" x="319.5" y="-96.7" font-family="droid sans,dejavu sans,helvetica" font-size="11.00">8C1AE73CDE841C77</text>
</g>
<!-- a_63&#45;&gt;a_259 -->
<g id="edge5" class="edge">
<title>a_63&#45;&gt;a_259</title>
<path fill="none" stroke="black" d="M287.29,-178.34C287.38,-170.04 287.49,-160.65 287.59,-151.75"/>
<polygon fill="black" stroke="black" points="291.1,-151.65 287.71,-141.61 284.1,-151.57 291.1,-151.65"/>
</g>
<!-- a_259&#45;&gt;a_149 -->
<g id="edge6" class="edge">
<title>a_259&#45;&gt;a_149</title>
<path fill="none" stroke="black" d="M316.63,-89.34C327.31,-79.96 339.56,-69.19 350.82,-59.29"/>
<polygon fill="black" stroke="black" points="353.23,-61.84 358.43,-52.61 348.61,-56.58 353.23,-61.84"/>
</g>
<!-- a_111 -->
<g id="node8" class="node">
<title>a_111</title>
<path fill="none" stroke="gray" d="M408.5,-89.5C408.5,-89.5 563.5,-89.5 563.5,-89.5 569.5,-89.5 575.5,-95.5 575.5,-101.5 575.5,-101.5 575.5,-129.5 575.5,-129.5 575.5,-135.5 569.5,-141.5 563.5,-141.5 563.5,-141.5 408.5,-141.5 408.5,-141.5 402.5,-141.5 396.5,-135.5 396.5,-129.5 396.5,-129.5 396.5,-101.5 396.5,-101.5 396.5,-95.5 402.5,-89.5 408.5,-89.5"/>
<text text-anchor="middle" x="486" y="-128.7" font-family="droid sans,dejavu sans,helvetica" font-size="11.00">Linus Walleij</text>
<text text-anchor="middle" x="486" y="-116.7" font-family="droid sans,dejavu sans,helvetica" font-size="11.00">linaro.org</text>
<polyline fill="none" stroke="gray" points="396.5,-109.5 575.5,-109.5 "/>
<text text-anchor="middle" x="428" y="-96.7" font-family="droid sans,dejavu sans,helvetica" font-size="11.00">RSA 4096</text>
<polyline fill="none" stroke="gray" points="459.5,-89.5 459.5,-109.5 "/>
<text text-anchor="middle" x="517.5" y="-96.7" font-family="droid sans,dejavu sans,helvetica" font-size="11.00">4110B337B0195D73</text>
</g>
<!-- a_100&#45;&gt;a_111 -->
<g id="edge8" class="edge">
<title>a_100&#45;&gt;a_111</title>
<path fill="none" stroke="black" d="M485.29,-178.34C485.38,-170.04 485.49,-160.65 485.59,-151.75"/>
<polygon fill="black" stroke="black" points="489.1,-151.65 485.71,-141.61 482.1,-151.57 489.1,-151.65"/>
</g>
<!-- a_111&#45;&gt;a_149 -->
<g id="edge9" class="edge">
<title>a_111&#45;&gt;a_149</title>
<path fill="none" stroke="black" d="M457.37,-89.34C446.69,-79.96 434.44,-69.19 423.18,-59.29"/>
<polygon fill="black" stroke="black" points="425.39,-56.58 415.57,-52.61 420.77,-61.84 425.39,-56.58"/>
</g>
<!-- a_310 -->
<g id="node10" class="node">
<title>a_310</title>
<path fill="none" stroke="gray" d="M605.5,-89.5C605.5,-89.5 760.5,-89.5 760.5,-89.5 766.5,-89.5 772.5,-95.5 772.5,-101.5 772.5,-101.5 772.5,-129.5 772.5,-129.5 772.5,-135.5 766.5,-141.5 760.5,-141.5 760.5,-141.5 605.5,-141.5 605.5,-141.5 599.5,-141.5 593.5,-135.5 593.5,-129.5 593.5,-129.5 593.5,-101.5 593.5,-101.5 593.5,-95.5 599.5,-89.5 605.5,-89.5"/>
<text text-anchor="middle" x="683" y="-128.7" font-family="droid sans,dejavu sans,helvetica" font-size="11.00">Benoit Cousson</text>
<text text-anchor="middle" x="683" y="-116.7" font-family="droid sans,dejavu sans,helvetica" font-size="11.00">baylibre.com</text>
<polyline fill="none" stroke="gray" points="593.5,-109.5 772.5,-109.5 "/>
<text text-anchor="middle" x="625" y="-96.7" font-family="droid sans,dejavu sans,helvetica" font-size="11.00">RSA 4096</text>
<polyline fill="none" stroke="gray" points="656.5,-89.5 656.5,-109.5 "/>
<text text-anchor="middle" x="714.5" y="-96.7" font-family="droid sans,dejavu sans,helvetica" font-size="11.00">AD5BE090C6AF2275</text>
</g>
<!-- a_181&#45;&gt;a_310 -->
<g id="edge11" class="edge">
<title>a_181&#45;&gt;a_310</title>
<path fill="none" stroke="black" d="M683,-178.34C683,-170.04 683,-160.65 683,-151.75"/>
<polygon fill="black" stroke="black" points="686.5,-151.61 683,-141.61 679.5,-151.61 686.5,-151.61"/>
</g>
<!-- a_310&#45;&gt;a_149 -->
<g id="edge12" class="edge">
<title>a_310&#45;&gt;a_149</title>
<path fill="none" stroke="black" d="M597.78,-89.45C561.57,-78.81 519.19,-66.35 481.98,-55.41"/>
<polygon fill="black" stroke="black" points="482.71,-51.98 472.13,-52.52 480.74,-58.7 482.71,-51.98"/>
</g>
</g>
</svg>
