<?xml version="1.0" encoding="UTF-8" standalone="no"?>
<!DOCTYPE svg PUBLIC "-//W3C//DTD SVG 1.1//EN"
 "http://www.w3.org/Graphics/SVG/1.1/DTD/svg11.dtd">
<!-- Generated by graphviz version 14.1.5 (20260411.2331)
 -->
<!-- Title: G Pages: 1 -->
<svg width="578pt" height="456pt"
 viewBox="0.00 0.00 578.00 456.00" xmlns="http://www.w3.org/2000/svg" xmlns:xlink="http://www.w3.org/1999/xlink">
<g id="graph0" class="graph" transform="scale(1 1) rotate(0) translate(4 451.5)">
<title>G</title>
<polygon fill="white" stroke="none" points="-4,4 -4,-451.5 574.12,-451.5 574.12,4 -4,4"/>
<g id="clust1" class="cluster">
<title>cluster_toplevel</title>
<polygon fill="none" stroke="white" points="190.12,-366 190.12,-439.5 382.12,-439.5 382.12,-366 190.12,-366"/>
</g>
<!-- a_22 -->
<g id="node1" class="node">
<title>a_22</title>
<g id="a_node1"><a xlink:href="07D0453A16B73617.svg" xlink:title="{Len Brown\ngmail.com|{RSA 4096|07D0453A16B73617}}">
<path fill="none" stroke="gray" d="M13.37,-281C13.37,-281 166.88,-281 166.88,-281 172.88,-281 178.88,-287 178.88,-293 178.88,-293 178.88,-325.5 178.88,-325.5 178.88,-331.5 172.88,-337.5 166.88,-337.5 166.88,-337.5 13.38,-337.5 13.38,-337.5 7.38,-337.5 1.38,-331.5 1.38,-325.5 1.38,-325.5 1.38,-293 1.38,-293 1.38,-287 7.37,-281 13.37,-281"/>
<text xml:space="preserve" text-anchor="middle" x="90.12" y="-323.05" font-family="droid sans,dejavu sans,helvetica" font-size="11.00">Len Brown</text>
<text xml:space="preserve" text-anchor="middle" x="90.12" y="-309.55" font-family="droid sans,dejavu sans,helvetica" font-size="11.00">gmail.com</text>
<polyline fill="none" stroke="gray" points="1.38,-302.5 178.88,-302.5"/>
<text xml:space="preserve" text-anchor="middle" x="32.62" y="-288.05" font-family="droid sans,dejavu sans,helvetica" font-size="11.00">RSA 4096</text>
<polyline fill="none" stroke="gray" points="63.88,-281 63.88,-302.5"/>
<text xml:space="preserve" text-anchor="middle" x="121.38" y="-288.05" font-family="droid sans,dejavu sans,helvetica" font-size="11.00">07D0453A16B73617</text>
</a>
</g>
</g>
<!-- a_109 -->
<g id="node3" class="node">
<title>a_109</title>
<g id="a_node3"><a xlink:href="29887E377DC2A2B4.svg" xlink:title="{Artem Bityutskiy\ngmail.com|{RSA 4096|29887E377DC2A2B4}}">
<path fill="none" stroke="gray" d="M12,-187.5C12,-187.5 166.25,-187.5 166.25,-187.5 172.25,-187.5 178.25,-193.5 178.25,-199.5 178.25,-199.5 178.25,-232 178.25,-232 178.25,-238 172.25,-244 166.25,-244 166.25,-244 12,-244 12,-244 6,-244 0,-238 0,-232 0,-232 0,-199.5 0,-199.5 0,-193.5 6,-187.5 12,-187.5"/>
<text xml:space="preserve" text-anchor="middle" x="89.12" y="-229.55" font-family="droid sans,dejavu sans,helvetica" font-size="11.00">Artem Bityutskiy</text>
<text xml:space="preserve" text-anchor="middle" x="89.12" y="-216.05" font-family="droid sans,dejavu sans,helvetica" font-size="11.00">gmail.com</text>
<polyline fill="none" stroke="gray" points="0,-209 178.25,-209"/>
<text xml:space="preserve" text-anchor="middle" x="31.25" y="-194.55" font-family="droid sans,dejavu sans,helvetica" font-size="11.00">RSA 4096</text>
<polyline fill="none" stroke="gray" points="62.5,-187.5 62.5,-209"/>
<text xml:space="preserve" text-anchor="middle" x="120.38" y="-194.55" font-family="droid sans,dejavu sans,helvetica" font-size="11.00">29887E377DC2A2B4</text>
</a>
</g>
</g>
<!-- a_22&#45;&gt;a_109 -->
<g id="edge2" class="edge">
<title>a_22&#45;&gt;a_109</title>
<path fill="none" stroke="black" d="M89.82,-280.8C89.74,-273 89.65,-264.35 89.55,-255.99"/>
<polygon fill="black" stroke="black" points="93.05,-255.97 89.44,-246.01 86.05,-256.05 93.05,-255.97"/>
</g>
<!-- a_315 -->
<g id="node2" class="node">
<title>a_315</title>
<g id="a_node2"><a xlink:href="79BE3E4300411886.svg" xlink:title="{Linus Torvalds\nlinux&#45;foundation.org|{RSA 2048|79BE3E4300411886}}">
<path fill="none" stroke="gray" d="M210.5,-374.5C210.5,-374.5 361.75,-374.5 361.75,-374.5 367.75,-374.5 373.75,-380.5 373.75,-386.5 373.75,-386.5 373.75,-419 373.75,-419 373.75,-425 367.75,-431 361.75,-431 361.75,-431 210.5,-431 210.5,-431 204.5,-431 198.5,-425 198.5,-419 198.5,-419 198.5,-386.5 198.5,-386.5 198.5,-380.5 204.5,-374.5 210.5,-374.5"/>
<text xml:space="preserve" text-anchor="middle" x="286.12" y="-416.55" font-family="droid sans,dejavu sans,helvetica" font-size="11.00">Linus Torvalds</text>
<text xml:space="preserve" text-anchor="middle" x="286.12" y="-403.05" font-family="droid sans,dejavu sans,helvetica" font-size="11.00">linux&#45;foundation.org</text>
<polyline fill="none" stroke="gray" points="198.5,-396 373.75,-396"/>
<text xml:space="preserve" text-anchor="middle" x="229.75" y="-381.55" font-family="droid sans,dejavu sans,helvetica" font-size="11.00">RSA 2048</text>
<polyline fill="none" stroke="gray" points="261,-374.5 261,-396"/>
<text xml:space="preserve" text-anchor="middle" x="317.38" y="-381.55" font-family="droid sans,dejavu sans,helvetica" font-size="11.00">79BE3E4300411886</text>
</a>
</g>
</g>
<!-- a_315&#45;&gt;a_22 -->
<g id="edge1" class="edge">
<title>a_315&#45;&gt;a_22</title>
<path fill="none" stroke="black" d="M226.79,-374.05C205.58,-364.15 181.5,-352.91 159.53,-342.65"/>
<polygon fill="black" stroke="black" points="161.17,-339.56 150.63,-338.5 158.21,-345.9 161.17,-339.56"/>
</g>
<!-- a_255 -->
<g id="node6" class="node">
<title>a_255</title>
<g id="a_node6"><a xlink:href="63762CDA67E2F359.svg" xlink:title="{David Woodhouse\ninfradead.org|{RSA 4096|63762CDA67E2F359}}">
<path fill="none" stroke="gray" d="M209.75,-281C209.75,-281 362.5,-281 362.5,-281 368.5,-281 374.5,-287 374.5,-293 374.5,-293 374.5,-325.5 374.5,-325.5 374.5,-331.5 368.5,-337.5 362.5,-337.5 362.5,-337.5 209.75,-337.5 209.75,-337.5 203.75,-337.5 197.75,-331.5 197.75,-325.5 197.75,-325.5 197.75,-293 197.75,-293 197.75,-287 203.75,-281 209.75,-281"/>
<text xml:space="preserve" text-anchor="middle" x="286.12" y="-323.05" font-family="droid sans,dejavu sans,helvetica" font-size="11.00">David Woodhouse</text>
<text xml:space="preserve" text-anchor="middle" x="286.12" y="-309.55" font-family="droid sans,dejavu sans,helvetica" font-size="11.00">infradead.org</text>
<polyline fill="none" stroke="gray" points="197.75,-302.5 374.5,-302.5"/>
<text xml:space="preserve" text-anchor="middle" x="229" y="-288.05" font-family="droid sans,dejavu sans,helvetica" font-size="11.00">RSA 4096</text>
<polyline fill="none" stroke="gray" points="260.25,-281 260.25,-302.5"/>
<text xml:space="preserve" text-anchor="middle" x="317.38" y="-288.05" font-family="droid sans,dejavu sans,helvetica" font-size="11.00">63762CDA67E2F359</text>
</a>
</g>
</g>
<!-- a_315&#45;&gt;a_255 -->
<g id="edge5" class="edge">
<title>a_315&#45;&gt;a_255</title>
<path fill="none" stroke="black" d="M286.12,-374.3C286.12,-366.5 286.12,-357.85 286.12,-349.49"/>
<polygon fill="black" stroke="black" points="289.63,-349.51 286.13,-339.51 282.63,-349.51 289.63,-349.51"/>
</g>
<!-- a_324 -->
<g id="node9" class="node">
<title>a_324</title>
<g id="a_node9"><a xlink:href="7C56ACFE947897D8.svg" xlink:title="{Anibal Monsalve Salazar\ndebian.org|{RSA 4096|7C56ACFE947897D8}}">
<path fill="none" stroke="gray" d="M404.38,-281C404.38,-281 557.88,-281 557.88,-281 563.88,-281 569.88,-287 569.88,-293 569.88,-293 569.88,-325.5 569.88,-325.5 569.88,-331.5 563.88,-337.5 557.88,-337.5 557.88,-337.5 404.38,-337.5 404.38,-337.5 398.38,-337.5 392.38,-331.5 392.38,-325.5 392.38,-325.5 392.38,-293 392.38,-293 392.38,-287 398.38,-281 404.38,-281"/>
<text xml:space="preserve" text-anchor="middle" x="481.12" y="-323.05" font-family="droid sans,dejavu sans,helvetica" font-size="11.00">Anibal Monsalve Salazar</text>
<text xml:space="preserve" text-anchor="middle" x="481.12" y="-309.55" font-family="droid sans,dejavu sans,helvetica" font-size="11.00">debian.org</text>
<polyline fill="none" stroke="gray" points="392.38,-302.5 569.88,-302.5"/>
<text xml:space="preserve" text-anchor="middle" x="423.62" y="-288.05" font-family="droid sans,dejavu sans,helvetica" font-size="11.00">RSA 4096</text>
<polyline fill="none" stroke="gray" points="454.88,-281 454.88,-302.5"/>
<text xml:space="preserve" text-anchor="middle" x="512.38" y="-288.05" font-family="droid sans,dejavu sans,helvetica" font-size="11.00">7C56ACFE947897D8</text>
</a>
</g>
</g>
<!-- a_315&#45;&gt;a_324 -->
<g id="edge9" class="edge">
<title>a_315&#45;&gt;a_324</title>
<path fill="none" stroke="black" d="M345.16,-374.05C366.26,-364.15 390.21,-352.91 412.08,-342.65"/>
<polygon fill="black" stroke="black" points="413.35,-345.92 420.92,-338.5 410.38,-339.58 413.35,-345.92"/>
</g>
<!-- a_420 -->
<g id="node4" class="node">
<title>a_420</title>
<g id="a_node4"><a xlink:href="A1479CA21A3CC5FA.svg" xlink:title="{Luciano Roth Coelho\ncoelho.fi|{RSA 4096|A1479CA21A3CC5FA}}">
<path fill="none" stroke="gray" d="M12.62,-94C12.62,-94 167.62,-94 167.62,-94 173.62,-94 179.62,-100 179.62,-106 179.62,-106 179.62,-138.5 179.62,-138.5 179.62,-144.5 173.62,-150.5 167.62,-150.5 167.62,-150.5 12.62,-150.5 12.62,-150.5 6.62,-150.5 0.62,-144.5 0.62,-138.5 0.62,-138.5 0.62,-106 0.62,-106 0.62,-100 6.62,-94 12.62,-94"/>
<text xml:space="preserve" text-anchor="middle" x="90.12" y="-136.05" font-family="droid sans,dejavu sans,helvetica" font-size="11.00">Luciano Roth Coelho</text>
<text xml:space="preserve" text-anchor="middle" x="90.12" y="-122.55" font-family="droid sans,dejavu sans,helvetica" font-size="11.00">coelho.fi</text>
<polyline fill="none" stroke="gray" points="0.62,-115.5 179.62,-115.5"/>
<text xml:space="preserve" text-anchor="middle" x="31.88" y="-101.05" font-family="droid sans,dejavu sans,helvetica" font-size="11.00">RSA 4096</text>
<polyline fill="none" stroke="gray" points="63.12,-94 63.12,-115.5"/>
<text xml:space="preserve" text-anchor="middle" x="121.38" y="-101.05" font-family="droid sans,dejavu sans,helvetica" font-size="11.00">A1479CA21A3CC5FA</text>
</a>
</g>
</g>
<!-- a_109&#45;&gt;a_420 -->
<g id="edge3" class="edge">
<title>a_109&#45;&gt;a_420</title>
<path fill="none" stroke="black" d="M89.43,-187.3C89.51,-179.5 89.6,-170.85 89.7,-162.49"/>
<polygon fill="black" stroke="black" points="93.2,-162.55 89.81,-152.51 86.2,-162.47 93.2,-162.55"/>
</g>
<!-- a_290 -->
<g id="node5" class="node">
<title>a_290</title>
<g id="a_node5"><a xlink:href="6E17245526EB6D9B.svg" xlink:title="{Kalle Valo\niki.fi|{RSA 2048|6E17245526EB6D9B}}">
<path fill="none" stroke="gray" d="M209.38,-0.5C209.38,-0.5 362.88,-0.5 362.88,-0.5 368.88,-0.5 374.88,-6.5 374.88,-12.5 374.88,-12.5 374.88,-45 374.88,-45 374.88,-51 368.88,-57 362.88,-57 362.88,-57 209.38,-57 209.38,-57 203.38,-57 197.38,-51 197.38,-45 197.38,-45 197.38,-12.5 197.38,-12.5 197.38,-6.5 203.38,-0.5 209.38,-0.5"/>
<text xml:space="preserve" text-anchor="middle" x="286.12" y="-42.55" font-family="droid sans,dejavu sans,helvetica" font-size="11.00">Kalle Valo</text>
<text xml:space="preserve" text-anchor="middle" x="286.12" y="-29.05" font-family="droid sans,dejavu sans,helvetica" font-size="11.00">iki.fi</text>
<polyline fill="none" stroke="gray" points="197.38,-22 374.88,-22"/>
<text xml:space="preserve" text-anchor="middle" x="228.62" y="-7.55" font-family="droid sans,dejavu sans,helvetica" font-size="11.00">RSA 2048</text>
<polyline fill="none" stroke="gray" points="259.88,-0.5 259.88,-22"/>
<text xml:space="preserve" text-anchor="middle" x="317.38" y="-7.55" font-family="droid sans,dejavu sans,helvetica" font-size="11.00">6E17245526EB6D9B</text>
</a>
</g>
</g>
<!-- a_420&#45;&gt;a_290 -->
<g id="edge4" class="edge">
<title>a_420&#45;&gt;a_290</title>
<path fill="none" stroke="black" d="M149.46,-93.55C170.67,-83.65 194.75,-72.41 216.72,-62.15"/>
<polygon fill="black" stroke="black" points="218.04,-65.4 225.62,-58 215.08,-59.06 218.04,-65.4"/>
</g>
<!-- a_230 -->
<g id="node7" class="node">
<title>a_230</title>
<g id="a_node7"><a xlink:href="587C5ECA5D0A306C.svg" xlink:title="{Daniel Wagner\nmonom.org|{RSA 4096|587C5ECA5D0A306C}}">
<path fill="none" stroke="gray" d="M208.25,-187.5C208.25,-187.5 364,-187.5 364,-187.5 370,-187.5 376,-193.5 376,-199.5 376,-199.5 376,-232 376,-232 376,-238 370,-244 364,-244 364,-244 208.25,-244 208.25,-244 202.25,-244 196.25,-238 196.25,-232 196.25,-232 196.25,-199.5 196.25,-199.5 196.25,-193.5 202.25,-187.5 208.25,-187.5"/>
<text xml:space="preserve" text-anchor="middle" x="286.12" y="-229.55" font-family="droid sans,dejavu sans,helvetica" font-size="11.00">Daniel Wagner</text>
<text xml:space="preserve" text-anchor="middle" x="286.12" y="-216.05" font-family="droid sans,dejavu sans,helvetica" font-size="11.00">monom.org</text>
<polyline fill="none" stroke="gray" points="196.25,-209 376,-209"/>
<text xml:space="preserve" text-anchor="middle" x="227.5" y="-194.55" font-family="droid sans,dejavu sans,helvetica" font-size="11.00">RSA 4096</text>
<polyline fill="none" stroke="gray" points="258.75,-187.5 258.75,-209"/>
<text xml:space="preserve" text-anchor="middle" x="317.38" y="-194.55" font-family="droid sans,dejavu sans,helvetica" font-size="11.00">587C5ECA5D0A306C</text>
</a>
</g>
</g>
<!-- a_255&#45;&gt;a_230 -->
<g id="edge6" class="edge">
<title>a_255&#45;&gt;a_230</title>
<path fill="none" stroke="black" d="M286.12,-280.8C286.12,-273 286.12,-264.35 286.12,-255.99"/>
<polygon fill="black" stroke="black" points="289.63,-256.01 286.13,-246.01 282.63,-256.01 289.63,-256.01"/>
</g>
<!-- a_99 -->
<g id="node8" class="node">
<title>a_99</title>
<g id="a_node8"><a xlink:href="2423F6FBF9A8D412.svg" xlink:title="{Johan Hedberg\nintel.com|{RSA 4096|2423F6FBF9A8D412}}">
<path fill="none" stroke="gray" d="M210.5,-94C210.5,-94 361.75,-94 361.75,-94 367.75,-94 373.75,-100 373.75,-106 373.75,-106 373.75,-138.5 373.75,-138.5 373.75,-144.5 367.75,-150.5 361.75,-150.5 361.75,-150.5 210.5,-150.5 210.5,-150.5 204.5,-150.5 198.5,-144.5 198.5,-138.5 198.5,-138.5 198.5,-106 198.5,-106 198.5,-100 204.5,-94 210.5,-94"/>
<text xml:space="preserve" text-anchor="middle" x="286.12" y="-136.05" font-family="droid sans,dejavu sans,helvetica" font-size="11.00">Johan Hedberg</text>
<text xml:space="preserve" text-anchor="middle" x="286.12" y="-122.55" font-family="droid sans,dejavu sans,helvetica" font-size="11.00">intel.com</text>
<polyline fill="none" stroke="gray" points="198.5,-115.5 373.75,-115.5"/>
<text xml:space="preserve" text-anchor="middle" x="229.75" y="-101.05" font-family="droid sans,dejavu sans,helvetica" font-size="11.00">RSA 4096</text>
<polyline fill="none" stroke="gray" points="261,-94 261,-115.5"/>
<text xml:space="preserve" text-anchor="middle" x="317.38" y="-101.05" font-family="droid sans,dejavu sans,helvetica" font-size="11.00">2423F6FBF9A8D412</text>
</a>
</g>
</g>
<!-- a_230&#45;&gt;a_99 -->
<g id="edge7" class="edge">
<title>a_230&#45;&gt;a_99</title>
<path fill="none" stroke="black" d="M286.12,-187.3C286.12,-179.5 286.12,-170.85 286.12,-162.49"/>
<polygon fill="black" stroke="black" points="289.63,-162.51 286.13,-152.51 282.63,-162.51 289.63,-162.51"/>
</g>
<!-- a_99&#45;&gt;a_290 -->
<g id="edge8" class="edge">
<title>a_99&#45;&gt;a_290</title>
<path fill="none" stroke="black" d="M286.12,-93.8C286.12,-86 286.12,-77.35 286.12,-68.99"/>
<polygon fill="black" stroke="black" points="289.63,-69.01 286.13,-59.01 282.63,-69.01 289.63,-69.01"/>
</g>
<!-- a_579 -->
<g id="node10" class="node">
<title>a_579</title>
<g id="a_node10"><a xlink:href="E7BFC8EC95861109.svg" xlink:title="{Ben Hutchings\nkernel.org|{RSA 4096|E7BFC8EC95861109}}">
<path fill="none" stroke="gray" d="M406.12,-187.5C406.12,-187.5 558.12,-187.5 558.12,-187.5 564.12,-187.5 570.12,-193.5 570.12,-199.5 570.12,-199.5 570.12,-232 570.12,-232 570.12,-238 564.12,-244 558.12,-244 558.12,-244 406.12,-244 406.12,-244 400.12,-244 394.12,-238 394.12,-232 394.12,-232 394.12,-199.5 394.12,-199.5 394.12,-193.5 400.12,-187.5 406.12,-187.5"/>
<text xml:space="preserve" text-anchor="middle" x="482.12" y="-229.55" font-family="droid sans,dejavu sans,helvetica" font-size="11.00">Ben Hutchings</text>
<text xml:space="preserve" text-anchor="middle" x="482.12" y="-216.05" font-family="droid sans,dejavu sans,helvetica" font-size="11.00">kernel.org</text>
<polyline fill="none" stroke="gray" points="394.12,-209 570.12,-209"/>
<text xml:space="preserve" text-anchor="middle" x="425.38" y="-194.55" font-family="droid sans,dejavu sans,helvetica" font-size="11.00">RSA 4096</text>
<polyline fill="none" stroke="gray" points="456.62,-187.5 456.62,-209"/>
<text xml:space="preserve" text-anchor="middle" x="513.38" y="-194.55" font-family="droid sans,dejavu sans,helvetica" font-size="11.00">E7BFC8EC95861109</text>
</a>
</g>
</g>
<!-- a_324&#45;&gt;a_579 -->
<g id="edge10" class="edge">
<title>a_324&#45;&gt;a_579</title>
<path fill="none" stroke="black" d="M481.43,-280.8C481.51,-273 481.6,-264.35 481.7,-255.99"/>
<polygon fill="black" stroke="black" points="485.2,-256.05 481.81,-246.01 478.2,-255.97 485.2,-256.05"/>
</g>
<!-- a_562 -->
<g id="node11" class="node">
<title>a_562</title>
<g id="a_node11"><a xlink:href="E0F373F37BF9099A.svg" xlink:title="{Johannes Berg\nsipsolutions.net|{RSA 4096|E0F373F37BF9099A}}">
<path fill="none" stroke="gray" d="M405.25,-94C405.25,-94 555,-94 555,-94 561,-94 567,-100 567,-106 567,-106 567,-138.5 567,-138.5 567,-144.5 561,-150.5 555,-150.5 555,-150.5 405.25,-150.5 405.25,-150.5 399.25,-150.5 393.25,-144.5 393.25,-138.5 393.25,-138.5 393.25,-106 393.25,-106 393.25,-100 399.25,-94 405.25,-94"/>
<text xml:space="preserve" text-anchor="middle" x="480.12" y="-136.05" font-family="droid sans,dejavu sans,helvetica" font-size="11.00">Johannes Berg</text>
<text xml:space="preserve" text-anchor="middle" x="480.12" y="-122.55" font-family="droid sans,dejavu sans,helvetica" font-size="11.00">sipsolutions.net</text>
<polyline fill="none" stroke="gray" points="393.25,-115.5 567,-115.5"/>
<text xml:space="preserve" text-anchor="middle" x="424.5" y="-101.05" font-family="droid sans,dejavu sans,helvetica" font-size="11.00">RSA 4096</text>
<polyline fill="none" stroke="gray" points="455.75,-94 455.75,-115.5"/>
<text xml:space="preserve" text-anchor="middle" x="511.38" y="-101.05" font-family="droid sans,dejavu sans,helvetica" font-size="11.00">E0F373F37BF9099A</text>
</a>
</g>
</g>
<!-- a_579&#45;&gt;a_562 -->
<g id="edge11" class="edge">
<title>a_579&#45;&gt;a_562</title>
<path fill="none" stroke="black" d="M481.52,-187.3C481.35,-179.5 481.17,-170.85 480.98,-162.49"/>
<polygon fill="black" stroke="black" points="484.48,-162.43 480.76,-152.51 477.48,-162.59 484.48,-162.43"/>
</g>
<!-- a_562&#45;&gt;a_290 -->
<g id="edge12" class="edge">
<title>a_562&#45;&gt;a_290</title>
<path fill="none" stroke="black" d="M421.39,-93.55C400.4,-83.65 376.57,-72.41 354.82,-62.15"/>
<polygon fill="black" stroke="black" points="356.56,-59.1 346.03,-58 353.58,-65.43 356.56,-59.1"/>
</g>
</g>
</svg>
