<?xml version="1.0" encoding="UTF-8" standalone="no"?>
<!DOCTYPE svg PUBLIC "-//W3C//DTD SVG 1.1//EN"
 "http://www.w3.org/Graphics/SVG/1.1/DTD/svg11.dtd">
<!-- Generated by graphviz version 2.44.0 (0)
 -->
<!-- Title: G Pages: 1 -->
<svg width="784pt" height="255pt"
 viewBox="0.00 0.00 783.50 255.00" xmlns="http://www.w3.org/2000/svg" xmlns:xlink="http://www.w3.org/1999/xlink">
<g id="graph0" class="graph" transform="scale(1 1) rotate(0) translate(4 251)">
<title>G</title>
<polygon fill="white" stroke="transparent" points="-4,4 -4,-251 779.5,-251 779.5,4 -4,4"/>
<g id="clust1" class="cluster">
<title>cluster_toplevel</title>
<polygon fill="none" stroke="white" points="294,-170 294,-239 486,-239 486,-170 294,-170"/>
</g>
<!-- a_86 -->
<g id="node1" class="node">
<title>a_86</title>
<path fill="none" stroke="gray" d="M12,-89.5C12,-89.5 170,-89.5 170,-89.5 176,-89.5 182,-95.5 182,-101.5 182,-101.5 182,-129.5 182,-129.5 182,-135.5 176,-141.5 170,-141.5 170,-141.5 12,-141.5 12,-141.5 6,-141.5 0,-135.5 0,-129.5 0,-129.5 0,-101.5 0,-101.5 0,-95.5 6,-89.5 12,-89.5"/>
<text text-anchor="middle" x="91" y="-128.7" font-family="droid sans,dejavu sans,helvetica" font-size="11.00">John Hawley</text>
<text text-anchor="middle" x="91" y="-116.7" font-family="droid sans,dejavu sans,helvetica" font-size="11.00">eaglescrag.net</text>
<polyline fill="none" stroke="gray" points="0,-109.5 182,-109.5 "/>
<text text-anchor="middle" x="31.5" y="-96.7" font-family="droid sans,dejavu sans,helvetica" font-size="11.00">RSA 4096</text>
<polyline fill="none" stroke="gray" points="63,-89.5 63,-109.5 "/>
<text text-anchor="middle" x="122.5" y="-96.7" font-family="droid sans,dejavu sans,helvetica" font-size="11.00">2EA76B9C2B466D9D</text>
</g>
<!-- a_329 -->
<g id="node3" class="node">
<title>a_329</title>
<path fill="none" stroke="gray" d="M312.5,-0.5C312.5,-0.5 467.5,-0.5 467.5,-0.5 473.5,-0.5 479.5,-6.5 479.5,-12.5 479.5,-12.5 479.5,-40.5 479.5,-40.5 479.5,-46.5 473.5,-52.5 467.5,-52.5 467.5,-52.5 312.5,-52.5 312.5,-52.5 306.5,-52.5 300.5,-46.5 300.5,-40.5 300.5,-40.5 300.5,-12.5 300.5,-12.5 300.5,-6.5 306.5,-0.5 312.5,-0.5"/>
<text text-anchor="middle" x="390" y="-39.7" font-family="droid sans,dejavu sans,helvetica" font-size="11.00">Jiri Slaby</text>
<text text-anchor="middle" x="390" y="-27.7" font-family="droid sans,dejavu sans,helvetica" font-size="11.00">gmail.com</text>
<polyline fill="none" stroke="gray" points="300.5,-20.5 479.5,-20.5 "/>
<text text-anchor="middle" x="332" y="-7.7" font-family="droid sans,dejavu sans,helvetica" font-size="11.00">RSA 4096</text>
<polyline fill="none" stroke="gray" points="363.5,-0.5 363.5,-20.5 "/>
<text text-anchor="middle" x="421.5" y="-7.7" font-family="droid sans,dejavu sans,helvetica" font-size="11.00">BD25B10406B47049</text>
</g>
<!-- a_86&#45;&gt;a_329 -->
<g id="edge2" class="edge">
<title>a_86&#45;&gt;a_329</title>
<path fill="none" stroke="black" d="M177.08,-89.45C213.67,-78.81 256.47,-66.35 294.06,-55.41"/>
<polygon fill="black" stroke="black" points="295.38,-58.68 304.01,-52.52 293.43,-51.95 295.38,-58.68"/>
</g>
<!-- a_217 -->
<g id="node2" class="node">
<title>a_217</title>
<path fill="none" stroke="gray" d="M314,-178.5C314,-178.5 466,-178.5 466,-178.5 472,-178.5 478,-184.5 478,-190.5 478,-190.5 478,-218.5 478,-218.5 478,-224.5 472,-230.5 466,-230.5 466,-230.5 314,-230.5 314,-230.5 308,-230.5 302,-224.5 302,-218.5 302,-218.5 302,-190.5 302,-190.5 302,-184.5 308,-178.5 314,-178.5"/>
<text text-anchor="middle" x="390" y="-217.7" font-family="droid sans,dejavu sans,helvetica" font-size="11.00">Linus Torvalds</text>
<text text-anchor="middle" x="390" y="-205.7" font-family="droid sans,dejavu sans,helvetica" font-size="11.00">kernel.org</text>
<polyline fill="none" stroke="gray" points="302,-198.5 478,-198.5 "/>
<text text-anchor="middle" x="333.5" y="-185.7" font-family="droid sans,dejavu sans,helvetica" font-size="11.00">RSA 2048</text>
<polyline fill="none" stroke="gray" points="365,-178.5 365,-198.5 "/>
<text text-anchor="middle" x="421.5" y="-185.7" font-family="droid sans,dejavu sans,helvetica" font-size="11.00">79BE3E4300411886</text>
</g>
<!-- a_217&#45;&gt;a_86 -->
<g id="edge1" class="edge">
<title>a_217&#45;&gt;a_86</title>
<path fill="none" stroke="black" d="M303.92,-178.45C267.33,-167.81 224.53,-155.35 186.94,-144.41"/>
<polygon fill="black" stroke="black" points="187.57,-140.95 176.99,-141.52 185.62,-147.68 187.57,-140.95"/>
</g>
<!-- a_100 -->
<g id="node4" class="node">
<title>a_100</title>
<path fill="none" stroke="gray" d="M212.5,-89.5C212.5,-89.5 369.5,-89.5 369.5,-89.5 375.5,-89.5 381.5,-95.5 381.5,-101.5 381.5,-101.5 381.5,-129.5 381.5,-129.5 381.5,-135.5 375.5,-141.5 369.5,-141.5 369.5,-141.5 212.5,-141.5 212.5,-141.5 206.5,-141.5 200.5,-135.5 200.5,-129.5 200.5,-129.5 200.5,-101.5 200.5,-101.5 200.5,-95.5 206.5,-89.5 212.5,-89.5"/>
<text text-anchor="middle" x="291" y="-128.7" font-family="droid sans,dejavu sans,helvetica" font-size="11.00">Greg Kroah&#45;Hartman</text>
<text text-anchor="middle" x="291" y="-116.7" font-family="droid sans,dejavu sans,helvetica" font-size="11.00">linuxfoundation.org</text>
<polyline fill="none" stroke="gray" points="200.5,-109.5 381.5,-109.5 "/>
<text text-anchor="middle" x="232" y="-96.7" font-family="droid sans,dejavu sans,helvetica" font-size="11.00">RSA 4096</text>
<polyline fill="none" stroke="gray" points="263.5,-89.5 263.5,-109.5 "/>
<text text-anchor="middle" x="322.5" y="-96.7" font-family="droid sans,dejavu sans,helvetica" font-size="11.00">38DBBDC86092693E</text>
</g>
<!-- a_217&#45;&gt;a_100 -->
<g id="edge3" class="edge">
<title>a_217&#45;&gt;a_100</title>
<path fill="none" stroke="black" d="M361.37,-178.34C350.69,-168.96 338.44,-158.19 327.18,-148.29"/>
<polygon fill="black" stroke="black" points="329.39,-145.58 319.57,-141.61 324.77,-150.84 329.39,-145.58"/>
</g>
<!-- a_227 -->
<g id="node5" class="node">
<title>a_227</title>
<path fill="none" stroke="gray" d="M412,-89.5C412,-89.5 566,-89.5 566,-89.5 572,-89.5 578,-95.5 578,-101.5 578,-101.5 578,-129.5 578,-129.5 578,-135.5 572,-141.5 566,-141.5 566,-141.5 412,-141.5 412,-141.5 406,-141.5 400,-135.5 400,-129.5 400,-129.5 400,-101.5 400,-101.5 400,-95.5 406,-89.5 412,-89.5"/>
<text text-anchor="middle" x="489" y="-128.7" font-family="droid sans,dejavu sans,helvetica" font-size="11.00">Mel Gorman</text>
<text text-anchor="middle" x="489" y="-116.7" font-family="droid sans,dejavu sans,helvetica" font-size="11.00">techsingularity.net</text>
<polyline fill="none" stroke="gray" points="400,-109.5 578,-109.5 "/>
<text text-anchor="middle" x="431.5" y="-96.7" font-family="droid sans,dejavu sans,helvetica" font-size="11.00">RSA 4096</text>
<polyline fill="none" stroke="gray" points="463,-89.5 463,-109.5 "/>
<text text-anchor="middle" x="520.5" y="-96.7" font-family="droid sans,dejavu sans,helvetica" font-size="11.00">7CC6FC3344B247E2</text>
</g>
<!-- a_217&#45;&gt;a_227 -->
<g id="edge5" class="edge">
<title>a_217&#45;&gt;a_227</title>
<path fill="none" stroke="black" d="M418.63,-178.34C429.31,-168.96 441.56,-158.19 452.82,-148.29"/>
<polygon fill="black" stroke="black" points="455.23,-150.84 460.43,-141.61 450.61,-145.58 455.23,-150.84"/>
</g>
<!-- a_237 -->
<g id="node6" class="node">
<title>a_237</title>
<path fill="none" stroke="gray" d="M608.5,-89.5C608.5,-89.5 763.5,-89.5 763.5,-89.5 769.5,-89.5 775.5,-95.5 775.5,-101.5 775.5,-101.5 775.5,-129.5 775.5,-129.5 775.5,-135.5 769.5,-141.5 763.5,-141.5 763.5,-141.5 608.5,-141.5 608.5,-141.5 602.5,-141.5 596.5,-135.5 596.5,-129.5 596.5,-129.5 596.5,-101.5 596.5,-101.5 596.5,-95.5 602.5,-89.5 608.5,-89.5"/>
<text text-anchor="middle" x="686" y="-128.7" font-family="droid sans,dejavu sans,helvetica" font-size="11.00">James Bottomley</text>
<text text-anchor="middle" x="686" y="-116.7" font-family="droid sans,dejavu sans,helvetica" font-size="11.00">HansenPartnership.com</text>
<polyline fill="none" stroke="gray" points="596.5,-109.5 775.5,-109.5 "/>
<text text-anchor="middle" x="628" y="-96.7" font-family="droid sans,dejavu sans,helvetica" font-size="11.00">RSA 2048</text>
<polyline fill="none" stroke="gray" points="659.5,-89.5 659.5,-109.5 "/>
<text text-anchor="middle" x="717.5" y="-96.7" font-family="droid sans,dejavu sans,helvetica" font-size="11.00">814AE47C214854D6</text>
</g>
<!-- a_217&#45;&gt;a_237 -->
<g id="edge7" class="edge">
<title>a_217&#45;&gt;a_237</title>
<path fill="none" stroke="black" d="M475.22,-178.45C511.43,-167.81 553.81,-155.35 591.02,-144.41"/>
<polygon fill="black" stroke="black" points="592.26,-147.7 600.87,-141.52 590.29,-140.98 592.26,-147.7"/>
</g>
<!-- a_100&#45;&gt;a_329 -->
<g id="edge4" class="edge">
<title>a_100&#45;&gt;a_329</title>
<path fill="none" stroke="black" d="M319.63,-89.34C330.31,-79.96 342.56,-69.19 353.82,-59.29"/>
<polygon fill="black" stroke="black" points="356.23,-61.84 361.43,-52.61 351.61,-56.58 356.23,-61.84"/>
</g>
<!-- a_227&#45;&gt;a_329 -->
<g id="edge6" class="edge">
<title>a_227&#45;&gt;a_329</title>
<path fill="none" stroke="black" d="M460.37,-89.34C449.69,-79.96 437.44,-69.19 426.18,-59.29"/>
<polygon fill="black" stroke="black" points="428.39,-56.58 418.57,-52.61 423.77,-61.84 428.39,-56.58"/>
</g>
<!-- a_237&#45;&gt;a_329 -->
<g id="edge8" class="edge">
<title>a_237&#45;&gt;a_329</title>
<path fill="none" stroke="black" d="M600.78,-89.45C564.57,-78.81 522.19,-66.35 484.98,-55.41"/>
<polygon fill="black" stroke="black" points="485.71,-51.98 475.13,-52.52 483.74,-58.7 485.71,-51.98"/>
</g>
</g>
</svg>
