<?xml version="1.0" encoding="UTF-8" standalone="no"?>
<!DOCTYPE svg PUBLIC "-//W3C//DTD SVG 1.1//EN"
 "http://www.w3.org/Graphics/SVG/1.1/DTD/svg11.dtd">
<!-- Generated by graphviz version 2.40.1 (0)
 -->
<!-- Title: G Pages: 1 -->
<svg width="784pt" height="433pt"
 viewBox="0.00 0.00 784.00 433.00" xmlns="http://www.w3.org/2000/svg" xmlns:xlink="http://www.w3.org/1999/xlink">
<g id="graph0" class="graph" transform="scale(1 1) rotate(0) translate(4 429)">
<title>G</title>
<polygon fill="#ffffff" stroke="transparent" points="-4,4 -4,-429 780,-429 780,4 -4,4"/>
<g id="clust1" class="cluster">
<title>cluster_toplevel</title>
<polygon fill="none" stroke="#ffffff" points="291.5,-348 291.5,-417 483.5,-417 483.5,-348 291.5,-348"/>
</g>
<!-- a_103 -->
<g id="node1" class="node">
<title>a_103</title>
<path fill="none" stroke="#c0c0c0" d="M12,-267.5C12,-267.5 169,-267.5 169,-267.5 175,-267.5 181,-273.5 181,-279.5 181,-279.5 181,-307.5 181,-307.5 181,-313.5 175,-319.5 169,-319.5 169,-319.5 12,-319.5 12,-319.5 6,-319.5 0,-313.5 0,-307.5 0,-307.5 0,-279.5 0,-279.5 0,-273.5 6,-267.5 12,-267.5"/>
<text text-anchor="middle" x="90.5" y="-306.7" font-family="droid sans,dejavu sans,helvetica" font-size="11.00" fill="#000000">Greg Kroah&#45;Hartman</text>
<text text-anchor="middle" x="90.5" y="-294.7" font-family="droid sans,dejavu sans,helvetica" font-size="11.00" fill="#000000">linuxfoundation.org</text>
<polyline fill="none" stroke="#c0c0c0" points="0,-287.5 181,-287.5 "/>
<text text-anchor="middle" x="31.5" y="-274.7" font-family="droid sans,dejavu sans,helvetica" font-size="11.00" fill="#000000">RSA 4096</text>
<polyline fill="none" stroke="#c0c0c0" points="63,-267.5 63,-287.5 "/>
<text text-anchor="middle" x="122" y="-274.7" font-family="droid sans,dejavu sans,helvetica" font-size="11.00" fill="#000000">38DBBDC86092693E</text>
</g>
<!-- a_379 -->
<g id="node3" class="node">
<title>a_379</title>
<path fill="none" stroke="#c0c0c0" d="M309,-.5C309,-.5 464,-.5 464,-.5 470,-.5 476,-6.5 476,-12.5 476,-12.5 476,-40.5 476,-40.5 476,-46.5 470,-52.5 464,-52.5 464,-52.5 309,-52.5 309,-52.5 303,-52.5 297,-46.5 297,-40.5 297,-40.5 297,-12.5 297,-12.5 297,-6.5 303,-.5 309,-.5"/>
<text text-anchor="middle" x="386.5" y="-39.7" font-family="droid sans,dejavu sans,helvetica" font-size="11.00" fill="#000000">Chen&#45;Yu Tsai</text>
<text text-anchor="middle" x="386.5" y="-27.7" font-family="droid sans,dejavu sans,helvetica" font-size="11.00" fill="#000000">csie.org</text>
<polyline fill="none" stroke="#c0c0c0" points="297,-20.5 476,-20.5 "/>
<text text-anchor="middle" x="328.5" y="-7.7" font-family="droid sans,dejavu sans,helvetica" font-size="11.00" fill="#000000">RSA 4096</text>
<polyline fill="none" stroke="#c0c0c0" points="360,-.5 360,-20.5 "/>
<text text-anchor="middle" x="418" y="-7.7" font-family="droid sans,dejavu sans,helvetica" font-size="11.00" fill="#000000">C94035C21B4F2AEB</text>
</g>
<!-- a_103&#45;&gt;a_379 -->
<g id="edge2" class="edge">
<title>a_103&#45;&gt;a_379</title>
<path fill="none" stroke="#000000" d="M96.33,-267.4723C107.366,-224.1703 135.3989,-137.3288 191.5,-89 218.3435,-65.8755 253.8402,-51.2835 287.1844,-42.0853"/>
<polygon fill="#000000" stroke="#000000" points="288.1999,-45.4375 296.9855,-39.516 286.4248,-38.6662 288.1999,-45.4375"/>
</g>
<!-- a_321 -->
<g id="node2" class="node">
<title>a_321</title>
<path fill="none" stroke="#c0c0c0" d="M311.5,-356.5C311.5,-356.5 463.5,-356.5 463.5,-356.5 469.5,-356.5 475.5,-362.5 475.5,-368.5 475.5,-368.5 475.5,-396.5 475.5,-396.5 475.5,-402.5 469.5,-408.5 463.5,-408.5 463.5,-408.5 311.5,-408.5 311.5,-408.5 305.5,-408.5 299.5,-402.5 299.5,-396.5 299.5,-396.5 299.5,-368.5 299.5,-368.5 299.5,-362.5 305.5,-356.5 311.5,-356.5"/>
<text text-anchor="middle" x="387.5" y="-395.7" font-family="droid sans,dejavu sans,helvetica" font-size="11.00" fill="#000000">Linus Torvalds</text>
<text text-anchor="middle" x="387.5" y="-383.7" font-family="droid sans,dejavu sans,helvetica" font-size="11.00" fill="#000000">kernel.org</text>
<polyline fill="none" stroke="#c0c0c0" points="299.5,-376.5 475.5,-376.5 "/>
<text text-anchor="middle" x="331" y="-363.7" font-family="droid sans,dejavu sans,helvetica" font-size="11.00" fill="#000000">RSA 2048</text>
<polyline fill="none" stroke="#c0c0c0" points="362.5,-356.5 362.5,-376.5 "/>
<text text-anchor="middle" x="419" y="-363.7" font-family="droid sans,dejavu sans,helvetica" font-size="11.00" fill="#000000">79BE3E4300411886</text>
</g>
<!-- a_321&#45;&gt;a_103 -->
<g id="edge1" class="edge">
<title>a_321&#45;&gt;a_103</title>
<path fill="none" stroke="#000000" d="M300.397,-356.3984C264.8085,-345.7339 223.51,-333.3582 187.008,-322.4199"/>
<polygon fill="#000000" stroke="#000000" points="187.9287,-319.0421 177.3448,-319.5242 185.9193,-325.7475 187.9287,-319.0421"/>
</g>
<!-- a_9 -->
<g id="node4" class="node">
<title>a_9</title>
<path fill="none" stroke="#c0c0c0" d="M211,-267.5C211,-267.5 366,-267.5 366,-267.5 372,-267.5 378,-273.5 378,-279.5 378,-279.5 378,-307.5 378,-307.5 378,-313.5 372,-319.5 366,-319.5 366,-319.5 211,-319.5 211,-319.5 205,-319.5 199,-313.5 199,-307.5 199,-307.5 199,-279.5 199,-279.5 199,-273.5 205,-267.5 211,-267.5"/>
<text text-anchor="middle" x="288.5" y="-306.7" font-family="droid sans,dejavu sans,helvetica" font-size="11.00" fill="#000000">Andi Kleen</text>
<text text-anchor="middle" x="288.5" y="-294.7" font-family="droid sans,dejavu sans,helvetica" font-size="11.00" fill="#000000">linux.intel.com</text>
<polyline fill="none" stroke="#c0c0c0" points="199,-287.5 378,-287.5 "/>
<text text-anchor="middle" x="230.5" y="-274.7" font-family="droid sans,dejavu sans,helvetica" font-size="11.00" fill="#000000">RSA 2048</text>
<polyline fill="none" stroke="#c0c0c0" points="262,-267.5 262,-287.5 "/>
<text text-anchor="middle" x="320" y="-274.7" font-family="droid sans,dejavu sans,helvetica" font-size="11.00" fill="#000000">C0ADFFFAB1FB1C18</text>
</g>
<!-- a_321&#45;&gt;a_9 -->
<g id="edge3" class="edge">
<title>a_321&#45;&gt;a_9</title>
<path fill="none" stroke="#000000" d="M358.3322,-356.2784C347.8589,-346.8631 335.9158,-336.1264 324.9043,-326.2271"/>
<polygon fill="#000000" stroke="#000000" points="327.236,-323.6168 317.4593,-319.5341 322.5561,-328.8225 327.236,-323.6168"/>
</g>
<!-- a_72 -->
<g id="node7" class="node">
<title>a_72</title>
<path fill="none" stroke="#c0c0c0" d="M408,-267.5C408,-267.5 565,-267.5 565,-267.5 571,-267.5 577,-273.5 577,-279.5 577,-279.5 577,-307.5 577,-307.5 577,-313.5 571,-319.5 565,-319.5 565,-319.5 408,-319.5 408,-319.5 402,-319.5 396,-313.5 396,-307.5 396,-307.5 396,-279.5 396,-279.5 396,-273.5 402,-267.5 408,-267.5"/>
<text text-anchor="middle" x="486.5" y="-306.7" font-family="droid sans,dejavu sans,helvetica" font-size="11.00" fill="#000000">David Howells</text>
<text text-anchor="middle" x="486.5" y="-294.7" font-family="droid sans,dejavu sans,helvetica" font-size="11.00" fill="#000000">redhat.com</text>
<polyline fill="none" stroke="#c0c0c0" points="396,-287.5 577,-287.5 "/>
<text text-anchor="middle" x="427.5" y="-274.7" font-family="droid sans,dejavu sans,helvetica" font-size="11.00" fill="#000000">RSA 4096</text>
<polyline fill="none" stroke="#c0c0c0" points="459,-267.5 459,-287.5 "/>
<text text-anchor="middle" x="518" y="-274.7" font-family="droid sans,dejavu sans,helvetica" font-size="11.00" fill="#000000">FBB7576BA7CB0B6B</text>
</g>
<!-- a_321&#45;&gt;a_72 -->
<g id="edge7" class="edge">
<title>a_321&#45;&gt;a_72</title>
<path fill="none" stroke="#000000" d="M416.6678,-356.2784C427.1411,-346.8631 439.0842,-336.1264 450.0957,-326.2271"/>
<polygon fill="#000000" stroke="#000000" points="452.4439,-328.8225 457.5407,-319.5341 447.764,-323.6168 452.4439,-328.8225"/>
</g>
<!-- a_117 -->
<g id="node10" class="node">
<title>a_117</title>
<path fill="none" stroke="#c0c0c0" d="M607,-267.5C607,-267.5 764,-267.5 764,-267.5 770,-267.5 776,-273.5 776,-279.5 776,-279.5 776,-307.5 776,-307.5 776,-313.5 770,-319.5 764,-319.5 764,-319.5 607,-319.5 607,-319.5 601,-319.5 595,-313.5 595,-307.5 595,-307.5 595,-279.5 595,-279.5 595,-273.5 601,-267.5 607,-267.5"/>
<text text-anchor="middle" x="685.5" y="-306.7" font-family="droid sans,dejavu sans,helvetica" font-size="11.00" fill="#000000">H. Peter Anvin</text>
<text text-anchor="middle" x="685.5" y="-294.7" font-family="droid sans,dejavu sans,helvetica" font-size="11.00" fill="#000000">zytor.com</text>
<polyline fill="none" stroke="#c0c0c0" points="595,-287.5 776,-287.5 "/>
<text text-anchor="middle" x="626.5" y="-274.7" font-family="droid sans,dejavu sans,helvetica" font-size="11.00" fill="#000000">RSA 4096</text>
<polyline fill="none" stroke="#c0c0c0" points="658,-267.5 658,-287.5 "/>
<text text-anchor="middle" x="717" y="-274.7" font-family="droid sans,dejavu sans,helvetica" font-size="11.00" fill="#000000">BDA06085493BACE4</text>
</g>
<!-- a_321&#45;&gt;a_117 -->
<g id="edge11" class="edge">
<title>a_321&#45;&gt;a_117</title>
<path fill="none" stroke="#000000" d="M474.8963,-356.3984C510.6046,-345.7339 552.0422,-333.3582 588.667,-322.4199"/>
<polygon fill="#000000" stroke="#000000" points="589.7826,-325.7396 598.3628,-319.5242 587.7794,-319.0323 589.7826,-325.7396"/>
</g>
<!-- a_93 -->
<g id="node5" class="node">
<title>a_93</title>
<path fill="none" stroke="#c0c0c0" d="M210.5,-178.5C210.5,-178.5 366.5,-178.5 366.5,-178.5 372.5,-178.5 378.5,-184.5 378.5,-190.5 378.5,-190.5 378.5,-218.5 378.5,-218.5 378.5,-224.5 372.5,-230.5 366.5,-230.5 366.5,-230.5 210.5,-230.5 210.5,-230.5 204.5,-230.5 198.5,-224.5 198.5,-218.5 198.5,-218.5 198.5,-190.5 198.5,-190.5 198.5,-184.5 204.5,-178.5 210.5,-178.5"/>
<text text-anchor="middle" x="288.5" y="-217.7" font-family="droid sans,dejavu sans,helvetica" font-size="11.00" fill="#000000">Frank Rowand</text>
<text text-anchor="middle" x="288.5" y="-205.7" font-family="droid sans,dejavu sans,helvetica" font-size="11.00" fill="#000000">am.sony.com</text>
<polyline fill="none" stroke="#c0c0c0" points="198.5,-198.5 378.5,-198.5 "/>
<text text-anchor="middle" x="230" y="-185.7" font-family="droid sans,dejavu sans,helvetica" font-size="11.00" fill="#000000">RSA 4096</text>
<polyline fill="none" stroke="#c0c0c0" points="261.5,-178.5 261.5,-198.5 "/>
<text text-anchor="middle" x="320" y="-185.7" font-family="droid sans,dejavu sans,helvetica" font-size="11.00" fill="#000000">A16F9AB80CB2D395</text>
</g>
<!-- a_9&#45;&gt;a_93 -->
<g id="edge4" class="edge">
<title>a_9&#45;&gt;a_93</title>
<path fill="none" stroke="#000000" d="M288.5,-267.2784C288.5,-258.9495 288.5,-249.5865 288.5,-240.6839"/>
<polygon fill="#000000" stroke="#000000" points="292.0001,-240.5341 288.5,-230.5341 285.0001,-240.5342 292.0001,-240.5341"/>
</g>
<!-- a_371 -->
<g id="node6" class="node">
<title>a_371</title>
<path fill="none" stroke="#c0c0c0" d="M212.5,-89.5C212.5,-89.5 364.5,-89.5 364.5,-89.5 370.5,-89.5 376.5,-95.5 376.5,-101.5 376.5,-101.5 376.5,-129.5 376.5,-129.5 376.5,-135.5 370.5,-141.5 364.5,-141.5 364.5,-141.5 212.5,-141.5 212.5,-141.5 206.5,-141.5 200.5,-135.5 200.5,-129.5 200.5,-129.5 200.5,-101.5 200.5,-101.5 200.5,-95.5 206.5,-89.5 212.5,-89.5"/>
<text text-anchor="middle" x="288.5" y="-128.7" font-family="droid sans,dejavu sans,helvetica" font-size="11.00" fill="#000000">Ryder Lee</text>
<text text-anchor="middle" x="288.5" y="-116.7" font-family="droid sans,dejavu sans,helvetica" font-size="11.00" fill="#000000">kernel.org</text>
<polyline fill="none" stroke="#c0c0c0" points="200.5,-109.5 376.5,-109.5 "/>
<text text-anchor="middle" x="232" y="-96.7" font-family="droid sans,dejavu sans,helvetica" font-size="11.00" fill="#000000">RSA 4096</text>
<polyline fill="none" stroke="#c0c0c0" points="263.5,-89.5 263.5,-109.5 "/>
<text text-anchor="middle" x="320" y="-96.7" font-family="droid sans,dejavu sans,helvetica" font-size="11.00" fill="#000000">697322B3EE369246</text>
</g>
<!-- a_93&#45;&gt;a_371 -->
<g id="edge5" class="edge">
<title>a_93&#45;&gt;a_371</title>
<path fill="none" stroke="#000000" d="M288.5,-178.2784C288.5,-169.9495 288.5,-160.5865 288.5,-151.6839"/>
<polygon fill="#000000" stroke="#000000" points="292.0001,-151.5341 288.5,-141.5341 285.0001,-151.5342 292.0001,-151.5341"/>
</g>
<!-- a_371&#45;&gt;a_379 -->
<g id="edge6" class="edge">
<title>a_371&#45;&gt;a_379</title>
<path fill="none" stroke="#000000" d="M317.3732,-89.2784C327.641,-79.9536 339.3359,-69.3327 350.1487,-59.5129"/>
<polygon fill="#000000" stroke="#000000" points="352.7834,-61.8481 357.8332,-52.5341 348.0773,-56.6662 352.7834,-61.8481"/>
</g>
<!-- a_33 -->
<g id="node8" class="node">
<title>a_33</title>
<path fill="none" stroke="#c0c0c0" d="M409,-184.5C409,-184.5 564,-184.5 564,-184.5 570,-184.5 576,-190.5 576,-196.5 576,-196.5 576,-212.5 576,-212.5 576,-218.5 570,-224.5 564,-224.5 564,-224.5 409,-224.5 409,-224.5 403,-224.5 397,-218.5 397,-212.5 397,-212.5 397,-196.5 397,-196.5 397,-190.5 403,-184.5 409,-184.5"/>
<text text-anchor="middle" x="486.5" y="-211.7" font-family="droid sans,dejavu sans,helvetica" font-size="11.00" fill="#000000">Sebastian Andrzej Siewior</text>
<polyline fill="none" stroke="#c0c0c0" points="397,-204.5 576,-204.5 "/>
<text text-anchor="middle" x="428.5" y="-191.7" font-family="droid sans,dejavu sans,helvetica" font-size="11.00" fill="#000000">RSA 4096</text>
<polyline fill="none" stroke="#c0c0c0" points="460,-184.5 460,-204.5 "/>
<text text-anchor="middle" x="518" y="-191.7" font-family="droid sans,dejavu sans,helvetica" font-size="11.00" fill="#000000">7B96E8162A8CF5D1</text>
</g>
<!-- a_72&#45;&gt;a_33 -->
<g id="edge8" class="edge">
<title>a_72&#45;&gt;a_33</title>
<path fill="none" stroke="#000000" d="M486.5,-267.2784C486.5,-257.0491 486.5,-245.26 486.5,-234.6798"/>
<polygon fill="#000000" stroke="#000000" points="490.0001,-234.6051 486.5,-224.6051 483.0001,-234.6052 490.0001,-234.6051"/>
</g>
<!-- a_171 -->
<g id="node9" class="node">
<title>a_171</title>
<path fill="none" stroke="#c0c0c0" d="M408,-89.5C408,-89.5 563,-89.5 563,-89.5 569,-89.5 575,-95.5 575,-101.5 575,-101.5 575,-129.5 575,-129.5 575,-135.5 569,-141.5 563,-141.5 563,-141.5 408,-141.5 408,-141.5 402,-141.5 396,-135.5 396,-129.5 396,-129.5 396,-101.5 396,-101.5 396,-95.5 402,-89.5 408,-89.5"/>
<text text-anchor="middle" x="485.5" y="-128.7" font-family="droid sans,dejavu sans,helvetica" font-size="11.00" fill="#000000">Kevin Hilman</text>
<text text-anchor="middle" x="485.5" y="-116.7" font-family="droid sans,dejavu sans,helvetica" font-size="11.00" fill="#000000">kernel.org</text>
<polyline fill="none" stroke="#c0c0c0" points="396,-109.5 575,-109.5 "/>
<text text-anchor="middle" x="427.5" y="-96.7" font-family="droid sans,dejavu sans,helvetica" font-size="11.00" fill="#000000">RSA 4096</text>
<polyline fill="none" stroke="#c0c0c0" points="459,-89.5 459,-109.5 "/>
<text text-anchor="middle" x="517" y="-96.7" font-family="droid sans,dejavu sans,helvetica" font-size="11.00" fill="#000000">5937189AD3FBC665</text>
</g>
<!-- a_33&#45;&gt;a_171 -->
<g id="edge9" class="edge">
<title>a_33&#45;&gt;a_171</title>
<path fill="none" stroke="#000000" d="M486.2731,-184.3045C486.1657,-174.7436 486.034,-163.0234 485.9099,-151.9839"/>
<polygon fill="#000000" stroke="#000000" points="489.4066,-151.6609 485.7944,-141.7009 482.4071,-151.7397 489.4066,-151.6609"/>
</g>
<!-- a_171&#45;&gt;a_379 -->
<g id="edge10" class="edge">
<title>a_171&#45;&gt;a_379</title>
<path fill="none" stroke="#000000" d="M456.3322,-89.2784C445.8589,-79.8631 433.9158,-69.1264 422.9043,-59.2271"/>
<polygon fill="#000000" stroke="#000000" points="425.236,-56.6168 415.4593,-52.5341 420.5561,-61.8225 425.236,-56.6168"/>
</g>
<!-- a_18 -->
<g id="node11" class="node">
<title>a_18</title>
<path fill="none" stroke="#c0c0c0" d="M607.5,-178.5C607.5,-178.5 759.5,-178.5 759.5,-178.5 765.5,-178.5 771.5,-184.5 771.5,-190.5 771.5,-190.5 771.5,-218.5 771.5,-218.5 771.5,-224.5 765.5,-230.5 759.5,-230.5 759.5,-230.5 607.5,-230.5 607.5,-230.5 601.5,-230.5 595.5,-224.5 595.5,-218.5 595.5,-218.5 595.5,-190.5 595.5,-190.5 595.5,-184.5 601.5,-178.5 607.5,-178.5"/>
<text text-anchor="middle" x="683.5" y="-217.7" font-family="droid sans,dejavu sans,helvetica" font-size="11.00" fill="#000000">Arnd Bergmann</text>
<text text-anchor="middle" x="683.5" y="-205.7" font-family="droid sans,dejavu sans,helvetica" font-size="11.00" fill="#000000">arndb.de</text>
<polyline fill="none" stroke="#c0c0c0" points="595.5,-198.5 771.5,-198.5 "/>
<text text-anchor="middle" x="627" y="-185.7" font-family="droid sans,dejavu sans,helvetica" font-size="11.00" fill="#000000">RSA 4096</text>
<polyline fill="none" stroke="#c0c0c0" points="658.5,-178.5 658.5,-198.5 "/>
<text text-anchor="middle" x="715" y="-185.7" font-family="droid sans,dejavu sans,helvetica" font-size="11.00" fill="#000000">60AB47FFC9095227</text>
</g>
<!-- a_117&#45;&gt;a_18 -->
<g id="edge12" class="edge">
<title>a_117&#45;&gt;a_18</title>
<path fill="none" stroke="#000000" d="M684.9108,-267.2784C684.7236,-258.9495 684.5132,-249.5865 684.3131,-240.6839"/>
<polygon fill="#000000" stroke="#000000" points="687.8089,-240.453 684.085,-230.5341 680.8107,-240.6103 687.8089,-240.453"/>
</g>
<!-- a_355 -->
<g id="node12" class="node">
<title>a_355</title>
<path fill="none" stroke="#c0c0c0" d="M606,-89.5C606,-89.5 759,-89.5 759,-89.5 765,-89.5 771,-95.5 771,-101.5 771,-101.5 771,-129.5 771,-129.5 771,-135.5 765,-141.5 759,-141.5 759,-141.5 606,-141.5 606,-141.5 600,-141.5 594,-135.5 594,-129.5 594,-129.5 594,-101.5 594,-101.5 594,-95.5 600,-89.5 606,-89.5"/>
<text text-anchor="middle" x="682.5" y="-128.7" font-family="droid sans,dejavu sans,helvetica" font-size="11.00" fill="#000000">Greentime Hu</text>
<text text-anchor="middle" x="682.5" y="-116.7" font-family="droid sans,dejavu sans,helvetica" font-size="11.00" fill="#000000">andestech.com</text>
<polyline fill="none" stroke="#c0c0c0" points="594,-109.5 771,-109.5 "/>
<text text-anchor="middle" x="625.5" y="-96.7" font-family="droid sans,dejavu sans,helvetica" font-size="11.00" fill="#000000">RSA 4096</text>
<polyline fill="none" stroke="#c0c0c0" points="657,-89.5 657,-109.5 "/>
<text text-anchor="middle" x="714" y="-96.7" font-family="droid sans,dejavu sans,helvetica" font-size="11.00" fill="#000000">0B134119D94797F5</text>
</g>
<!-- a_18&#45;&gt;a_355 -->
<g id="edge13" class="edge">
<title>a_18&#45;&gt;a_355</title>
<path fill="none" stroke="#000000" d="M683.2054,-178.2784C683.1118,-169.9495 683.0066,-160.5865 682.9066,-151.6839"/>
<polygon fill="#000000" stroke="#000000" points="686.4047,-151.4942 682.7925,-141.5341 679.4052,-151.5729 686.4047,-151.4942"/>
</g>
<!-- a_355&#45;&gt;a_379 -->
<g id="edge14" class="edge">
<title>a_355&#45;&gt;a_379</title>
<path fill="none" stroke="#000000" d="M595.6903,-89.3984C560.2216,-78.7339 519.0621,-66.3582 482.6831,-55.4199"/>
<polygon fill="#000000" stroke="#000000" points="483.6367,-52.0519 473.0524,-52.5242 481.6211,-58.7555 483.6367,-52.0519"/>
</g>
</g>
</svg>
