<?xml version="1.0" encoding="UTF-8" standalone="no"?>
<!DOCTYPE svg PUBLIC "-//W3C//DTD SVG 1.1//EN"
 "http://www.w3.org/Graphics/SVG/1.1/DTD/svg11.dtd">
<!-- Generated by graphviz version 14.1.5 (20260411.2331)
 -->
<!-- Title: G Pages: 1 -->
<svg width="382pt" height="362pt"
 viewBox="0.00 0.00 382.00 362.00" xmlns="http://www.w3.org/2000/svg" xmlns:xlink="http://www.w3.org/1999/xlink">
<g id="graph0" class="graph" transform="scale(1 1) rotate(0) translate(4 358)">
<title>G</title>
<polygon fill="white" stroke="none" points="-4,4 -4,-358 377.88,-358 377.88,4 -4,4"/>
<g id="clust1" class="cluster">
<title>cluster_toplevel</title>
<polygon fill="none" stroke="white" points="89.88,-272.5 89.88,-346 285.88,-346 285.88,-272.5 89.88,-272.5"/>
</g>
<!-- a_506 -->
<g id="node1" class="node">
<title>a_506</title>
<g id="a_node1"><a xlink:href="C86F629E2382C5E2.svg" xlink:title="{Rob Herring\ngmail.com|{RSA 2048|C86F629E2382C5E2}}">
<path fill="none" stroke="gray" d="M15.25,-187.5C15.25,-187.5 166.5,-187.5 166.5,-187.5 172.5,-187.5 178.5,-193.5 178.5,-199.5 178.5,-199.5 178.5,-232 178.5,-232 178.5,-238 172.5,-244 166.5,-244 166.5,-244 15.25,-244 15.25,-244 9.25,-244 3.25,-238 3.25,-232 3.25,-232 3.25,-199.5 3.25,-199.5 3.25,-193.5 9.25,-187.5 15.25,-187.5"/>
<text xml:space="preserve" text-anchor="middle" x="90.88" y="-229.55" font-family="droid sans,dejavu sans,helvetica" font-size="11.00">Rob Herring</text>
<text xml:space="preserve" text-anchor="middle" x="90.88" y="-216.05" font-family="droid sans,dejavu sans,helvetica" font-size="11.00">gmail.com</text>
<polyline fill="none" stroke="gray" points="3.25,-209 178.5,-209"/>
<text xml:space="preserve" text-anchor="middle" x="34.5" y="-194.55" font-family="droid sans,dejavu sans,helvetica" font-size="11.00">RSA 2048</text>
<polyline fill="none" stroke="gray" points="65.75,-187.5 65.75,-209"/>
<text xml:space="preserve" text-anchor="middle" x="122.12" y="-194.55" font-family="droid sans,dejavu sans,helvetica" font-size="11.00">C86F629E2382C5E2</text>
</a>
</g>
</g>
<!-- a_526 -->
<g id="node3" class="node">
<title>a_526</title>
<g id="a_node3"><a xlink:href="D2B91C3CAE81121C.svg" xlink:title="{Viresh Kumar\ngmail.com|{RSA 4096|D2B91C3CAE81121C}}">
<path fill="none" stroke="gray" d="M12,-94C12,-94 167.75,-94 167.75,-94 173.75,-94 179.75,-100 179.75,-106 179.75,-106 179.75,-138.5 179.75,-138.5 179.75,-144.5 173.75,-150.5 167.75,-150.5 167.75,-150.5 12,-150.5 12,-150.5 6,-150.5 0,-144.5 0,-138.5 0,-138.5 0,-106 0,-106 0,-100 6,-94 12,-94"/>
<text xml:space="preserve" text-anchor="middle" x="89.88" y="-136.05" font-family="droid sans,dejavu sans,helvetica" font-size="11.00">Viresh Kumar</text>
<text xml:space="preserve" text-anchor="middle" x="89.88" y="-122.55" font-family="droid sans,dejavu sans,helvetica" font-size="11.00">gmail.com</text>
<polyline fill="none" stroke="gray" points="0,-115.5 179.75,-115.5"/>
<text xml:space="preserve" text-anchor="middle" x="31.25" y="-101.05" font-family="droid sans,dejavu sans,helvetica" font-size="11.00">RSA 4096</text>
<polyline fill="none" stroke="gray" points="62.5,-94 62.5,-115.5"/>
<text xml:space="preserve" text-anchor="middle" x="121.12" y="-101.05" font-family="droid sans,dejavu sans,helvetica" font-size="11.00">D2B91C3CAE81121C</text>
</a>
</g>
</g>
<!-- a_506&#45;&gt;a_526 -->
<g id="edge2" class="edge">
<title>a_506&#45;&gt;a_526</title>
<path fill="none" stroke="black" d="M90.57,-187.3C90.49,-179.5 90.4,-170.85 90.3,-162.49"/>
<polygon fill="black" stroke="black" points="93.8,-162.47 90.19,-152.51 86.8,-162.55 93.8,-162.47"/>
</g>
<!-- a_145 -->
<g id="node2" class="node">
<title>a_145</title>
<g id="a_node2"><a xlink:href="38DBBDC86092693E.svg" xlink:title="{Greg Kroah&#45;Hartman\nkroah.com|{RSA 4096|38DBBDC86092693E}}">
<path fill="none" stroke="gray" d="M110,-281C110,-281 265.75,-281 265.75,-281 271.75,-281 277.75,-287 277.75,-293 277.75,-293 277.75,-325.5 277.75,-325.5 277.75,-331.5 271.75,-337.5 265.75,-337.5 265.75,-337.5 110,-337.5 110,-337.5 104,-337.5 98,-331.5 98,-325.5 98,-325.5 98,-293 98,-293 98,-287 104,-281 110,-281"/>
<text xml:space="preserve" text-anchor="middle" x="187.88" y="-323.05" font-family="droid sans,dejavu sans,helvetica" font-size="11.00">Greg Kroah&#45;Hartman</text>
<text xml:space="preserve" text-anchor="middle" x="187.88" y="-309.55" font-family="droid sans,dejavu sans,helvetica" font-size="11.00">kroah.com</text>
<polyline fill="none" stroke="gray" points="98,-302.5 277.75,-302.5"/>
<text xml:space="preserve" text-anchor="middle" x="129.25" y="-288.05" font-family="droid sans,dejavu sans,helvetica" font-size="11.00">RSA 4096</text>
<polyline fill="none" stroke="gray" points="160.5,-281 160.5,-302.5"/>
<text xml:space="preserve" text-anchor="middle" x="219.12" y="-288.05" font-family="droid sans,dejavu sans,helvetica" font-size="11.00">38DBBDC86092693E</text>
</a>
</g>
</g>
<!-- a_145&#45;&gt;a_506 -->
<g id="edge1" class="edge">
<title>a_145&#45;&gt;a_506</title>
<path fill="none" stroke="black" d="M158.51,-280.55C149.01,-271.59 138.35,-261.53 128.35,-252.1"/>
<polygon fill="black" stroke="black" points="130.92,-249.71 121.24,-245.4 126.12,-254.8 130.92,-249.71"/>
</g>
<!-- a_562 -->
<g id="node5" class="node">
<title>a_562</title>
<g id="a_node5"><a xlink:href="E0F373F37BF9099A.svg" xlink:title="{Johannes Berg\nsipsolutions.net|{RSA 4096|E0F373F37BF9099A}}">
<path fill="none" stroke="gray" d="M210,-187.5C210,-187.5 359.75,-187.5 359.75,-187.5 365.75,-187.5 371.75,-193.5 371.75,-199.5 371.75,-199.5 371.75,-232 371.75,-232 371.75,-238 365.75,-244 359.75,-244 359.75,-244 210,-244 210,-244 204,-244 198,-238 198,-232 198,-232 198,-199.5 198,-199.5 198,-193.5 204,-187.5 210,-187.5"/>
<text xml:space="preserve" text-anchor="middle" x="284.88" y="-229.55" font-family="droid sans,dejavu sans,helvetica" font-size="11.00">Johannes Berg</text>
<text xml:space="preserve" text-anchor="middle" x="284.88" y="-216.05" font-family="droid sans,dejavu sans,helvetica" font-size="11.00">sipsolutions.net</text>
<polyline fill="none" stroke="gray" points="198,-209 371.75,-209"/>
<text xml:space="preserve" text-anchor="middle" x="229.25" y="-194.55" font-family="droid sans,dejavu sans,helvetica" font-size="11.00">RSA 4096</text>
<polyline fill="none" stroke="gray" points="260.5,-187.5 260.5,-209"/>
<text xml:space="preserve" text-anchor="middle" x="316.12" y="-194.55" font-family="droid sans,dejavu sans,helvetica" font-size="11.00">E0F373F37BF9099A</text>
</a>
</g>
</g>
<!-- a_145&#45;&gt;a_562 -->
<g id="edge4" class="edge">
<title>a_145&#45;&gt;a_562</title>
<path fill="none" stroke="black" d="M217.24,-280.55C226.74,-271.59 237.4,-261.53 247.4,-252.1"/>
<polygon fill="black" stroke="black" points="249.63,-254.8 254.51,-245.4 244.83,-249.71 249.63,-254.8"/>
</g>
<!-- a_604 -->
<g id="node4" class="node">
<title>a_604</title>
<g id="a_node4"><a xlink:href="F449AE44A8C05447.svg" xlink:title="{Ilia Lin\ngmail.com|{RSA 4096|F449AE44A8C05447}}">
<path fill="none" stroke="gray" d="M111.88,-0.5C111.88,-0.5 263.88,-0.5 263.88,-0.5 269.88,-0.5 275.88,-6.5 275.88,-12.5 275.88,-12.5 275.88,-45 275.88,-45 275.88,-51 269.88,-57 263.88,-57 263.88,-57 111.88,-57 111.88,-57 105.88,-57 99.88,-51 99.88,-45 99.88,-45 99.88,-12.5 99.88,-12.5 99.88,-6.5 105.88,-0.5 111.88,-0.5"/>
<text xml:space="preserve" text-anchor="middle" x="187.88" y="-42.55" font-family="droid sans,dejavu sans,helvetica" font-size="11.00">Ilia Lin</text>
<text xml:space="preserve" text-anchor="middle" x="187.88" y="-29.05" font-family="droid sans,dejavu sans,helvetica" font-size="11.00">gmail.com</text>
<polyline fill="none" stroke="gray" points="99.88,-22 275.88,-22"/>
<text xml:space="preserve" text-anchor="middle" x="131.12" y="-7.55" font-family="droid sans,dejavu sans,helvetica" font-size="11.00">RSA 4096</text>
<polyline fill="none" stroke="gray" points="162.38,-0.5 162.38,-22"/>
<text xml:space="preserve" text-anchor="middle" x="219.12" y="-7.55" font-family="droid sans,dejavu sans,helvetica" font-size="11.00">F449AE44A8C05447</text>
</a>
</g>
</g>
<!-- a_526&#45;&gt;a_604 -->
<g id="edge3" class="edge">
<title>a_526&#45;&gt;a_604</title>
<path fill="none" stroke="black" d="M119.54,-93.55C129.14,-84.59 139.91,-74.53 150.02,-65.1"/>
<polygon fill="black" stroke="black" points="152.28,-67.77 157.2,-58.39 147.5,-62.66 152.28,-67.77"/>
</g>
<!-- a_118 -->
<g id="node6" class="node">
<title>a_118</title>
<g id="a_node6"><a xlink:href="2D0B96FE6E363201.svg" xlink:title="{Emmanuel Grumbach\nintel.com|{RSA 4096|2D0B96FE6E363201}}">
<path fill="none" stroke="gray" d="M209.88,-94C209.88,-94 361.88,-94 361.88,-94 367.88,-94 373.88,-100 373.88,-106 373.88,-106 373.88,-138.5 373.88,-138.5 373.88,-144.5 367.88,-150.5 361.88,-150.5 361.88,-150.5 209.88,-150.5 209.88,-150.5 203.88,-150.5 197.88,-144.5 197.88,-138.5 197.88,-138.5 197.88,-106 197.88,-106 197.88,-100 203.88,-94 209.88,-94"/>
<text xml:space="preserve" text-anchor="middle" x="285.88" y="-136.05" font-family="droid sans,dejavu sans,helvetica" font-size="11.00">Emmanuel Grumbach</text>
<text xml:space="preserve" text-anchor="middle" x="285.88" y="-122.55" font-family="droid sans,dejavu sans,helvetica" font-size="11.00">intel.com</text>
<polyline fill="none" stroke="gray" points="197.88,-115.5 373.88,-115.5"/>
<text xml:space="preserve" text-anchor="middle" x="229.12" y="-101.05" font-family="droid sans,dejavu sans,helvetica" font-size="11.00">RSA 4096</text>
<polyline fill="none" stroke="gray" points="260.38,-94 260.38,-115.5"/>
<text xml:space="preserve" text-anchor="middle" x="317.12" y="-101.05" font-family="droid sans,dejavu sans,helvetica" font-size="11.00">2D0B96FE6E363201</text>
</a>
</g>
</g>
<!-- a_562&#45;&gt;a_118 -->
<g id="edge5" class="edge">
<title>a_562&#45;&gt;a_118</title>
<path fill="none" stroke="black" d="M285.18,-187.3C285.26,-179.5 285.35,-170.85 285.45,-162.49"/>
<polygon fill="black" stroke="black" points="288.95,-162.55 285.56,-152.51 281.95,-162.47 288.95,-162.55"/>
</g>
<!-- a_118&#45;&gt;a_604 -->
<g id="edge6" class="edge">
<title>a_118&#45;&gt;a_604</title>
<path fill="none" stroke="black" d="M256.21,-93.55C246.61,-84.59 235.84,-74.53 225.73,-65.1"/>
<polygon fill="black" stroke="black" points="228.25,-62.66 218.55,-58.39 223.47,-67.77 228.25,-62.66"/>
</g>
</g>
</svg>
