<?xml version="1.0" encoding="UTF-8" standalone="no"?>
<!DOCTYPE svg PUBLIC "-//W3C//DTD SVG 1.1//EN"
 "http://www.w3.org/Graphics/SVG/1.1/DTD/svg11.dtd">
<!-- Generated by graphviz version 7.1.0 (0)
 -->
<!-- Title: G Pages: 1 -->
<svg width="584pt" height="433pt"
 viewBox="0.00 0.00 583.50 433.00" xmlns="http://www.w3.org/2000/svg" xmlns:xlink="http://www.w3.org/1999/xlink">
<g id="graph0" class="graph" transform="scale(1 1) rotate(0) translate(4 429)">
<title>G</title>
<polygon fill="white" stroke="none" points="-4,4 -4,-429 579.5,-429 579.5,4 -4,4"/>
<g id="clust1" class="cluster">
<title>cluster_toplevel</title>
<polygon fill="none" stroke="white" points="192,-348 192,-417 384,-417 384,-348 192,-348"/>
</g>
<!-- a_306 -->
<g id="node1" class="node">
<title>a_306</title>
<path fill="none" stroke="gray" d="M12,-267.5C12,-267.5 168,-267.5 168,-267.5 174,-267.5 180,-273.5 180,-279.5 180,-279.5 180,-307.5 180,-307.5 180,-313.5 174,-319.5 168,-319.5 168,-319.5 12,-319.5 12,-319.5 6,-319.5 0,-313.5 0,-307.5 0,-307.5 0,-279.5 0,-279.5 0,-273.5 6,-267.5 12,-267.5"/>
<text text-anchor="middle" x="90" y="-306.7" font-family="droid sans,dejavu sans,helvetica" font-size="11.00">Kees Cook</text>
<text text-anchor="middle" x="90" y="-294.7" font-family="droid sans,dejavu sans,helvetica" font-size="11.00">outflux.net</text>
<polyline fill="none" stroke="gray" points="0,-287.5 180,-287.5"/>
<text text-anchor="middle" x="31.5" y="-274.7" font-family="droid sans,dejavu sans,helvetica" font-size="11.00">RSA 4096</text>
<polyline fill="none" stroke="gray" points="63,-267.5 63,-287.5"/>
<text text-anchor="middle" x="121.5" y="-274.7" font-family="droid sans,dejavu sans,helvetica" font-size="11.00">8972F4DFDC6DC026</text>
</g>
<!-- a_128 -->
<g id="node3" class="node">
<title>a_128</title>
<path fill="none" stroke="gray" d="M12.5,-178.5C12.5,-178.5 167.5,-178.5 167.5,-178.5 173.5,-178.5 179.5,-184.5 179.5,-190.5 179.5,-190.5 179.5,-218.5 179.5,-218.5 179.5,-224.5 173.5,-230.5 167.5,-230.5 167.5,-230.5 12.5,-230.5 12.5,-230.5 6.5,-230.5 0.5,-224.5 0.5,-218.5 0.5,-218.5 0.5,-190.5 0.5,-190.5 0.5,-184.5 6.5,-178.5 12.5,-178.5"/>
<text text-anchor="middle" x="90" y="-217.7" font-family="droid sans,dejavu sans,helvetica" font-size="11.00">Adriaan</text>
<text text-anchor="middle" x="90" y="-205.7" font-family="droid sans,dejavu sans,helvetica" font-size="11.00">gmail.com</text>
<polyline fill="none" stroke="gray" points="0.5,-198.5 179.5,-198.5"/>
<text text-anchor="middle" x="32" y="-185.7" font-family="droid sans,dejavu sans,helvetica" font-size="11.00">RSA 4096</text>
<polyline fill="none" stroke="gray" points="63.5,-178.5 63.5,-198.5"/>
<text text-anchor="middle" x="121.5" y="-185.7" font-family="droid sans,dejavu sans,helvetica" font-size="11.00">3D200E9CA6329909</text>
</g>
<!-- a_306&#45;&gt;a_128 -->
<g id="edge2" class="edge">
<title>a_306&#45;&gt;a_128</title>
<path fill="none" stroke="black" d="M90,-267.8C90,-259.63 90,-250.36 90,-241.51"/>
<polygon fill="black" stroke="black" points="93.5,-241.77 90,-231.77 86.5,-241.77 93.5,-241.77"/>
</g>
<!-- a_262 -->
<g id="node2" class="node">
<title>a_262</title>
<path fill="none" stroke="gray" d="M212,-356.5C212,-356.5 364,-356.5 364,-356.5 370,-356.5 376,-362.5 376,-368.5 376,-368.5 376,-396.5 376,-396.5 376,-402.5 370,-408.5 364,-408.5 364,-408.5 212,-408.5 212,-408.5 206,-408.5 200,-402.5 200,-396.5 200,-396.5 200,-368.5 200,-368.5 200,-362.5 206,-356.5 212,-356.5"/>
<text text-anchor="middle" x="288" y="-395.7" font-family="droid sans,dejavu sans,helvetica" font-size="11.00">Linus Torvalds</text>
<text text-anchor="middle" x="288" y="-383.7" font-family="droid sans,dejavu sans,helvetica" font-size="11.00">kernel.org</text>
<polyline fill="none" stroke="gray" points="200,-376.5 376,-376.5"/>
<text text-anchor="middle" x="231.5" y="-363.7" font-family="droid sans,dejavu sans,helvetica" font-size="11.00">RSA 2048</text>
<polyline fill="none" stroke="gray" points="263,-356.5 263,-376.5"/>
<text text-anchor="middle" x="319.5" y="-363.7" font-family="droid sans,dejavu sans,helvetica" font-size="11.00">79BE3E4300411886</text>
</g>
<!-- a_262&#45;&gt;a_306 -->
<g id="edge1" class="edge">
<title>a_262&#45;&gt;a_306</title>
<path fill="none" stroke="black" d="M231.26,-356.57C208.17,-346.42 181.3,-334.61 157.23,-324.04"/>
<polygon fill="black" stroke="black" points="158.7,-320.86 148.13,-320.04 155.88,-327.27 158.7,-320.86"/>
</g>
<!-- a_75 -->
<g id="node5" class="node">
<title>a_75</title>
<path fill="none" stroke="gray" d="M210.5,-267.5C210.5,-267.5 365.5,-267.5 365.5,-267.5 371.5,-267.5 377.5,-273.5 377.5,-279.5 377.5,-279.5 377.5,-307.5 377.5,-307.5 377.5,-313.5 371.5,-319.5 365.5,-319.5 365.5,-319.5 210.5,-319.5 210.5,-319.5 204.5,-319.5 198.5,-313.5 198.5,-307.5 198.5,-307.5 198.5,-279.5 198.5,-279.5 198.5,-273.5 204.5,-267.5 210.5,-267.5"/>
<text text-anchor="middle" x="288" y="-306.7" font-family="droid sans,dejavu sans,helvetica" font-size="11.00">Junio C Hamano</text>
<text text-anchor="middle" x="288" y="-294.7" font-family="droid sans,dejavu sans,helvetica" font-size="11.00">pobox.com</text>
<polyline fill="none" stroke="gray" points="198.5,-287.5 377.5,-287.5"/>
<text text-anchor="middle" x="230" y="-274.7" font-family="droid sans,dejavu sans,helvetica" font-size="11.00">RSA 4096</text>
<polyline fill="none" stroke="gray" points="261.5,-267.5 261.5,-287.5"/>
<text text-anchor="middle" x="319.5" y="-274.7" font-family="droid sans,dejavu sans,helvetica" font-size="11.00">20D04E5A713660A7</text>
</g>
<!-- a_262&#45;&gt;a_75 -->
<g id="edge4" class="edge">
<title>a_262&#45;&gt;a_75</title>
<path fill="none" stroke="black" d="M288,-356.8C288,-348.63 288,-339.36 288,-330.51"/>
<polygon fill="black" stroke="black" points="291.5,-330.77 288,-320.77 284.5,-330.77 291.5,-330.77"/>
</g>
<!-- a_212 -->
<g id="node8" class="node">
<title>a_212</title>
<path fill="none" stroke="gray" d="M408,-267.5C408,-267.5 562,-267.5 562,-267.5 568,-267.5 574,-273.5 574,-279.5 574,-279.5 574,-307.5 574,-307.5 574,-313.5 568,-319.5 562,-319.5 562,-319.5 408,-319.5 408,-319.5 402,-319.5 396,-313.5 396,-307.5 396,-307.5 396,-279.5 396,-279.5 396,-273.5 402,-267.5 408,-267.5"/>
<text text-anchor="middle" x="485" y="-306.7" font-family="droid sans,dejavu sans,helvetica" font-size="11.00">David Woodhouse</text>
<text text-anchor="middle" x="485" y="-294.7" font-family="droid sans,dejavu sans,helvetica" font-size="11.00">infradead.org</text>
<polyline fill="none" stroke="gray" points="396,-287.5 574,-287.5"/>
<text text-anchor="middle" x="427.5" y="-274.7" font-family="droid sans,dejavu sans,helvetica" font-size="11.00">RSA 4096</text>
<polyline fill="none" stroke="gray" points="459,-267.5 459,-287.5"/>
<text text-anchor="middle" x="516.5" y="-274.7" font-family="droid sans,dejavu sans,helvetica" font-size="11.00">63762CDA67E2F359</text>
</g>
<!-- a_262&#45;&gt;a_212 -->
<g id="edge8" class="edge">
<title>a_262&#45;&gt;a_212</title>
<path fill="none" stroke="black" d="M344.45,-356.57C367.43,-346.42 394.17,-334.61 418.11,-324.04"/>
<polygon fill="black" stroke="black" points="419.42,-327.29 427.15,-320.05 416.59,-320.88 419.42,-327.29"/>
</g>
<!-- a_517 -->
<g id="node4" class="node">
<title>a_517</title>
<path fill="none" stroke="gray" d="M213,-0.5C213,-0.5 363,-0.5 363,-0.5 369,-0.5 375,-6.5 375,-12.5 375,-12.5 375,-40.5 375,-40.5 375,-46.5 369,-52.5 363,-52.5 363,-52.5 213,-52.5 213,-52.5 207,-52.5 201,-46.5 201,-40.5 201,-40.5 201,-12.5 201,-12.5 201,-6.5 207,-0.5 213,-0.5"/>
<text text-anchor="middle" x="288" y="-39.7" font-family="droid sans,dejavu sans,helvetica" font-size="11.00">Abel Vesa</text>
<text text-anchor="middle" x="288" y="-27.7" font-family="droid sans,dejavu sans,helvetica" font-size="11.00">gmail.com</text>
<polyline fill="none" stroke="gray" points="201,-20.5 375,-20.5"/>
<text text-anchor="middle" x="232.5" y="-7.7" font-family="droid sans,dejavu sans,helvetica" font-size="11.00">RSA 4096</text>
<polyline fill="none" stroke="gray" points="264,-0.5 264,-20.5"/>
<text text-anchor="middle" x="319.5" y="-7.7" font-family="droid sans,dejavu sans,helvetica" font-size="11.00">F7BF214136F41FAE</text>
</g>
<!-- a_128&#45;&gt;a_517 -->
<g id="edge3" class="edge">
<title>a_128&#45;&gt;a_517</title>
<path fill="none" stroke="black" d="M108.09,-178.84C126.85,-154.29 157.88,-116.42 190,-89 203.03,-77.87 218.26,-67.33 232.78,-58.22"/>
<polygon fill="black" stroke="black" points="234.2,-61.46 240.89,-53.24 230.54,-55.49 234.2,-61.46"/>
</g>
<!-- a_315 -->
<g id="node6" class="node">
<title>a_315</title>
<path fill="none" stroke="gray" d="M210,-178.5C210,-178.5 366,-178.5 366,-178.5 372,-178.5 378,-184.5 378,-190.5 378,-190.5 378,-218.5 378,-218.5 378,-224.5 372,-230.5 366,-230.5 366,-230.5 210,-230.5 210,-230.5 204,-230.5 198,-224.5 198,-218.5 198,-218.5 198,-190.5 198,-190.5 198,-184.5 204,-178.5 210,-178.5"/>
<text text-anchor="middle" x="288" y="-217.7" font-family="droid sans,dejavu sans,helvetica" font-size="11.00">Olof Johansson</text>
<text text-anchor="middle" x="288" y="-205.7" font-family="droid sans,dejavu sans,helvetica" font-size="11.00">lixom.net</text>
<polyline fill="none" stroke="gray" points="198,-198.5 378,-198.5"/>
<text text-anchor="middle" x="229.5" y="-185.7" font-family="droid sans,dejavu sans,helvetica" font-size="11.00">RSA 4096</text>
<polyline fill="none" stroke="gray" points="261,-178.5 261,-198.5"/>
<text text-anchor="middle" x="319.5" y="-185.7" font-family="droid sans,dejavu sans,helvetica" font-size="11.00">8C1AE73CDE841C77</text>
</g>
<!-- a_75&#45;&gt;a_315 -->
<g id="edge5" class="edge">
<title>a_75&#45;&gt;a_315</title>
<path fill="none" stroke="black" d="M288,-267.8C288,-259.63 288,-250.36 288,-241.51"/>
<polygon fill="black" stroke="black" points="291.5,-241.77 288,-231.77 284.5,-241.77 291.5,-241.77"/>
</g>
<!-- a_66 -->
<g id="node7" class="node">
<title>a_66</title>
<path fill="none" stroke="gray" d="M210.5,-89.5C210.5,-89.5 365.5,-89.5 365.5,-89.5 371.5,-89.5 377.5,-95.5 377.5,-101.5 377.5,-101.5 377.5,-129.5 377.5,-129.5 377.5,-135.5 371.5,-141.5 365.5,-141.5 365.5,-141.5 210.5,-141.5 210.5,-141.5 204.5,-141.5 198.5,-135.5 198.5,-129.5 198.5,-129.5 198.5,-101.5 198.5,-101.5 198.5,-95.5 204.5,-89.5 210.5,-89.5"/>
<text text-anchor="middle" x="288" y="-128.7" font-family="droid sans,dejavu sans,helvetica" font-size="11.00">Krzysztof Kozlowski</text>
<text text-anchor="middle" x="288" y="-116.7" font-family="droid sans,dejavu sans,helvetica" font-size="11.00">gmail.com</text>
<polyline fill="none" stroke="gray" points="198.5,-109.5 377.5,-109.5"/>
<text text-anchor="middle" x="230" y="-96.7" font-family="droid sans,dejavu sans,helvetica" font-size="11.00">RSA 4096</text>
<polyline fill="none" stroke="gray" points="261.5,-89.5 261.5,-109.5"/>
<text text-anchor="middle" x="319.5" y="-96.7" font-family="droid sans,dejavu sans,helvetica" font-size="11.00">1B93437D3B41629B</text>
</g>
<!-- a_315&#45;&gt;a_66 -->
<g id="edge6" class="edge">
<title>a_315&#45;&gt;a_66</title>
<path fill="none" stroke="black" d="M288,-178.8C288,-170.63 288,-161.36 288,-152.51"/>
<polygon fill="black" stroke="black" points="291.5,-152.77 288,-142.77 284.5,-152.77 291.5,-152.77"/>
</g>
<!-- a_66&#45;&gt;a_517 -->
<g id="edge7" class="edge">
<title>a_66&#45;&gt;a_517</title>
<path fill="none" stroke="black" d="M288,-89.8C288,-81.63 288,-72.36 288,-63.51"/>
<polygon fill="black" stroke="black" points="291.5,-63.77 288,-53.77 284.5,-63.77 291.5,-63.77"/>
</g>
<!-- a_376 -->
<g id="node9" class="node">
<title>a_376</title>
<path fill="none" stroke="gray" d="M408.5,-178.5C408.5,-178.5 563.5,-178.5 563.5,-178.5 569.5,-178.5 575.5,-184.5 575.5,-190.5 575.5,-190.5 575.5,-218.5 575.5,-218.5 575.5,-224.5 569.5,-230.5 563.5,-230.5 563.5,-230.5 408.5,-230.5 408.5,-230.5 402.5,-230.5 396.5,-224.5 396.5,-218.5 396.5,-218.5 396.5,-190.5 396.5,-190.5 396.5,-184.5 402.5,-178.5 408.5,-178.5"/>
<text text-anchor="middle" x="486" y="-217.7" font-family="droid sans,dejavu sans,helvetica" font-size="11.00">Benoit Cousson</text>
<text text-anchor="middle" x="486" y="-205.7" font-family="droid sans,dejavu sans,helvetica" font-size="11.00">baylibre.com</text>
<polyline fill="none" stroke="gray" points="396.5,-198.5 575.5,-198.5"/>
<text text-anchor="middle" x="428" y="-185.7" font-family="droid sans,dejavu sans,helvetica" font-size="11.00">RSA 4096</text>
<polyline fill="none" stroke="gray" points="459.5,-178.5 459.5,-198.5"/>
<text text-anchor="middle" x="517.5" y="-185.7" font-family="droid sans,dejavu sans,helvetica" font-size="11.00">AD5BE090C6AF2275</text>
</g>
<!-- a_212&#45;&gt;a_376 -->
<g id="edge9" class="edge">
<title>a_212&#45;&gt;a_376</title>
<path fill="none" stroke="black" d="M485.28,-267.8C485.38,-259.63 485.48,-250.36 485.59,-241.51"/>
<polygon fill="black" stroke="black" points="489.08,-241.81 485.7,-231.77 482.08,-241.73 489.08,-241.81"/>
</g>
<!-- a_42 -->
<g id="node10" class="node">
<title>a_42</title>
<path fill="none" stroke="gray" d="M407.5,-89.5C407.5,-89.5 562.5,-89.5 562.5,-89.5 568.5,-89.5 574.5,-95.5 574.5,-101.5 574.5,-101.5 574.5,-129.5 574.5,-129.5 574.5,-135.5 568.5,-141.5 562.5,-141.5 562.5,-141.5 407.5,-141.5 407.5,-141.5 401.5,-141.5 395.5,-135.5 395.5,-129.5 395.5,-129.5 395.5,-101.5 395.5,-101.5 395.5,-95.5 401.5,-89.5 407.5,-89.5"/>
<text text-anchor="middle" x="485" y="-128.7" font-family="droid sans,dejavu sans,helvetica" font-size="11.00">Bartosz Golaszewski</text>
<text text-anchor="middle" x="485" y="-116.7" font-family="droid sans,dejavu sans,helvetica" font-size="11.00">bgdev.pl</text>
<polyline fill="none" stroke="gray" points="395.5,-109.5 574.5,-109.5"/>
<text text-anchor="middle" x="427" y="-96.7" font-family="droid sans,dejavu sans,helvetica" font-size="11.00">RSA 4096</text>
<polyline fill="none" stroke="gray" points="458.5,-89.5 458.5,-109.5"/>
<text text-anchor="middle" x="516.5" y="-96.7" font-family="droid sans,dejavu sans,helvetica" font-size="11.00">11A72EA01471D772</text>
</g>
<!-- a_376&#45;&gt;a_42 -->
<g id="edge10" class="edge">
<title>a_376&#45;&gt;a_42</title>
<path fill="none" stroke="black" d="M485.72,-178.8C485.62,-170.63 485.52,-161.36 485.41,-152.51"/>
<polygon fill="black" stroke="black" points="488.92,-152.73 485.3,-142.77 481.92,-152.81 488.92,-152.73"/>
</g>
<!-- a_42&#45;&gt;a_517 -->
<g id="edge11" class="edge">
<title>a_42&#45;&gt;a_517</title>
<path fill="none" stroke="black" d="M428.55,-89.57C405.57,-79.42 378.83,-67.61 354.89,-57.04"/>
<polygon fill="black" stroke="black" points="356.41,-53.88 345.85,-53.05 353.58,-60.29 356.41,-53.88"/>
</g>
</g>
</svg>
